<svg xmlns="http://www.w3.org/2000/svg" xmlns:xlink="http://www.w3.org/1999/xlink" id="Camada_1" x="0px" y="0px" viewBox="0 0 120 31.9" style="enable-background:new 0 0 120 31.9;" xml:space="preserve">
<style type="text/css">
	.st0{fill-rule:evenodd;clip-rule:evenodd;fill:url(#SVGID_1_);}
	.st1{fill-rule:evenodd;clip-rule:evenodd;fill:url(#SVGID_2_);}
	.st2{fill-rule:evenodd;clip-rule:evenodd;fill:#21262F;}
	.st3{fill-rule:evenodd;clip-rule:evenodd;fill:url(#SVGID_3_);}
</style>
<linearGradient id="SVGID_1_" gradientUnits="userSpaceOnUse" x1="151.6958" y1="197.3983" x2="-119.8436" y2="-162.9466" gradientTransform="matrix(1 0 0 -1 0 33.1534)">
	<stop offset="0" style="stop-color:#0092C6"></stop>
	<stop offset="1" style="stop-color:#214881"></stop>
</linearGradient>
<path class="st0" d="M12.2,0h7.4c1.5,0,2.8,1.2,2.8,2.8v4c-2.6,1.3-4.7,2.5-6.1,3.2c0.6,0.2,1,0.6,1.2,1.1c-0.9-0.8-2.2-1.1-3.4-0.8  s-2.1,1.2-2.5,2.4c-0.6,1.9-0.1,3.4,1.5,4.4c1.1,0.5,2.1,0.4,2.9-0.4c0.4-0.5,1.1-0.7,1.9-0.4c-0.6,0.1-0.8,0.2-0.8,0.2  c0.9,2.1,4.8,1.1,3.9-3.4c0.6-0.5,2.6-2.1,5.7-3.4h2.4c1.5,0,2.8,1.2,2.8,2.8v7.4c0,1.5-1.2,2.8-2.8,2.8h-6.7v6.7  c0,1.5-1.2,2.8-2.8,2.8h-5.6c1.6-3.2,3.6-7.9,4.4-11.1c-1.3,0-2.4,0.5-3.4,1.5c-0.3,2.2-2.1,6.4-3.5,9.6c-1.1-0.2-2-1.2-2.1-2.4  c2-3.4,3.7-5.9,4.7-7.4c0.3-1.3,0.8-1.9,1.6-1.9c1.2,0.1,1.9-0.1,2.2-0.7c0.1-0.6-0.6-1.2-2.1-2c-1.8,1.2-3.5,0.7-4.9-1.6  c-0.7,1.6-1.6,3.8-2.5,6.6H2.8c-1.5,0-2.8-1.2-2.8-2.8v-7.5c0-1.5,1.2-2.8,2.8-2.8h6.7V2.8C9.4,1.2,10.7,0,12.2,0z"></path>
<linearGradient id="SVGID_2_" gradientUnits="userSpaceOnUse" x1="14.9906" y1="27.9913" x2="4.9604" y2="19.2722" gradientTransform="matrix(1 0 0 -1 0 33.1534)">
	<stop offset="0" style="stop-color:#0092C6"></stop>
	<stop offset="1" style="stop-color:#214881"></stop>
</linearGradient>
<path class="st1" d="M12.2,0h7.4c1.5,0,2.8,1.2,2.8,2.8v4c-2.6,1.3-4.7,2.5-6.1,3.2c0.6,0.2,1,0.6,1.2,1.1c-0.9-0.8-2.2-1.1-3.4-0.8  s-2.1,1.2-2.5,2.4c-0.5,1.4-0.3,2.6,0.5,3.6c-0.1,0-0.2,0.1-0.3,0.2c-0.1,0.1-0.2,0.1-0.4,0.2c-0.2-0.2-0.3-0.4-0.5-0.7  c-0.2,0.4-0.3,0.7-0.5,1.1C6.9,18.6,3.4,19.7,0,20.2c0-0.2,0-0.4,0-0.6v-7.4c0-1.5,1.2-2.8,2.8-2.8h6.7V2.8C9.4,1.2,10.7,0,12.2,0z"></path>
<path class="st2" d="M45.9,14.7c0-1.5-0.7-2.2-1.8-2.7c0.9-0.4,1.4-1.1,1.4-2.4c0-2.1-1.4-2.9-3.6-2.9h-4.2c-0.7,0-1.2,0.6-1.2,1.2  v10.2h5.2C44.2,18.2,45.9,17.1,45.9,14.7L45.9,14.7z M43.1,10c0,0.9-0.7,1.3-1.7,1.3h-2.6V8.8h2.6C42.5,8.8,43.1,9,43.1,10L43.1,10z   M43.4,14.7c0,1.1-0.7,1.5-1.9,1.5h-2.7v-3h2.7C42.7,13.1,43.4,13.5,43.4,14.7z"></path>
<path class="st2" d="M50.9,9.2c-2.7,0-4,1.5-4,4.6s1.3,4.6,4,4.6c2.7,0,4.1-1.5,4.1-4.6S53.6,9.2,50.9,9.2L50.9,9.2z M50.9,11.2  c1.1,0,1.7,0.9,1.7,2.6c0,1.8-0.6,2.7-1.7,2.7s-1.7-0.9-1.7-2.6C49.1,12,49.7,11.2,50.9,11.2z"></path>
<path class="st2" d="M63.6,18.2V13c0-2.5-1.2-3.8-3.7-3.8S56,10.5,56,13v5.2h2.2v-5.6c0-0.9,0.5-1.4,1.5-1.4s1.5,0.4,1.5,1.4v4.6  c0,0.7,0.4,1.1,1.1,1.1H63.6z"></path>
<path class="st2" d="M72.5,15.5h-1.7c-0.3,0-0.6,0.1-0.7,0.3c-0.4,0.4-0.9,0.6-1.5,0.6c-1.1,0-1.7-0.7-1.8-2.1h5.8  c0.2-3.5-1.1-5.2-4-5.2c-2.7,0-4.1,1.5-4.1,4.5c0,3,1.3,4.6,4,4.7C70.8,18.4,72,17.4,72.5,15.5L72.5,15.5z M68.6,11  c0.9,0,1.5,0.6,1.7,1.8h-3.4C67.1,11.6,67.7,11,68.6,11z"></path>
<path class="st2" d="M75.5,8v10.2h2.4v-5.1h4.7v5.1h2.4V6.7h-2.4v4.3h-4.7V6.8h-1.2C76.1,6.8,75.5,7.4,75.5,8z"></path>
<path class="st2" d="M93.9,15.5h-1.7c-0.3,0-0.6,0.1-0.7,0.3c-0.4,0.4-0.9,0.6-1.5,0.6c-1.1,0-1.7-0.7-1.8-2.1H94  c0.2-3.5-1.1-5.2-4-5.2c-2.7,0-4.1,1.5-4.1,4.5c0,3,1.3,4.6,4,4.7C92.2,18.4,93.4,17.4,93.9,15.5L93.9,15.5z M90,11  c0.9,0,1.5,0.6,1.7,1.8h-3.4C88.5,11.6,89,11,90,11z"></path>
<path class="st2" d="M98.2,16.6c-0.7,0-1.1-0.4-1.1-1c0-0.7,0.5-1.1,1.3-1.3c0.7-0.1,1.3-0.3,1.8-0.6v0.8  C100.2,15.8,99.4,16.6,98.2,16.6L98.2,16.6z M98.7,11c0.9,0,1.4,0.2,1.5,0.7c0,0.5-0.5,0.8-1.5,0.9c-2.2,0.2-3.8,0.8-3.9,2.9  c0,2,1.5,3,3.6,2.8c2.4-0.2,3.9-1.3,3.9-3.7v-3c0-1.7-1.3-2.4-3.7-2.4c-2.1,0-3.2,0.8-3.5,2.4h2.2C97.5,11.2,97.9,11,98.7,11z"></path>
<path class="st2" d="M104.9,6.8h-1.1v11.4h2.2V7.9C106,7.3,105.5,6.8,104.9,6.8z"></path>
<path class="st2" d="M110.8,9.8V9.4h-1.3V7.9c0-0.6-0.5-1.1-1.1-1.1h-1.1v9.7c0,1,0.4,1.5,1.2,1.6c0.8,0.1,1.6,0.1,2.4,0v-1.7h-0.7  c-0.4,0-0.7-0.2-0.7-0.6v-4.9h0.2C110.4,10.9,110.8,10.5,110.8,9.8z"></path>
<path class="st2" d="M117.8,13.7v4.5h2.2v-5.1c0.1-1.9-0.5-3.1-1.8-3.6c-1.7-0.6-3.1-0.2-4.2,1.1V7.9c0-0.7-0.4-1.1-1.1-1.1h-1.1  v11.4h2.2v-4.6c0-1.3,0.6-2.5,1.9-2.5C117.2,11.2,117.8,12.2,117.8,13.7z"></path>
<path class="st2" d="M39.5,22.1c0,0.1,0,0.1,0,0.2c-0.2,0.4-0.5,0.9-0.9,1.3c0,0.1-0.1,0.1-0.1,0.2s0,0.2,0,0.4s0,0.3,0,0.4  c0,0,0,0,0,0s0,0-0.1,0s-0.2,0-0.4,0s-0.4,0-0.5,0c0,0-0.1,0-0.1-0.1c0-0.1,0-0.2,0-0.4c0-0.2,0-0.3,0-0.4c0,0,0-0.1-0.1-0.2  c-0.2-0.3-0.5-0.7-0.9-1.3c0-0.1,0-0.1,0-0.2c0-0.1,0-0.2,0-0.4s0-0.4,0-0.4c0,0,0-0.1,0-0.1c0.1,0,0.2,0,0.5,0c0.2,0,0.4,0,0.5,0  c0,0,0,0,0,0c0,0.1,0,0.2,0,0.4c0,0.2,0,0.3,0,0.4c0,0,0.1,0.2,0.2,0.4c0.1,0.2,0.2,0.3,0.3,0.4c0.1-0.1,0.2-0.2,0.3-0.4  c0.2-0.2,0.2-0.3,0.2-0.4c0-0.1,0-0.2,0-0.4c0-0.2,0-0.3,0-0.4c0,0,0,0,0,0c0,0,0,0,0.1,0c0.1,0,0.2,0,0.4,0s0.4,0,0.4,0  c0,0,0,0,0,0.1s0,0.2,0,0.4C39.5,21.9,39.5,22,39.5,22.1z"></path>
<path class="st2" d="M43.2,22.9c0,0.5-0.2,0.9-0.5,1.3c-0.3,0.4-0.7,0.5-1.3,0.5c-0.5,0-0.9-0.2-1.3-0.6c-0.3-0.4-0.5-0.8-0.5-1.3  s0.2-0.9,0.5-1.3c0.4-0.4,0.7-0.6,1.3-0.6c0.5,0,0.9,0.2,1.3,0.6C43.1,22,43.2,22.5,43.2,22.9L43.2,22.9z M42.3,22.9  c0-0.2-0.1-0.5-0.2-0.6c-0.2-0.2-0.4-0.3-0.6-0.3s-0.4,0.1-0.6,0.3s-0.2,0.4-0.2,0.6s0.1,0.5,0.2,0.6c0.2,0.2,0.4,0.3,0.6,0.3  s0.4-0.1,0.6-0.3C42.2,23.4,42.3,23.2,42.3,22.9z"></path>
<path class="st2" d="M46.5,23.5c0,0.4,0,0.7-0.2,0.9c-0.2,0.3-0.6,0.4-1.4,0.4c-0.3,0-0.6,0-0.7-0.1c-0.3-0.1-0.5-0.2-0.6-0.5  c0-0.1-0.1-0.3-0.1-0.6c0-0.1,0-0.2,0-0.3c0-0.1,0-0.2,0-0.3c0-0.2,0-0.5,0-0.9c0-0.4,0-0.7,0-0.9c0,0,0,0,0,0c0.1,0,0.2,0,0.5,0  c0.2,0,0.4,0,0.5,0c0,0,0.1,0,0.1,0c0,0.2,0,0.6,0,1c0,0.4,0,0.7,0,1c0,0.3,0,0.4,0.1,0.5c0.1,0.1,0.2,0.2,0.5,0.2  c0.4,0,0.5-0.2,0.5-0.5c0-0.2,0-0.6,0-1.1c0-0.5,0-0.8,0-1.1c0,0,0-0.1,0.1-0.1c0.1,0,0.2,0,0.4,0s0.4,0,0.4,0c0,0,0.1,0,0.1,0  c0,0.2,0,0.5,0,0.9c0,0.4,0,0.7,0,0.9c0,0,0,0.1,0,0.2C46.5,23.3,46.5,23.4,46.5,23.5z"></path>
<path class="st2" d="M50,24.7C50,24.7,50,24.7,50,24.7c-0.1,0-0.3,0-0.5,0c-0.2,0-0.4,0-0.4,0c0,0,0,0-0.1,0l0,0  c0-0.1-0.1-0.2-0.1-0.3c-0.1-0.2-0.2-0.4-0.3-0.7c0-0.1-0.1-0.1-0.2-0.1c0,0,0,0-0.2,0c0,0,0,0,0,0.1c0,0.1,0,0.3,0,0.5  c0,0.2,0,0.4,0,0.5c0,0,0,0,0,0s0,0-0.1,0c-0.1,0-0.2,0-0.5,0s-0.4,0-0.4,0s-0.1,0-0.1-0.1c0-0.2,0-0.5,0-0.8c0-0.4,0-0.6,0-0.8  c0-0.7,0-1.2,0-1.6v0c0,0,0,0,0.1,0s0.3,0,0.7,0c0.3,0,0.6,0,0.7,0c0.4,0,0.7,0.1,0.9,0.2c0.3,0.2,0.4,0.5,0.4,0.8  c0,0.2,0,0.4-0.1,0.6c-0.1,0.2-0.2,0.3-0.4,0.4c0,0,0,0,0,0.1c0,0,0.1,0.2,0.3,0.6C49.9,24.4,50,24.6,50,24.7L50,24.7z M48.9,22.4  c0-0.2-0.1-0.4-0.2-0.4c-0.1,0-0.3-0.1-0.5-0.1c-0.2,0-0.2,0-0.2,0.1s0,0.2,0,0.5c0,0,0,0.1,0,0.2s0,0.1,0,0.2c0,0,0,0,0.1,0  c0.1,0,0.2,0,0.3,0C48.8,22.9,48.9,22.7,48.9,22.4z"></path>
<path class="st2" d="M54,22C54,22,54,22,54,22c-0.1,0-0.4,0-0.8,0c0,0.4,0,0.7,0,0.9c0,0.2,0,0.5,0,0.9c0,0.4,0,0.7,0,0.9  c0,0,0,0,0,0c0,0,0,0-0.1,0c-0.1,0-0.2,0-0.4,0s-0.4,0-0.4,0c0,0-0.1,0-0.1-0.1c0-0.2,0-0.5,0-0.9c0-0.4,0-0.7,0-0.9  c0-0.1,0-0.4,0-0.9c-0.3,0-0.6,0-0.8,0c0,0,0,0,0,0s0-0.1,0-0.2s0-0.2,0-0.2c0-0.1,0-0.2,0-0.2c0-0.1,0-0.2,0-0.2s0,0,0,0  c0.3,0,0.7,0,1.2,0c0.2,0,0.4,0,0.8,0c0.2,0,0.3,0,0.3,0c0,0,0,0,0,0v0c0,0,0,0.1,0,0.2s0,0.2,0,0.2s0,0.1,0,0.2  C54,21.9,54,21.9,54,22z"></path>
<path class="st2" d="M57.5,24.6C57.5,24.7,57.4,24.7,57.5,24.6c-0.1,0.1-0.3,0.1-0.6,0.1c-0.2,0-0.4,0-0.5,0c0,0-0.1,0-0.1-0.1  c0-0.2-0.1-0.4-0.1-0.4c0,0-0.2,0-0.7,0c-0.3,0-0.4,0-0.4,0c0,0-0.1,0.1-0.1,0.3c0,0.1-0.1,0.2-0.1,0.2c0,0-0.2,0-0.6,0  c-0.2,0-0.4,0-0.4-0.1c0,0,0.2-0.6,0.6-1.6c0.4-1.1,0.6-1.7,0.7-1.8c0-0.1,0-0.1,0.1-0.1c0,0,0.1,0,0.2,0s0.2,0,0.2,0s0.1,0,0.2,0  s0.2,0,0.2,0s0.1,0,0.1,0.1c0.1,0.2,0.3,0.7,0.7,1.8C57.3,24,57.5,24.6,57.5,24.6L57.5,24.6z M55.7,22.4c0,0.1-0.1,0.2-0.2,0.5  c-0.1,0.3-0.1,0.4-0.1,0.4s0,0,0.2,0c0,0,0.1,0,0.2,0s0.2,0,0.2,0c0,0,0,0,0,0s0-0.2-0.1-0.4C55.8,22.6,55.8,22.4,55.7,22.4z"></path>
<path class="st2" d="M61,24.6C61,24.6,60.9,24.7,61,24.6c-0.1,0.1-0.2,0.1-0.4,0c-0.2,0-0.2-0.1-0.3-0.1c-0.4,0.1-0.7,0.2-1,0.2  c-0.5,0-0.9-0.2-1.3-0.5c-0.3-0.3-0.5-0.7-0.5-1.3s0.2-0.9,0.5-1.3c0.3-0.4,0.7-0.6,1.3-0.6c0.2,0,0.5,0,0.7,0.2  c0.2,0.1,0.4,0.2,0.6,0.4c0,0,0,0.1,0,0.1c0,0-0.1,0.2-0.2,0.4s-0.2,0.3-0.3,0.3c0,0,0,0-0.1-0.1s-0.2-0.2-0.2-0.2  C59.7,22,59.5,22,59.4,22c-0.2,0-0.4,0.1-0.6,0.3c-0.1,0.2-0.2,0.4-0.2,0.6c0,0.3,0.1,0.5,0.2,0.6c0.2,0.2,0.4,0.2,0.6,0.2  c0.2,0,0.4,0,0.6-0.1c0,0,0-0.2,0-0.4c0-0.2,0-0.3,0-0.4c0,0,0,0,0,0h0c0,0,0.1,0,0.2,0s0.2,0,0.2,0c0,0,0.1,0,0.2,0  c0.1,0,0.2,0,0.2,0c0,0,0.1,0,0.1,0.1c0,0.1,0,0.2,0,0.4c0,0.2,0,0.3,0,0.4C60.9,23.8,60.9,24.2,61,24.6L61,24.6z"></path>
<path class="st2" d="M63.6,24.7c-0.2,0-0.3,0-0.6,0c-0.3,0-0.5,0-0.6,0h-0.7c-0.1,0-0.2,0-0.3,0c0,0-0.1,0-0.1-0.1  c0-0.2,0-0.4,0-0.8c0-0.4,0-0.6,0-0.8c0-0.2,0-0.5,0-0.9c0-0.4,0-0.7,0-0.9c0,0,0,0,0.1,0c0,0,0.1,0,0.2,0c0.1,0,0.2,0,0.2,0  c0,0,0.1,0,0.2,0s0.2,0,0.2,0s0,0,0,0v0c0,0.3,0,0.8-0.1,1.4v0.7c0,0.2,0,0.4,0,0.5v0c0,0,0,0,0,0c0,0,0,0,0.1,0c0.2,0,0.4,0,0.7,0  c0.3,0,0.5,0,0.7,0c0,0,0.1,0,0.1,0c0,0.3,0,0.5-0.1,0.7c0,0,0,0.1,0,0.1C63.7,24.7,63.7,24.7,63.6,24.7z"></path>
<path class="st2" d="M65.1,22.9c0,0.2,0,0.5,0,0.9c0,0.4,0,0.7,0,0.9c0,0,0,0,0,0.1c0,0,0,0-0.1,0c-0.1,0-0.2,0-0.4,0  c-0.2,0-0.4,0-0.5,0c0,0-0.1,0-0.1-0.1c0,0,0-0.1,0-0.4c0-0.7,0-1.1,0-1.3c0-0.2,0-0.4,0-0.8c0-0.4,0-0.6,0-0.8c0,0,0,0,0,0  s0.1,0,0.2,0s0.2,0,0.2,0c0,0,0.1,0,0.2,0s0.2,0,0.2,0c0,0,0.1,0,0.1,0c0,0.2,0,0.4,0,0.8C65.1,22.4,65.1,22.7,65.1,22.9z"></path>
<path class="st2" d="M68.9,21.3c0,0.2,0,0.5,0,0.8c0,0.4,0,0.7,0,0.9v1.6c0,0,0,0.1-0.1,0.1c0,0-0.1,0-0.2,0s-0.2,0-0.2,0  s-0.1,0-0.2,0s-0.2,0-0.2,0s-0.1,0-0.1-0.1c-0.1-0.2-0.4-0.5-0.8-1.1c-0.1-0.2-0.3-0.4-0.5-0.7c0,0,0,0,0,0v0c0,0.2,0,0.5,0,0.9  c0,0.4,0,0.7,0,0.9c0,0,0,0.1-0.1,0.1h-0.9c0,0-0.1,0-0.1-0.1c0-0.2,0-0.4,0-0.8c0-0.4,0-0.6,0-0.8c0-0.2,0-0.5,0-0.9  c0-0.4,0-0.7,0-0.9c0,0,0,0,0.1,0c0.1,0,0.2,0,0.4,0c0,0,0.1,0,0.2,0c0.1,0,0.2,0,0.2,0s0,0,0.1,0.1l1.1,1.3  c0.1,0.1,0.2,0.3,0.4,0.5c0,0,0.1,0.1,0.1,0.1c0,0,0-0.1,0-0.2c0-0.2,0-0.4,0-0.8c0-0.4,0-0.6,0-0.8c0-0.1,0-0.1,0-0.1  c0.1,0,0.2,0,0.4,0S68.8,21.2,68.9,21.3C68.9,21.2,68.9,21.2,68.9,21.3z"></path>
<path class="st2" d="M71.9,23.9c0,0.1,0,0.2,0,0.4s0,0.3-0.1,0.4c0,0,0,0-0.1,0c0,0,0,0-0.1,0c-0.1,0-0.5,0-1.1,0  c-0.1,0-0.3,0-0.6,0c-0.2,0-0.4,0-0.6,0c0,0-0.1,0-0.1-0.1c0-0.2,0-0.5,0-0.8s0-0.6,0-0.8s0-0.6,0-1.1c0-0.1,0-0.3,0-0.6v0  c0,0,0,0,0.1,0c0.1,0,0.3,0,0.6,0c0.2,0,0.4,0,0.6,0c0.1,0,0.3,0,0.6,0c0.2,0,0.4,0,0.6,0c0.1,0,0.1,0,0.2,0.1c0,0,0,0.2,0,0.4  s0,0.3,0,0.4c0,0,0,0,0,0h0c-0.4,0-0.8,0-1.2,0c-0.1,0-0.2,0-0.2,0.1c0,0,0,0.1,0,0.2s0,0.2,0,0.2s0.1,0,0.2,0c0,0,0,0,0.1,0  c0,0,0.1,0,0.1,0c0.2,0,0.4,0,0.6,0c0,0,0.1,0,0.1,0s0.1,0,0.1,0c0,0,0,0,0,0c0,0,0,0.1,0,0.4c0,0.1,0,0.3,0,0.4c0,0,0,0-0.1,0  c0,0-0.1,0-0.2,0c-0.1,0-0.3,0-0.6,0h-0.3c-0.1,0-0.1,0-0.1,0c0,0,0,0.1,0,0.2c0,0.1,0,0.2,0,0.2c0,0.1,0.1,0.1,0.3,0.1  c0,0,0.1,0,0.4,0c0.1,0,0.2,0,0.4,0C71.6,23.9,71.8,23.8,71.9,23.9C71.9,23.8,71.9,23.8,71.9,23.9z"></path>
<linearGradient id="SVGID_3_" gradientUnits="userSpaceOnUse" x1="26.2253" y1="13.1164" x2="21.1447" y2="8.5418" gradientTransform="matrix(1 0 0 -1 0 33.1534)">
	<stop offset="0" style="stop-color:#0092C6"></stop>
	<stop offset="1" style="stop-color:#214881"></stop>
</linearGradient>
<path class="st3" d="M27.7,21H21v6.7c0,1.5-1.2,2.8-2.8,2.8h-3.5c-0.2,0.5-0.4,0.9-0.7,1.4h5.6c1.5,0,2.8-1.2,2.8-2.8v-6.7h6.7  c1.5,0,2.8-1.2,2.8-2.8v-7.4c0-1.1-0.7-2.1-1.6-2.5c0.2,0.4,0.2,0.7,0.2,1.1v7.4C30.4,19.7,29.2,21,27.7,21z"></path>
</svg>