<svg xmlns="http://www.w3.org/2000/svg" xmlns:xlink="http://www.w3.org/1999/xlink" id="Camada_1" x="0px" y="0px" viewBox="0 0 120 37.5" style="enable-background:new 0 0 120 37.5;" xml:space="preserve">
<style type="text/css">
	.st0{fill-rule:evenodd;clip-rule:evenodd;fill:#0B0722;}
	.st1{fill-rule:evenodd;clip-rule:evenodd;fill:url(#SVGID_1_);}
	.st2{fill-rule:evenodd;clip-rule:evenodd;fill:url(#SVGID_2_);}
	.st3{fill-rule:evenodd;clip-rule:evenodd;fill:url(#SVGID_3_);}
	.st4{fill-rule:evenodd;clip-rule:evenodd;fill:url(#SVGID_4_);}
	.st5{fill-rule:evenodd;clip-rule:evenodd;fill:url(#SVGID_5_);}
	.st6{fill-rule:evenodd;clip-rule:evenodd;fill:url(#SVGID_6_);}
</style>
<path class="st0" d="M14.8,37.5c-0.3-1-0.7-1.9-1.1-2.5C5.9,33.6,0,26.8,0,18.7C0,9.8,7,2.6,15.7,2.1c0.4-1.2,1-1.9,1.8-2.1  c-0.9,1.3-1.3,2.9-1.4,4.5c0.1,1.8,0.7,3.2,1.5,4.4c3.1,4.8,0.9,7.2-2.9,8c-4.3,1-9.7-1-10.9,5.3c-0.5,2.5,0.5,5,2.6,6.5  c2.5,1.9,4.7,2.3,6.6,3.6C14.7,33.7,14.7,35.5,14.8,37.5z"></path>
<linearGradient id="SVGID_1_" gradientUnits="userSpaceOnUse" x1="20.0995" y1="-19.9278" x2="20.0854" y2="31.1048" gradientTransform="matrix(1 0 0 -1 0 40.2799)">
	<stop offset="0" style="stop-color:#2B3F72"></stop>
	<stop offset="1" style="stop-color:#16ABE2"></stop>
</linearGradient>
<path class="st1" d="M20.3,2.5c7.3,1.7,12.8,8.3,12.8,16.1c0,8.6-6.6,15.8-15.1,16.5c-0.1-7.3-13.6-7-10.3-13.3c0.3-0.6,0.7-0.6,1,0  c1.8,3.3,5.9,4.7,11.9,4c9.9-1.9,11.5-12.2,2.6-16.4C19.9,7.5,18.9,5.2,20.3,2.5z"></path>
<linearGradient id="SVGID_2_" gradientUnits="userSpaceOnUse" x1="21.699" y1="8.4957" x2="21.6966" y2="22.6152" gradientTransform="matrix(1 0 0 -1 0 40.2799)">
	<stop offset="0" style="stop-color:#2B3F72"></stop>
	<stop offset="1" style="stop-color:#16ABE2"></stop>
</linearGradient>
<path class="st2" d="M15.8,24.7c7.3-0.3,11.2-3.3,11.7-8.9C27.7,22.6,23.8,25.5,15.8,24.7z"></path>
<path class="st0" d="M37.2,23.8v-2.1c0.4,0.3,0.8,0.6,1.2,0.7c0.4,0.2,0.9,0.2,1.4,0.2c0.3,0,0.5,0,0.7-0.1s0.4-0.1,0.5-0.2  c0.1-0.1,0.2-0.2,0.3-0.3c0.1-0.1,0.1-0.2,0.1-0.4c0-0.2,0-0.4-0.2-0.5c-0.1-0.2-0.2-0.3-0.4-0.4c-0.2-0.1-0.4-0.2-0.6-0.4  c-0.2-0.1-0.5-0.2-0.8-0.4c-0.7-0.3-1.3-0.7-1.6-1.1c-0.4-0.4-0.6-1-0.6-1.6c0-0.5,0.1-0.9,0.3-1.3c0.2-0.4,0.5-0.6,0.8-0.9  c0.4-0.2,0.7-0.4,1.2-0.5c0.4-0.1,0.9-0.2,1.4-0.2c0.5,0,0.9,0,1.3,0.1c0.4,0,0.7,0.2,1,0.3v2c-0.2-0.1-0.3-0.2-0.5-0.3  s-0.4-0.2-0.6-0.2c-0.2,0-0.4-0.1-0.6-0.1c-0.2,0-0.4,0-0.6,0c-0.2,0-0.4,0-0.6,0.1s-0.4,0.1-0.5,0.2c-0.1,0.1-0.2,0.2-0.3,0.3  c-0.1,0.1-0.1,0.2-0.1,0.4c0,0.2,0,0.3,0.1,0.4c0.1,0.1,0.2,0.2,0.4,0.4c0.2,0.1,0.4,0.2,0.6,0.3c0.2,0.1,0.5,0.2,0.8,0.3  c0.4,0.2,0.7,0.3,1,0.5c0.3,0.2,0.6,0.4,0.8,0.6c0.2,0.2,0.4,0.5,0.5,0.8s0.2,0.6,0.2,1c0,0.5-0.1,1-0.3,1.3s-0.5,0.6-0.8,0.9  c-0.4,0.2-0.7,0.4-1.2,0.5c-0.4,0.1-0.9,0.2-1.4,0.2c-0.5,0-1,0-1.5-0.1C38,24.1,37.6,23.9,37.2,23.8z"></path>
<path class="st0" d="M48.8,24c-0.3,0.2-0.8,0.2-1.4,0.2c-1.5,0-2.2-0.8-2.2-2.3v-3.1h-1.1v-1.5h1.1v-1.4l2.1-0.6v2.1h1.5v1.5h-1.5  v2.7c0,0.7,0.3,1,0.8,1c0.2,0,0.4-0.1,0.7-0.2C48.8,22.5,48.8,24,48.8,24z"></path>
<path class="st0" d="M53.1,24.3c-1.1,0-2-0.3-2.7-1c-0.6-0.6-1-1.5-1-2.6c0-1.1,0.3-2,1-2.6c0.7-0.6,1.6-1,2.7-1c1.1,0,2,0.3,2.7,1  c0.6,0.6,1,1.5,1,2.5c0,1.1-0.3,2-1,2.7C55.2,24,54.3,24.3,53.1,24.3L53.1,24.3z M53.2,18.8c-0.5,0-0.9,0.2-1.2,0.5  c-0.3,0.4-0.4,0.8-0.4,1.4c0,1.3,0.5,2,1.6,2c1,0,1.5-0.7,1.5-2C54.7,19.4,54.2,18.8,53.2,18.8z"></path>
<path class="st0" d="M69,24.1h-2.1v-3.9c0-1-0.4-1.5-1.1-1.5c-0.4,0-0.6,0.2-0.8,0.4c-0.2,0.3-0.3,0.7-0.3,1.1v3.8h-2.1v-3.9  c0-1-0.4-1.4-1.1-1.4c-0.4,0-0.6,0.1-0.8,0.4c-0.2,0.3-0.3,0.7-0.3,1.2v3.7h-2.1v-6.8h2.1v1h0c0.2-0.4,0.5-0.6,0.9-0.9  c0.4-0.2,0.8-0.3,1.3-0.3c1,0,1.6,0.4,2,1.2c0.5-0.8,1.3-1.2,2.3-1.2c1.5,0,2.2,0.9,2.2,2.7L69,24.1L69,24.1z"></path>
<path class="st0" d="M76.2,24.1h-2v-1h0c-0.4,0.8-1.1,1.1-2,1.1c-0.6,0-1.2-0.2-1.6-0.6c-0.4-0.4-0.6-0.9-0.6-1.5  c0-1.3,0.8-2.1,2.3-2.3l1.8-0.2c0-0.7-0.4-1.1-1.2-1.1s-1.6,0.2-2.3,0.7v-1.6c0.3-0.2,0.7-0.3,1.2-0.4c0.5-0.1,1-0.2,1.4-0.2  c1.9,0,2.9,1,2.9,2.9L76.2,24.1L76.2,24.1z M74.3,21.4v-0.5L73,21.1c-0.7,0.1-1,0.4-1,0.9c0,0.2,0.1,0.4,0.2,0.6  c0.2,0.2,0.4,0.2,0.7,0.2c0.4,0,0.7-0.1,1-0.4C74.2,22.1,74.3,21.8,74.3,21.4z"></path>
<path class="st0" d="M83,23.9c-0.5,0.3-1.2,0.4-2.1,0.4c-1,0-1.9-0.3-2.5-1c-0.6-0.6-1-1.4-1-2.5c0-1.2,0.4-2.1,1-2.7  c0.7-0.7,1.6-1,2.8-1c0.8,0,1.4,0.1,1.7,0.3v1.8c-0.4-0.3-0.9-0.5-1.4-0.5c-0.6,0-1.1,0.2-1.4,0.5c-0.4,0.4-0.5,0.8-0.5,1.4  c0,0.6,0.2,1.1,0.5,1.4c0.3,0.4,0.8,0.5,1.4,0.5c0.5,0,1-0.2,1.5-0.5L83,23.9L83,23.9z"></path>
<path class="st0" d="M90.9,24.1h-2.1v-3.9c0-1-0.4-1.5-1.1-1.5c-0.4,0-0.7,0.1-0.9,0.4c-0.2,0.3-0.4,0.6-0.4,1v3.9h-2.1V14.1h2.1  v4.3h0c0.5-0.8,1.2-1.2,2.1-1.2c1.5,0,2.3,0.9,2.3,2.8L90.9,24.1L90.9,24.1z"></path>
<linearGradient id="SVGID_3_" gradientUnits="userSpaceOnUse" x1="96.154" y1="8.4261" x2="96.1528" y2="23.7999" gradientTransform="matrix(1 0 0 -1 0 40.2799)">
	<stop offset="0" style="stop-color:#2B3F72"></stop>
	<stop offset="1" style="stop-color:#16ABE2"></stop>
</linearGradient>
<path class="st3" d="M99.8,23.8c-0.7,0.3-1.6,0.5-2.7,0.5c-1.4,0-2.6-0.4-3.4-1.3c-0.8-0.8-1.2-2-1.2-3.4c0-1.5,0.5-2.7,1.4-3.7  c0.9-0.9,2.2-1.4,3.7-1.4c0.9,0,1.7,0.1,2.3,0.4v2.1c-0.6-0.4-1.4-0.6-2.2-0.6c-0.9,0-1.6,0.3-2.2,0.8c-0.6,0.6-0.8,1.3-0.8,2.3  c0,0.9,0.2,1.6,0.8,2.2s1.2,0.8,2.1,0.8c0.8,0,1.6-0.2,2.3-0.6L99.8,23.8L99.8,23.8z"></path>
<linearGradient id="SVGID_4_" gradientUnits="userSpaceOnUse" x1="103.8547" y1="8.4285" x2="103.8535" y2="23.7999" gradientTransform="matrix(1 0 0 -1 0 40.2799)">
	<stop offset="0" style="stop-color:#2B3F72"></stop>
	<stop offset="1" style="stop-color:#16ABE2"></stop>
</linearGradient>
<path class="st4" d="M106.9,24.1h-2v-1h0c-0.4,0.8-1.1,1.1-2,1.1c-0.6,0-1.2-0.2-1.6-0.6c-0.4-0.4-0.6-0.9-0.6-1.5  c0-1.3,0.8-2.1,2.3-2.3l1.8-0.2c0-0.7-0.4-1.1-1.2-1.1c-0.8,0-1.6,0.2-2.3,0.7v-1.6c0.3-0.2,0.7-0.3,1.2-0.4c0.5-0.1,1-0.2,1.4-0.2  c1.9,0,2.9,1,2.9,2.9L106.9,24.1L106.9,24.1z M105,21.4v-0.5l-1.2,0.2c-0.7,0.1-1,0.4-1,0.9c0,0.2,0.1,0.4,0.2,0.6  c0.2,0.2,0.4,0.2,0.7,0.2c0.4,0,0.7-0.1,1-0.4C104.8,22.1,105,21.8,105,21.4z"></path>
<linearGradient id="SVGID_5_" gradientUnits="userSpaceOnUse" x1="110.7918" y1="8.4245" x2="110.7906" y2="23.8021" gradientTransform="matrix(1 0 0 -1 0 40.2799)">
	<stop offset="0" style="stop-color:#2B3F72"></stop>
	<stop offset="1" style="stop-color:#16ABE2"></stop>
</linearGradient>
<path class="st5" d="M113,19.2c-0.2-0.1-0.6-0.2-0.9-0.2c-0.4,0-0.8,0.2-1,0.5s-0.4,0.8-0.4,1.4v3.3h-2.1v-6.8h2.1v1.2h0  c0.3-0.9,0.9-1.4,1.8-1.4c0.2,0,0.4,0,0.5,0.1V19.2z"></path>
<linearGradient id="SVGID_6_" gradientUnits="userSpaceOnUse" x1="116.7435" y1="8.429" x2="116.7423" y2="23.8006" gradientTransform="matrix(1 0 0 -1 0 40.2799)">
	<stop offset="0" style="stop-color:#2B3F72"></stop>
	<stop offset="1" style="stop-color:#16ABE2"></stop>
</linearGradient>
<path class="st6" d="M120,21.4h-4.4c0.1,1,0.7,1.5,1.8,1.5c0.8,0,1.4-0.2,2-0.5v1.5c-0.6,0.3-1.4,0.5-2.5,0.5  c-1.1,0-1.9-0.3-2.5-0.9c-0.6-0.6-0.9-1.4-0.9-2.5c0-1.1,0.3-2,1-2.7c0.6-0.6,1.4-1,2.4-1c1,0,1.8,0.3,2.3,0.9  c0.5,0.6,0.8,1.4,0.8,2.4L120,21.4L120,21.4z M118.1,20.1c0-1-0.4-1.4-1.2-1.4c-0.3,0-0.6,0.1-0.9,0.4s-0.4,0.6-0.4,1H118.1z"></path>
<polygon class="st0" points="63,28.8 61.1,28.8 61.1,25.6 61.8,25.6 61.8,28.2 63,28.2 "></polygon>
<path class="st0" d="M64.7,28.8c-0.4,0-0.8-0.2-1.1-0.4c-0.3-0.3-0.4-0.7-0.4-1.2c0-0.5,0.2-0.9,0.4-1.2c0.3-0.3,0.7-0.5,1.2-0.5  c0.4,0,0.8,0.2,1.1,0.4c0.3,0.3,0.4,0.7,0.4,1.2c0,0.5-0.2,0.9-0.4,1.2C65.6,28.6,65.2,28.8,64.7,28.8L64.7,28.8z M64.8,26.1  c-0.2,0-0.4,0.1-0.6,0.3C64,26.6,64,26.9,64,27.1c0,0.3,0.1,0.6,0.2,0.7c0.2,0.2,0.3,0.3,0.6,0.3c0.2,0,0.4-0.1,0.6-0.3  c0.2-0.2,0.2-0.4,0.2-0.7c0-0.3-0.1-0.6-0.2-0.8C65.2,26.2,65,26.1,64.8,26.1z"></path>
<path class="st0" d="M69.5,28.5c-0.3,0.2-0.7,0.3-1.2,0.3c-0.5,0-0.9-0.1-1.2-0.4s-0.4-0.7-0.4-1.2c0-0.5,0.2-0.9,0.5-1.2  c0.3-0.3,0.8-0.5,1.3-0.5c0.3,0,0.6,0,0.9,0.1v0.7c-0.2-0.2-0.5-0.2-0.9-0.2c-0.3,0-0.5,0.1-0.7,0.3s-0.3,0.4-0.3,0.8  s0.1,0.6,0.2,0.8c0.2,0.2,0.4,0.3,0.7,0.3c0.2,0,0.3,0,0.4-0.1v-0.6h-0.6v-0.6h1.3L69.5,28.5L69.5,28.5z"></path>
<path class="st0" d="M71.4,28.8c-0.4,0-0.8-0.2-1.1-0.4c-0.3-0.3-0.4-0.7-0.4-1.2c0-0.5,0.2-0.9,0.4-1.2c0.3-0.3,0.7-0.5,1.2-0.5  c0.4,0,0.8,0.2,1.1,0.4c0.3,0.3,0.4,0.7,0.4,1.2c0,0.5-0.2,0.9-0.4,1.2C72.2,28.6,71.9,28.8,71.4,28.8L71.4,28.8z M71.4,26.1  c-0.2,0-0.4,0.1-0.6,0.3c-0.2,0.2-0.2,0.4-0.2,0.7c0,0.3,0.1,0.6,0.2,0.7c0.2,0.2,0.3,0.3,0.6,0.3s0.4-0.1,0.6-0.3  c0.2-0.2,0.2-0.4,0.2-0.7c0-0.3-0.1-0.6-0.2-0.8C71.9,26.2,71.7,26.1,71.4,26.1z"></path>
<polygon class="st0" points="76.9,26.1 76,26.1 76,28.8 75.3,28.8 75.3,26.1 74.4,26.1 74.4,25.6 76.9,25.6 "></polygon>
<polygon class="st0" points="79.3,28.8 77.4,28.8 77.4,25.6 79.2,25.6 79.2,26.1 78.1,26.1 78.1,26.9 79.1,26.9 79.1,27.4   78.1,27.4 78.1,28.2 79.3,28.2 "></polygon>
<path class="st0" d="M83.4,28.8h-0.7v-1.9c0-0.2,0-0.4,0-0.7l0,0c0,0.2-0.1,0.3-0.1,0.4l-0.7,2.1h-0.6l-0.8-2.1c0,0,0-0.2-0.1-0.4h0  c0,0.3,0,0.6,0,0.8v1.7h-0.6v-3.2h1l0.6,1.9c0,0.2,0.1,0.3,0.1,0.4l0,0c0-0.2,0.1-0.3,0.1-0.4l0.6-1.8h1L83.4,28.8L83.4,28.8z"></path>
<path class="st0" d="M84.8,27.7v1.1h-0.7v-3.2h1.1c0.8,0,1.2,0.3,1.2,1c0,0.3-0.1,0.6-0.4,0.8c-0.2,0.2-0.5,0.3-0.9,0.3L84.8,27.7  L84.8,27.7z M84.8,26.1v1h0.3c0.4,0,0.6-0.2,0.6-0.5c0-0.3-0.2-0.5-0.6-0.5C85.1,26.1,84.8,26.1,84.8,26.1z"></path>
<polygon class="st0" points="88.8,28.8 86.9,28.8 86.9,25.6 87.6,25.6 87.6,28.2 88.8,28.2 "></polygon>
<path class="st0" d="M91.9,28.8h-0.8L90.9,28h-1.1l-0.2,0.7h-0.8l1.2-3.2h0.8L91.9,28.8L91.9,28.8z M90.8,27.5l-0.3-1  c0-0.1,0-0.2,0-0.3l0,0c0,0.1,0,0.2,0,0.3L90,27.5L90.8,27.5L90.8,27.5z"></path>
<polygon class="st0" points="94.5,26.1 93.7,26.1 93.7,28.8 92.9,28.8 92.9,26.1 92.1,26.1 92.1,25.6 94.5,25.6 "></polygon>
<polygon class="st0" points="96.9,28.8 95,28.8 95,25.6 96.8,25.6 96.8,26.1 95.7,26.1 95.7,26.9 96.7,26.9 96.7,27.4 95.7,27.4   95.7,28.2 96.9,28.2 "></polygon>
</svg>