<?xml version="1.0" standalone="no"?>
<!DOCTYPE svg PUBLIC "-//W3C//DTD SVG 1.1//EN" "http://www.w3.org/Graphics/SVG/1.1/DTD/svg11.dtd" >
<svg xmlns="http://www.w3.org/2000/svg" xmlns:xlink="http://www.w3.org/1999/xlink" version="1.1">
<metadata>
Created by FontForge 20190801 at Fri Feb 16 15:57:14 2018
 By www-data
Copyright (c) 2018 by Colophon Foundry. All rights reserved.
</metadata>
<defs>
<font id="MedilazarRegular" horiz-adv-x="600" >
  <font-face 
    font-family="MedilazarRegular"
    font-weight="400"
    font-stretch="normal"
    units-per-em="1000"
    panose-1="2 11 5 3 3 3 1 4 2 3"
    ascent="800"
    descent="-200"
    x-height="490"
    cap-height="700"
    bbox="-358 -212 1523 946"
    underline-thickness="62"
    underline-position="-160"
    unicode-range="U+0020-FB02"
  />
<missing-glyph 
d="M0 0z" />
    <glyph glyph-name="fi" unicode="fi" horiz-adv-x="516" 
d="M448 0h-79v414h-200v-414h-80v414h-66v76h66v95q0 163 141 163q24 0 40.5 -3t33.5 -10v-76q-16 6 -30.5 8.5t-36.5 2.5q-33 0 -50.5 -23.5t-17.5 -61.5v-95h279v-490zM369 617q-16 16 -16 40q0 23 16 39t40 16q23 0 39 -16t16 -39q0 -24 -16 -40t-39 -16q-24 0 -40 16z
" />
    <glyph glyph-name="fl" unicode="fl" horiz-adv-x="504" 
d="M437 713v-713h-80v654q-48 16 -99 16q-45 0 -67 -23t-22 -62v-95h122v-76h-122v-414h-80v414h-66v76h66v95q0 80 41.5 121.5t123.5 41.5q101 0 183 -35z" />
    <glyph glyph-name=".notdef" 
d="M0 0z" />
    <glyph glyph-name=".null" horiz-adv-x="0" 
 />
    <glyph glyph-name="nonmarkingreturn" horiz-adv-x="333" 
 />
    <glyph glyph-name="space" unicode=" " horiz-adv-x="300" 
d="M0 0z" />
    <glyph glyph-name="exclam" unicode="!" horiz-adv-x="262" 
d="M91 700h80v-490h-80v490zM91 5q-17 17 -17 40t17 40t40 17t40 -17t17 -40t-17 -40t-40 -17t-40 17z" />
    <glyph glyph-name="quotedbl" unicode="&#x22;" horiz-adv-x="327" 
d="M277 700v-210h-77v210h77zM127 700v-210h-77v210h77z" />
    <glyph glyph-name="numbersign" unicode="#" horiz-adv-x="726" 
d="M558 439l-46 -176h119l-20 -76h-119l-48 -187h-79l48 187h-186l-48 -187h-79l48 187h-124l20 76h124l46 176h-119l20 76h118l48 185h79l-48 -185h186l48 185h79l-48 -185h125l-20 -76h-124zM479 439h-186l-46 -176h186z" />
    <glyph glyph-name="dollar" unicode="$" horiz-adv-x="528" 
d="M438.5 56.5q-48.5 -54.5 -130.5 -65.5v-68h-76v67q-74 11 -126.5 63t-64.5 120l74 32q9 -50 40 -86.5t77 -46.5v271q-92 26 -135 70.5t-43 114.5q0 46 23 85.5t63.5 65.5t91.5 32v66h76v-70q54 -11 93.5 -46.5t57.5 -92.5l-76 -31q-9 29 -28.5 51.5t-46.5 33.5v-215
q90 -29 134.5 -80.5t44.5 -130.5q0 -85 -48.5 -139.5zM160.5 469.5q24.5 -25.5 71.5 -41.5v202q-44 -7 -70 -34.5t-26 -67.5q0 -33 24.5 -58.5zM379 117q26 33 26 79q0 89 -97 127v-250q45 11 71 44z" />
    <glyph glyph-name="percent" unicode="%" horiz-adv-x="672" 
d="M113.5 442q-32.5 19 -51 52t-18.5 73q0 41 18.5 74t51 52t71.5 19q61 0 101.5 -41.5t40.5 -103.5t-40.5 -103t-101.5 -41q-39 0 -71.5 19zM239.5 511q21.5 23 21.5 56t-21.5 56t-54.5 23t-54 -22.5t-21 -56.5q0 -33 21 -56t54 -23t54.5 23zM63 131l492 492l54 -54
l-492 -492zM414.5 7q-32.5 19 -51 52t-18.5 73q0 41 18.5 74t51 52t71.5 19q61 0 101.5 -41.5t40.5 -103.5t-40.5 -103t-101.5 -41q-39 0 -71.5 19zM540.5 76q21.5 23 21.5 56t-21.5 56t-54.5 23t-54 -22.5t-21 -56.5q0 -33 21 -56t54 -23t54.5 23z" />
    <glyph glyph-name="ampersand" unicode="&#x26;" horiz-adv-x="610" 
d="M484 116l89 -116h-106l-40 53q-77 -65 -173 -65q-58 0 -104.5 23.5t-73.5 66.5t-27 100q0 63 34 110t100 84q-32 41 -49.5 79t-17.5 84q0 54 25 94.5t65 61.5t84 21q76 0 124.5 -46.5t48.5 -123.5q0 -61 -42 -108.5t-115 -86.5l129 -168q41 60 72 142l67 -28
q-42 -112 -90 -177zM223 608q-25 -26 -25 -71q0 -33 15.5 -62.5t45.5 -66.5q62 30 92 61t30 69q0 43 -24.5 69.5t-66.5 26.5t-67 -26zM379 116l-149 194q-53 -29 -76 -58t-23 -74q0 -48 34.5 -80t88.5 -32q67 0 125 50z" />
    <glyph glyph-name="quotesingle" unicode="'" horiz-adv-x="177" 
d="M127 700v-210h-77v210h77z" />
    <glyph glyph-name="parenleft" unicode="(" horiz-adv-x="315" 
d="M138 -36q-48 66 -75.5 150t-27.5 174t27.5 174t75.5 150t108 106l53 -48q-95 -81 -139.5 -171t-44.5 -211t44.5 -211t139.5 -171l-53 -48q-60 40 -108 106z" />
    <glyph glyph-name="parenright" unicode=")" horiz-adv-x="315" 
d="M177 -36q48 66 75.5 150t27.5 174t-27.5 174t-75.5 150t-108 106l-53 -48q95 -81 139.5 -171t44.5 -211t-44.5 -211t-139.5 -171l53 -48q60 40 108 106z" />
    <glyph glyph-name="asterisk" unicode="*" horiz-adv-x="529" 
d="M333 455l161 -93l-35 -59l-160 92v-185h-69v185l-160 -92l-35 59l161 93l-161 93l35 59l160 -92v185h69v-185l160 92l35 -59z" />
    <glyph glyph-name="plus" unicode="+" horiz-adv-x="568" 
d="M518 255h-193v-194h-82v194h-193v80h193v194h82v-194h193v-80z" />
    <glyph glyph-name="comma" unicode="," horiz-adv-x="200" 
d="M80 103h87l-67 -181h-76z" />
    <glyph glyph-name="hyphen" unicode="-" horiz-adv-x="389" 
d="M339 344v-78h-289v78h289z" />
    <glyph glyph-name="period" unicode="." horiz-adv-x="204" 
d="M61 5.5q-17 17.5 -17 40.5q0 24 17 41t41 17q23 0 40.5 -17t17.5 -41q0 -23 -17.5 -40.5t-40.5 -17.5q-24 0 -41 17.5z" />
    <glyph glyph-name="slash" unicode="/" horiz-adv-x="417" 
d="M317 700h88l-311 -700h-88z" />
    <glyph glyph-name="zero" unicode="0" horiz-adv-x="580" 
d="M175 16.5q-50 28.5 -77.5 78.5t-27.5 112v286q0 62 27.5 112t77.5 78.5t115 28.5t115 -28.5t77.5 -78.5t27.5 -112v-286q0 -62 -27.5 -112t-77.5 -78.5t-115 -28.5t-115 28.5zM389.5 104.5q38.5 40.5 38.5 102.5v286q0 62 -38.5 102.5t-99.5 40.5t-99.5 -40.5
t-38.5 -102.5v-286q0 -62 38.5 -102.5t99.5 -40.5t99.5 40.5z" />
    <glyph glyph-name="one" unicode="1" horiz-adv-x="321" 
d="M251 700v-700h-82v579l-95 -67l-46 67l174 121h49z" />
    <glyph glyph-name="two" unicode="2" horiz-adv-x="529" 
d="M57 64q0 161 180 276q57 37 86.5 59.5t47.5 50t18 62.5q0 52 -36 86t-95 34q-54 0 -89 -31.5t-48 -85.5l-73 30q15 74 71.5 120.5t138.5 46.5q63 0 111.5 -26.5t75 -72.5t26.5 -101q0 -50 -19.5 -86.5t-50.5 -63t-89 -67.5q-14 -9 -42 -29q-66 -48 -93 -89t-33 -97h337
v-80h-424v64z" />
    <glyph glyph-name="three" unicode="3" horiz-adv-x="553" 
d="M454 368q53 -57 53 -154q0 -67 -32.5 -118.5t-86 -79.5t-114.5 -28q-75 0 -137 40t-87 115l71 29q19 -53 58.5 -79.5t94.5 -26.5q40 0 74.5 18.5t55.5 52.5t21 77q0 71 -45.5 112.5t-132.5 41.5h-41v42l160 210h-292v80h400v-53l-158 -211q85 -11 138 -68z" />
    <glyph glyph-name="four" unicode="4" horiz-adv-x="592" 
d="M562 149h-129v-149h-82v149h-318v64l329 487h71v-471h129v-80zM351 229v311l-218 -311h218z" />
    <glyph glyph-name="five" unicode="5" horiz-adv-x="516" 
d="M373 415.5q50 -26.5 79.5 -77t29.5 -118.5q0 -70 -30 -122.5t-82.5 -81t-116.5 -28.5q-69 0 -128 40t-91 119l76 31q14 -51 54.5 -81.5t88.5 -30.5q69 0 109 44t40 110q0 61 -41.5 101.5t-108.5 40.5q-37 0 -71.5 -15t-60.5 -38l-49 33l62 358h314v-78h-249l-37 -203
q43 23 103 23q59 0 109 -26.5z" />
    <glyph glyph-name="six" unicode="6" horiz-adv-x="575" 
d="M416.5 438q54.5 -31 84.5 -85.5t30 -123.5q0 -66 -31.5 -121t-87.5 -87.5t-125 -32.5q-68 0 -124 34t-87.5 89.5t-31.5 117.5q0 43 16 89.5t56 113.5l161 268h93l-146 -243q36 12 68 12q70 0 124.5 -31zM370 87q37 23 57.5 61t20.5 81q0 46 -20.5 83.5t-57 59t-83.5 21.5
q-74 0 -117 -46.5t-43 -117.5q0 -43 20.5 -81t57 -61t82.5 -23t83 23z" />
    <glyph glyph-name="seven" unicode="7" horiz-adv-x="491" 
d="M469 700v-64q-121 -147 -169 -278t-48 -272v-86h-88v86q0 147 46.5 276.5t148.5 256.5h-332v81h442z" />
    <glyph glyph-name="eight" unicode="8" horiz-adv-x="532" 
d="M457 294q29 -45 29 -101q0 -59 -29 -105.5t-79 -73t-112 -26.5t-112 26.5t-79 73t-29 105.5q0 56 28.5 101t75.5 73q-39 24 -60.5 63t-21.5 89q0 51 25.5 95.5t71 71t101.5 26.5t101 -26.5t70.5 -71t25.5 -95.5q0 -50 -21.5 -89t-60.5 -63q47 -28 76 -73zM184.5 600
q-30.5 -34 -30.5 -81t32 -80t80 -33q47 0 79 33.5t32 79.5q0 47 -30.5 81t-80.5 34q-51 0 -81.5 -34zM336.5 84q31.5 18 49 47.5t17.5 63.5q0 41 -20 71.5t-51.5 47t-65.5 16.5t-65.5 -16.5t-51.5 -47t-20 -71.5q0 -34 17.5 -63.5t49 -47.5t70.5 -18t70.5 18z" />
    <glyph glyph-name="nine" unicode="9" horiz-adv-x="575" 
d="M158.5 262q-54.5 31 -84.5 85.5t-30 123.5q0 66 31.5 121t87.5 87.5t125 32.5q68 0 124 -34t87.5 -89.5t31.5 -117.5q0 -43 -16 -89.5t-56 -113.5l-161 -268h-93l146 243q-36 -12 -68 -12q-70 0 -124.5 31zM205 613q-37 -23 -57.5 -61t-20.5 -81q0 -46 20.5 -83.5t57 -59
t83.5 -21.5q74 0 117 46.5t43 117.5q0 43 -20.5 81t-57 61t-82.5 23t-83 -23z" />
    <glyph glyph-name="colon" unicode=":" horiz-adv-x="204" 
d="M61 5.5q-17 17.5 -17 40.5q0 24 17 41t41 17q23 0 40.5 -17t17.5 -41q0 -23 -17.5 -40.5t-40.5 -17.5q-24 0 -41 17.5zM61 405.5q-17 17.5 -17 40.5q0 24 17 41t41 17q23 0 40.5 -17t17.5 -41q0 -23 -17.5 -40.5t-40.5 -17.5q-24 0 -41 17.5z" />
    <glyph glyph-name="semicolon" unicode=";" horiz-adv-x="219" 
d="M80 103h87l-67 -181h-76zM78 405.5q-17 17.5 -17 40.5q0 24 17 41t41 17q23 0 40.5 -17t17.5 -41q0 -23 -17.5 -40.5t-40.5 -17.5q-24 0 -41 17.5z" />
    <glyph glyph-name="less" unicode="&#x3c;" horiz-adv-x="389" 
d="M354 78l-217 217l217 218l-53 53l-271 -271l267 -274z" />
    <glyph glyph-name="equal" unicode="=" horiz-adv-x="590" 
d="M50 436h490v-79h-490v79zM50 232h490v-79h-490v79z" />
    <glyph glyph-name="greater" unicode="&#x3e;" horiz-adv-x="389" 
d="M35 78l217 217l-217 218l53 53l271 -271l-267 -274z" />
    <glyph glyph-name="question" unicode="?" horiz-adv-x="451" 
d="M171 375q73 12 116.5 50.5t43.5 96.5q0 51 -30 80.5t-77 29.5q-40 0 -68.5 -20.5t-43.5 -59.5l-76 32q24 61 74.5 94.5t113.5 33.5q53 0 96 -23.5t68 -66.5t25 -100q0 -71 -46 -127.5t-116 -77.5v-137h-80v195zM171 5q-17 17 -17 40t17 40t40 17t40 -17t17 -40t-17 -40
t-40 -17t-40 17z" />
    <glyph glyph-name="at" unicode="@" horiz-adv-x="958" 
d="M711 643.5q98 -58.5 152.5 -157.5t54.5 -216q0 -70 -23 -126.5t-64 -88.5t-94 -32q-43 0 -74 19.5t-45 58.5q-20 -35 -60 -56.5t-88 -21.5q-58 0 -106.5 26.5t-77 76t-28.5 116.5t28.5 117t76.5 76.5t107 26.5q44 0 78.5 -17.5t56.5 -43.5v51h69v-284q0 -45 18 -60.5
t45 -15.5q41 0 71.5 44t30.5 134q0 97 -43.5 179t-123 130.5t-183.5 48.5q-102 0 -186.5 -48.5t-134 -134.5t-49.5 -195q0 -107 47.5 -193t132 -135t190.5 -49q90 0 168 39l31 -68q-93 -45 -199 -45q-126 0 -228.5 57t-161.5 160t-59 234q0 129 60.5 232.5t163.5 161.5
t225 58q124 0 222 -58.5zM568 138q37 40 37 104t-37 104.5t-97 40.5q-36 0 -66.5 -18.5t-49 -51.5t-18.5 -75t18.5 -75t49 -51t66.5 -18q60 0 97 40z" />
    <glyph glyph-name="A" unicode="A" horiz-adv-x="706" 
d="M536 158h-366l-71 -158h-87l315 700h52l315 -700h-87zM503 232l-150 334l-150 -334h300z" />
    <glyph glyph-name="B" unicode="B" horiz-adv-x="582" 
d="M506 298.5q28 -42.5 28 -100.5q0 -57 -28.5 -102t-76.5 -70.5t-104 -25.5h-251v700h229q58 0 106.5 -23.5t77 -65.5t28.5 -95q0 -52 -23 -92.5t-67 -62.5q53 -20 81 -62.5zM156 620v-228h142q62 0 97.5 34t35.5 84q0 47 -35 78.5t-95 31.5h-145zM412 111.5
q38 31.5 38 86.5q0 52 -38.5 86t-113.5 34h-142v-238h142q76 0 114 31.5z" />
    <glyph glyph-name="C" unicode="C" horiz-adv-x="693" 
d="M394 -12q-96 0 -178.5 47t-132 130t-49.5 185t49.5 185t132 130t178.5 47q162 0 265 -126l-58 -58q-41 50 -89.5 76.5t-117.5 26.5q-73 0 -136.5 -36t-101.5 -100.5t-38 -144.5t38 -144t101.5 -100.5t136.5 -36.5q69 0 117.5 26.5t89.5 76.5l58 -58q-103 -126 -265 -126z
" />
    <glyph glyph-name="D" unicode="D" horiz-adv-x="666" 
d="M462.5 654.5q81.5 -45.5 125.5 -125t44 -179.5t-44 -179.5t-126 -125t-192 -45.5h-196v700h198q109 0 190.5 -45.5zM418 115q63 35 96.5 96.5t33.5 138.5q0 78 -33.5 139t-96 96t-147.5 35h-115v-540h114q85 0 148 35z" />
    <glyph glyph-name="E" unicode="E" horiz-adv-x="558" 
d="M156 620v-220h334v-80h-334v-240h353v-80h-435v700h435v-80h-353z" />
    <glyph glyph-name="F" unicode="F" horiz-adv-x="518" 
d="M156 618v-217h304v-82h-304v-319h-82v700h405v-82h-323z" />
    <glyph glyph-name="G" unicode="G" horiz-adv-x="716" 
d="M394 370h255v-276q-50 -50 -115.5 -78t-139.5 -28q-98 0 -181 48.5t-131 132t-48 181.5t48 181.5t131 132t181 48.5q162 0 265 -126l-58 -58q-41 50 -89.5 76.5t-117.5 26.5q-76 0 -139.5 -38t-100 -102.5t-36.5 -140.5t36.5 -141t100 -103t139.5 -38q50 0 95 16.5
t81 47.5v158h-176v80z" />
    <glyph glyph-name="H" unicode="H" horiz-adv-x="704" 
d="M630 700v-700h-82v320h-392v-320h-82v700h82v-300h392v300h82z" />
    <glyph glyph-name="I" unicode="I" horiz-adv-x="230" 
d="M74 700h82v-700h-82v700z" />
    <glyph glyph-name="J" unicode="J" horiz-adv-x="497" 
d="M79 166q32 -49 69 -74.5t84 -25.5q54 0 85.5 34.5t31.5 106.5v493h82v-493q0 -107 -54.5 -163t-144.5 -56q-134 0 -210 121z" />
    <glyph glyph-name="K" unicode="K" horiz-adv-x="630" 
d="M264 342l341 -342h-113l-285 285l-51 -51v-234h-82v700h82v-361l359 361h107z" />
    <glyph glyph-name="L" unicode="L" horiz-adv-x="568" 
d="M523 80v-80h-449v700h82v-620h367z" />
    <glyph glyph-name="M" unicode="M" horiz-adv-x="830" 
d="M74 700h76l265 -398l266 398h75v-700h-82v547l-231 -346h-56l-231 348v-549h-82v700z" />
    <glyph glyph-name="N" unicode="N" horiz-adv-x="714" 
d="M74 700h66l418 -544v544h82v-700h-66l-418 544v-544h-82v700z" />
    <glyph glyph-name="O" unicode="O" horiz-adv-x="788" 
d="M213 36.5q-83 48.5 -131 132t-48 181.5t48 181.5t131 132t181 48.5t181 -48.5t131 -132t48 -181.5t-48 -181.5t-131 -132t-181 -48.5t-181 48.5zM533.5 106q63.5 38 100 103t36.5 141t-36.5 141t-100 103t-139.5 38t-139.5 -38t-100 -103t-36.5 -141t36.5 -141t100 -103
t139.5 -38t139.5 38z" />
    <glyph glyph-name="P" unicode="P" horiz-adv-x="583" 
d="M435.5 673q50.5 -27 80 -74.5t29.5 -108.5q0 -60 -29.5 -108t-79.5 -75t-110 -27h-170v-280h-82v700h250q61 0 111.5 -27zM418 395.5q41 35.5 41 94.5q0 54 -37.5 92t-100.5 38h-165v-260h140q81 0 122 35.5z" />
    <glyph glyph-name="Q" unicode="Q" horiz-adv-x="803" 
d="M729 -59l-119 119q-46 -34 -101 -53t-115 -19q-98 0 -181 48.5t-131 132t-48 181.5t48 181.5t131 132t181 48.5t181 -48.5t131 -132t48 -181.5q0 -67 -23 -127.5t-64 -109.5l117 -117zM552 118l-113 113l55 55l114 -114q30 36 46 82t16 96q0 76 -36.5 141t-100 103
t-139.5 38t-139.5 -38t-100 -103t-36.5 -141t36.5 -141t100 -103t139.5 -38q85 0 158 50z" />
    <glyph glyph-name="R" unicode="R" horiz-adv-x="617" 
d="M605 0h-113l-309 309h-27v-309h-82v700h271q60 0 107.5 -26t74 -70.5t26.5 -96.5q0 -54 -28 -98t-80.5 -70t-123.5 -26h-29zM321 388q74 0 110 33.5t36 85.5q0 48 -32 80.5t-90 32.5h-189v-232h165z" />
    <glyph glyph-name="S" unicode="S" horiz-adv-x="528" 
d="M160 13.5q-48 25.5 -79 68t-40 91.5l74 32q11 -59 51 -98t99 -39q62 0 101 36t39 92q0 53 -35 88.5t-100 49.5q-113 25 -164.5 71.5t-51.5 122.5q0 49 26.5 91.5t73.5 67.5t104 25q72 0 125 -37t76 -107l-76 -31q-13 42 -46 68.5t-79 26.5q-54 0 -88 -29t-34 -75
q0 -37 31 -65t91 -42q115 -27 172 -81.5t57 -143.5q0 -96 -61 -152t-161 -56q-57 0 -105 25.5z" />
    <glyph glyph-name="T" unicode="T" horiz-adv-x="604" 
d="M570 620h-227v-620h-82v620h-227v80h536v-80z" />
    <glyph glyph-name="U" unicode="U" horiz-adv-x="672" 
d="M606 700v-422q0 -83 -31 -148.5t-92 -103.5t-147 -38t-147 38t-92 103.5t-31 148.5v422h82v-422q0 -93 51 -151.5t137 -58.5t137 58.5t51 151.5v422h82z" />
    <glyph glyph-name="V" unicode="V" horiz-adv-x="710" 
d="M698 700l-316 -700h-55l-315 700h86l257 -570l256 570h87z" />
    <glyph glyph-name="W" unicode="W" horiz-adv-x="1046" 
d="M12 700h88l200 -541l181 541h83l183 -539l200 539h87l-261 -700h-57l-193 577l-195 -577h-57z" />
    <glyph glyph-name="X" unicode="X" horiz-adv-x="635" 
d="M523 0l-205 291l-206 -291h-94l251 354l-243 346h94l198 -283l197 283h94l-242 -346l250 -354h-94z" />
    <glyph glyph-name="Y" unicode="Y" horiz-adv-x="618" 
d="M350 248v-248h-82v247l-256 453h94l203 -375l203 375h94z" />
    <glyph glyph-name="Z" unicode="Z" horiz-adv-x="581" 
d="M536 80v-80h-491v42l355 578h-355v80h471v-42l-353 -578h373z" />
    <glyph glyph-name="bracketleft" unicode="[" horiz-adv-x="310" 
d="M154 640v-704h131v-78h-211v860h211v-78h-131z" />
    <glyph glyph-name="backslash" unicode="\" horiz-adv-x="417" 
d="M100 700h-88l311 -700h88z" />
    <glyph glyph-name="bracketright" unicode="]" horiz-adv-x="310" 
d="M156 640v-704h-131v-78h211v860h-211v-78h131z" />
    <glyph glyph-name="asciicircum" unicode="^" horiz-adv-x="495" 
d="M362 390l-115 212l-114 -212h-93l178 313h57l180 -313h-93z" />
    <glyph glyph-name="underscore" unicode="_" horiz-adv-x="547" 
d="M497 -46v-78h-447v78h447z" />
    <glyph glyph-name="grave" unicode="`" horiz-adv-x="266" 
d="M50 736h94l72 -181h-78z" />
    <glyph glyph-name="a" unicode="a" horiz-adv-x="588" 
d="M158 19q-55 31 -87.5 89.5t-32.5 136.5t32.5 136.5t87.5 89.5t122 31q53 0 95.5 -21.5t66.5 -54.5v64h80v-491h-80v65q-24 -33 -66.5 -54.5t-95.5 -21.5q-67 0 -122 31zM402 115q46 51 46 130t-46 130t-121 51q-43 0 -80.5 -23t-60 -64t-22.5 -94t22.5 -94t60 -64
t80.5 -23q75 0 121 51z" />
    <glyph glyph-name="b" unicode="b" horiz-adv-x="589" 
d="M67 736h80v-306q26 31 68 51.5t94 20.5q67 0 122 -31t87.5 -89.5t32.5 -136.5t-32.5 -136.5t-87.5 -89.5t-122 -31q-48 0 -91 19.5t-71 50.5v-59h-80v737zM187 115q46 -51 121 -51q43 0 80.5 23t60 64t22.5 94t-22.5 94t-60 64t-80.5 23q-75 0 -121 -51t-46 -130t46 -130
z" />
    <glyph glyph-name="c" unicode="c" horiz-adv-x="524" 
d="M71.5 378.5q34.5 58.5 92 91t123.5 32.5q67 0 118.5 -27t85.5 -74l-56 -56q-26 36 -63 58.5t-85 22.5q-44 0 -83 -22t-63 -63t-24 -96t24 -96t63 -63t83 -22q48 0 85 22.5t63 58.5l56 -56q-34 -47 -85.5 -74t-118.5 -27q-66 0 -123.5 32.5t-92 91t-34.5 133.5t34.5 133.5
z" />
    <glyph glyph-name="d" unicode="d" horiz-adv-x="588" 
d="M69.5 381.5q32.5 58.5 87.5 89.5t122 31q53 0 95.5 -21.5t66.5 -54.5v310h80v-737h-80v65q-24 -33 -66.5 -54.5t-95.5 -21.5q-67 0 -122 31t-87.5 89.5t-32.5 136.5t32.5 136.5zM139.5 151q22.5 -41 60 -64t80.5 -23q75 0 121 51t46 130t-46 130t-121 51q-43 0 -80.5 -23
t-60 -64t-22.5 -94t22.5 -94z" />
    <glyph glyph-name="e" unicode="e" horiz-adv-x="548" 
d="M502 227h-385q5 -70 50 -116.5t114 -46.5q96 0 153 80l55 -57q-31 -42 -85 -70.5t-123 -28.5q-71 0 -126.5 33t-86.5 91.5t-31 132.5t34 133t90 91.5t120 32.5q65 0 116 -28.5t79.5 -79t28.5 -115.5q0 -34 -3 -52zM424 303q-9 60 -45 91.5t-98 31.5q-56 0 -99 -33.5
t-58 -89.5h300z" />
    <glyph glyph-name="f" unicode="f" horiz-adv-x="327" 
d="M186.5 646.5q-17.5 -23.5 -17.5 -61.5v-95h132v-76h-132v-414h-80v414h-66v76h66v95q0 163 141 163q24 0 40.5 -3t33.5 -10v-76q-16 6 -30.5 8.5t-36.5 2.5q-33 0 -50.5 -23.5z" />
    <glyph glyph-name="g" unicode="g" horiz-adv-x="589" 
d="M69.5 386q32.5 56 86 86t115.5 30q107 0 171 -77v65h80v-460q0 -75 -30.5 -130t-83.5 -83.5t-118 -28.5q-73 0 -129.5 31.5t-91.5 83.5l58 58q28 -46 69 -71.5t94 -25.5q70 0 111 43.5t41 122.5v57q-62 -79 -171 -79q-62 0 -115.5 30t-86 86t-32.5 131t32.5 131zM138 166
q23 -39 60.5 -60.5t80.5 -21.5q75 0 122 48t47 123t-47 123t-122 48q-43 0 -80.5 -21.5t-60.5 -60.5t-23 -89t23 -89z" />
    <glyph glyph-name="h" unicode="h" horiz-adv-x="549" 
d="M67 736h80v-328q18 40 60.5 67t93.5 27q87 0 136.5 -55t49.5 -166v-281h-80v276q0 148 -111 148q-40 0 -74.5 -23t-54.5 -63.5t-20 -89.5v-248h-80v736z" />
    <glyph glyph-name="i" unicode="i" horiz-adv-x="215" 
d="M68 490h79v-490h-79v490zM68 617q-16 16 -16 40q0 23 16 39t40 16q23 0 39 -16t16 -39q0 -24 -16 -40t-39 -16q-24 0 -40 16z" />
    <glyph glyph-name="j" unicode="j" horiz-adv-x="215" 
d="M68 617q-16 16 -16 40q0 23 16 39t40 16q23 0 39 -16t16 -39q0 -24 -16 -40t-39 -16q-24 0 -40 16zM-33 -127q29 -6 48 -6q24 0 38.5 15.5t14.5 45.5v562h79v-562q0 -67 -34.5 -103.5t-97.5 -36.5q-26 0 -48 6v79z" />
    <glyph glyph-name="k" unicode="k" horiz-adv-x="504" 
d="M280 279l204 -279h-99l-162 222l-77 -77v-145h-79v736h79v-486l240 240h105z" />
    <glyph glyph-name="l" unicode="l" horiz-adv-x="214" 
d="M67 736h80v-736h-80v736z" />
    <glyph glyph-name="m" unicode="m" horiz-adv-x="818" 
d="M66 490h80v-61q19 34 54 53.5t81 19.5q51 0 90 -22t60 -69q24 43 64.5 67t89.5 24q76 0 123.5 -49.5t47.5 -156.5v-296h-80v293q0 66 -27 98t-77 32q-28 0 -56 -16.5t-46.5 -51t-18.5 -85.5v-270h-80v293q0 66 -27 98t-77 32q-28 0 -56 -16.5t-46.5 -51t-18.5 -85.5v-270
h-80v490z" />
    <glyph glyph-name="n" unicode="n" horiz-adv-x="548" 
d="M66 490h80v-82q23 42 62.5 68t91.5 26q87 0 136.5 -55t49.5 -166v-281h-80v276q0 148 -111 148q-40 0 -74.5 -23t-54.5 -63.5t-20 -89.5v-248h-80v490z" />
    <glyph glyph-name="o" unicode="o" horiz-adv-x="576" 
d="M159.5 21.5q-57.5 33.5 -90 92.5t-32.5 131t32.5 131t90 92.5t128.5 33.5t128.5 -33.5t90 -92.5t32.5 -131t-32.5 -131t-90 -92.5t-128.5 -33.5t-128.5 33.5zM377.5 88.5q38.5 24.5 60 65.5t21.5 91t-21.5 91t-60 65.5t-89.5 24.5t-89.5 -24.5t-60 -65.5t-21.5 -91
t21.5 -91t60 -65.5t89.5 -24.5t89.5 24.5z" />
    <glyph glyph-name="p" unicode="p" horiz-adv-x="588" 
d="M67 490h80v-68q24 33 67 56.5t95 23.5q67 0 122 -31t87.5 -89.5t32.5 -136.5t-32.5 -136.5t-87.5 -89.5t-122 -31q-52 0 -95 23.5t-67 56.5v-268h-80v690zM388.5 87q37.5 23 60 64t22.5 94t-22.5 94t-60 64t-80.5 23q-75 0 -121 -51t-46 -130t46 -130t121 -51
q43 0 80.5 23z" />
    <glyph glyph-name="q" unicode="q" horiz-adv-x="588" 
d="M441 66q-23 -34 -66 -56t-96 -22q-67 0 -122 31t-87.5 89.5t-32.5 136.5t32.5 136.5t87.5 89.5t122 31q53 0 95.5 -21.5t66.5 -52.5v62h80v-690h-80v266zM401 115q46 51 46 130t-46 130t-121 51q-43 0 -80.5 -23t-60 -64t-22.5 -94t22.5 -94t60 -64t80.5 -23q75 0 121 51
z" />
    <glyph glyph-name="r" unicode="r" horiz-adv-x="348" 
d="M66 490h80v-70q24 40 58.5 61t68.5 21q32 0 53 -6v-82q-26 6 -51 6q-27 0 -57.5 -20t-51 -59.5t-20.5 -95.5v-245h-80v490z" />
    <glyph glyph-name="s" unicode="s" horiz-adv-x="429" 
d="M133 9q-39 21 -63 53t-33 67l72 30q12 -44 41.5 -69.5t71.5 -25.5q40 0 64 19.5t24 50.5t-23.5 49.5t-87.5 32.5q-72 15 -110 52.5t-38 93.5q0 38 20 70t57 51t85 19q62 0 102 -28t59 -76l-76 -31q-8 27 -30.5 43t-54.5 16q-36 0 -59 -17t-23 -45q0 -26 24.5 -43
t79.5 -29q78 -17 116.5 -54.5t38.5 -103.5q0 -42 -22 -75t-60.5 -52t-85.5 -19q-50 0 -89 21z" />
    <glyph glyph-name="t" unicode="t" horiz-adv-x="343" 
d="M278.5 68.5q14.5 2.5 30.5 8.5v-76q-33 -13 -74 -13q-69 0 -105 41.5t-36 121.5v263h-66v76h66v110l80 30v-140h132v-76h-132v-263q0 -38 17.5 -61.5t50.5 -23.5q22 0 36.5 2.5z" />
    <glyph glyph-name="u" unicode="u" horiz-adv-x="548" 
d="M111.5 43q-49.5 55 -49.5 166v281h80v-276q0 -148 111 -148q67 0 108 49.5t41 126.5v248h80v-490h-80v72q-21 -39 -63.5 -61.5t-90.5 -22.5q-87 0 -136.5 55z" />
    <glyph glyph-name="v" unicode="v" horiz-adv-x="518" 
d="M510 490l-222 -490h-58l-222 490h86l165 -375l165 375h86z" />
    <glyph glyph-name="w" unicode="w" horiz-adv-x="748" 
d="M740 490l-196 -490h-51l-119 303l-119 -303h-51l-196 490h84l138 -354l121 310h46l121 -310l138 354h84z" />
    <glyph glyph-name="x" unicode="x" horiz-adv-x="526" 
d="M409 0l-146 196l-146 -196h-95l188 253l-178 237h95l136 -182l136 182h95l-178 -237l188 -253h-95z" />
    <glyph glyph-name="y" unicode="y" horiz-adv-x="496" 
d="M488 490l-312 -690h-85l114 256l-197 434h84l157 -341l156 341h83z" />
    <glyph glyph-name="z" unicode="z" horiz-adv-x="451" 
d="M38 48l258 366h-250v76h364v-48l-259 -366h261v-76h-374v48z" />
    <glyph glyph-name="braceleft" unicode="{" horiz-adv-x="271" 
d="M167 330.5q-13 -25.5 -48 -42.5q35 -18 48 -44t13 -76v-180q0 -24 11 -34t46 -10h4v-78h-30q-64 0 -87.5 30.5t-23.5 98.5v173q0 77 -70 90v59q70 13 70 90v174q0 68 23.5 98.5t87.5 30.5h30v-78h-4q-35 0 -46 -10t-11 -34v-181q0 -51 -13 -76.5z" />
    <glyph glyph-name="bar" unicode="|" horiz-adv-x="230" 
d="M74 748h82v-948h-82v948z" />
    <glyph glyph-name="braceright" unicode="}" horiz-adv-x="271" 
d="M104 330.5q13 -25.5 48 -42.5q-35 -18 -48 -44t-13 -76v-180q0 -24 -11 -34t-46 -10h-4v-78h30q64 0 87.5 30.5t23.5 98.5v173q0 77 70 90v59q-70 13 -70 90v174q0 68 -23.5 98.5t-87.5 30.5h-30v-78h4q35 0 46 -10t11 -34v-181q0 -51 13 -76.5z" />
    <glyph glyph-name="asciitilde" unicode="~" horiz-adv-x="604" 
d="M338 236.5q-32 17.5 -63 54.5q-28 33 -42 45t-37 12q-68 0 -68 -101h-76q0 62 20.5 104t53 61.5t70.5 19.5q37 0 69.5 -17.5t63.5 -54.5q28 -33 42 -45t37 -12q68 0 68 101h76q0 -62 -20.5 -104t-53 -61.5t-70.5 -19.5t-70 17.5z" />
    <glyph glyph-name="uni00A0" unicode="&#xa0;" horiz-adv-x="300" 
d="M0 0z" />
    <glyph glyph-name="exclamdown" unicode="&#xa1;" horiz-adv-x="262" 
d="M91 -200h80v490h-80v-490zM91 495q-17 -17 -17 -40t17 -40t40 -17t40 17t17 40t-17 40t-40 17t-40 -17z" />
    <glyph glyph-name="cent" unicode="&#xa2;" horiz-adv-x="524" 
d="M372 176.5q37 22.5 63 58.5l56 -56q-60 -85 -166 -99v-80h-76v81q-58 9 -106.5 43t-77 88.5t-28.5 122.5t28.5 122.5t77 88.5t106.5 43v81h76v-80q106 -14 166 -99l-56 -56q-26 36 -63 58.5t-85 22.5q-44 0 -83 -22t-63 -63t-24 -96t24 -96t63 -63t83 -22q48 0 85 22.5z
" />
    <glyph glyph-name="sterling" unicode="&#xa3;" horiz-adv-x="504" 
d="M464 81v-81h-424v50l15 19q46 55 65.5 90t19.5 83q0 13 -1 19h-99v78h67q-4 6 -24.5 38.5t-31.5 69t-11 75.5q0 53 28 96.5t76 68.5t106 25q76 0 130 -43.5t73 -111.5l-73 -30q-13 46 -46.5 75t-83.5 29q-60 0 -94 -32.5t-34 -86.5q0 -29 12 -54.5t36 -62.5
q21 -29 34 -56h165v-78h-141q2 -18 2 -29q0 -42 -14.5 -76.5t-46.5 -74.5h295z" />
    <glyph glyph-name="currency" unicode="&#xa4;" 
d="M494 153l70 -70l-54 -54l-69 70q-61 -47 -141 -47q-79 0 -141 46l-69 -69l-54 54l70 69q-43 62 -43 141q0 78 43 140l-70 70l54 54l69 -70q61 47 141 47t141 -47l69 70l54 -54l-70 -70q43 -62 43 -140t-43 -140zM377.5 154.5q35.5 21.5 56.5 58t21 80.5t-21 80.5
t-56.5 58t-77.5 21.5q-44 0 -79.5 -21.5t-55.5 -58t-20 -80.5t20 -80.5t55.5 -58t79.5 -21.5q42 0 77.5 21.5z" />
    <glyph glyph-name="yen" unicode="&#xa5;" horiz-adv-x="618" 
d="M397 364h96v-78h-142l-1 -2v-55h143v-78h-143v-151h-82v151h-143v78h143v55l-1 2h-142v78h96l-199 336h94l193 -336l193 336h94z" />
    <glyph glyph-name="brokenbar" unicode="&#xa6;" horiz-adv-x="230" 
d="M74 748h82v-365h-82v365zM74 165h82v-365h-82v365z" />
    <glyph glyph-name="section" unicode="&#xa7;" horiz-adv-x="526" 
d="M424 124q52 -54 52 -132q0 -91 -56.5 -147.5t-155.5 -56.5q-50 0 -94.5 22t-75.5 63.5t-40 98.5l79 33q4 -61 41.5 -99t89.5 -38q63 0 96.5 33.5t33.5 90.5q0 50 -35.5 83.5t-97.5 49.5q-76 19 -121 40t-67.5 52t-22.5 78q0 28 15 54t42 44q-57 48 -57 135q0 49 27 91
t72.5 67.5t98.5 25.5q74 0 123.5 -37t71.5 -108l-76 -32q-14 45 -42 71t-77 26q-48 0 -82 -29.5t-34 -74.5q0 -44 29.5 -74t87.5 -43q76 -18 124 -38t75.5 -54t27.5 -87q0 -65 -52 -108zM359 171q35 23 35 61q0 41 -32 59.5t-101 33.5q-58 13 -93 29q-17 -8 -26.5 -23.5
t-9.5 -35.5q0 -31 27.5 -49.5t89.5 -34.5q64 -16 110 -40z" />
    <glyph glyph-name="dieresis" unicode="&#xa8;" horiz-adv-x="384" 
d="M65 594.5q-15 15.5 -15 36.5t15 36t36 15t36 -15t15 -36t-15 -36.5t-36 -15.5t-36 15.5zM247 594.5q-15 15.5 -15 36.5t15 36t36 15t36 -15t15 -36t-15 -36.5t-36 -15.5t-36 15.5z" />
    <glyph glyph-name="copyright" unicode="&#xa9;" horiz-adv-x="1018" 
d="M278.5 -74q-105.5 62 -167 168t-61.5 231q0 126 61.5 231.5t167 167.5t230.5 62t230.5 -62t167 -167.5t61.5 -231.5q0 -125 -61.5 -231t-167 -168t-230.5 -62t-230.5 62zM701.5 -10.5q87.5 52.5 138 141.5t50.5 194q0 106 -50.5 195t-138 141t-192.5 52t-192.5 -52
t-138 -141t-50.5 -195q0 -105 50.5 -194t138 -141.5t192.5 -52.5t192.5 52.5zM382.5 99q-59.5 35 -94 95t-34.5 131t34.5 131t94 95t130.5 35q121 0 194 -94l-57 -57q-28 38 -61 55.5t-76 17.5q-49 0 -89.5 -24t-64.5 -66t-24 -93t24 -93t65 -66t89 -24q43 0 76 17.5
t61 54.5l56 -56q-74 -94 -193 -94q-71 0 -130.5 35z" />
    <glyph glyph-name="ordfeminine" unicode="&#xaa;" horiz-adv-x="559" 
d="M158 229q-55 31 -87.5 89.5t-32.5 136.5t32.5 136.5t87.5 89.5t122 31q53 0 95.5 -21.5t66.5 -54.5v64h80v-491h-80v65q-24 -33 -66.5 -54.5t-95.5 -21.5q-67 0 -122 31zM402 325q46 51 46 130t-46 130t-121 51q-43 0 -80.5 -23t-60 -64t-22.5 -94t22.5 -94t60 -64
t80.5 -23q75 0 121 51z" />
    <glyph glyph-name="guillemotleft" unicode="&#xab;" horiz-adv-x="549" 
d="M30 305l229 237l53 -53l-183 -184l183 -184l-53 -53zM230 305l229 237l53 -53l-183 -184l183 -184l-53 -53z" />
    <glyph glyph-name="logicalnot" unicode="&#xac;" horiz-adv-x="586" 
d="M536 210h-82v112h-404v78h486v-190z" />
    <glyph glyph-name="uni00AD" unicode="&#xad;" horiz-adv-x="389" 
d="M339 344v-78h-289v78h289z" />
    <glyph glyph-name="registered" unicode="&#xae;" horiz-adv-x="1018" 
d="M278.5 -74q-105.5 62 -167 168t-61.5 231q0 126 61.5 231.5t167 167.5t230.5 62t230.5 -62t167 -167.5t61.5 -231.5q0 -125 -61.5 -231t-167 -168t-230.5 -62t-230.5 62zM701.5 -10.5q87.5 52.5 138 141.5t50.5 194q0 106 -50.5 195t-138 141t-192.5 52t-192.5 -52
t-138 -141t-50.5 -195q0 -105 50.5 -194t138 -141.5t192.5 -52.5t192.5 52.5zM344 577h199q43 0 78.5 -18.5t56 -51t20.5 -72.5q0 -54 -36.5 -92t-96.5 -48l147 -219h-87l-142 214h-62v-214h-77v501zM525 360q44 0 68.5 19.5t24.5 55.5q0 32 -20.5 51.5t-54.5 19.5h-122
v-146h104z" />
    <glyph glyph-name="macron" unicode="&#xaf;" horiz-adv-x="447" 
d="M50 607v73h347v-73h-347z" />
    <glyph glyph-name="degree" unicode="&#xb0;" horiz-adv-x="293" 
d="M74 570q-29 30 -29 74t29 74t72 30q44 0 73 -30t29 -74t-29 -74t-73 -30q-43 0 -72 30zM178.5 610.5q12.5 13.5 12.5 33.5t-12.5 33.5t-32.5 13.5t-32 -13.5t-12 -33.5t12 -33.5t32 -13.5t32.5 13.5z" />
    <glyph glyph-name="plusminus" unicode="&#xb1;" horiz-adv-x="568" 
d="M518 471v-80h-193v-194h-82v194h-193v80h193v194h82v-194h193zM50 80h468v-80h-468v80z" />
    <glyph glyph-name="uni00B2" unicode="&#xb2;" horiz-adv-x="390" 
d="M51 294q0 42 26.5 81t65.5 68l33 24q53 40 72 60t19 45q0 31 -21.5 51.5t-53.5 20.5q-31 0 -51.5 -18.5t-29.5 -55.5l-63 24q14 53 53.5 85.5t90.5 32.5q40 0 72.5 -18.5t51.5 -50.5t19 -71q0 -34 -13.5 -59.5t-35.5 -44.5t-62 -47q-28 -20 -31 -22q-31 -23 -46.5 -42
t-21.5 -45h217v-68h-291v50z" />
    <glyph glyph-name="uni00B3" unicode="&#xb3;" horiz-adv-x="400" 
d="M112 374q6 -35 31 -56t59 -21q37 0 60.5 25t23.5 64q0 41 -27.5 65t-73.5 24h-34v37l93 123h-173v65h263v-45l-93 -126q54 -11 83.5 -48t29.5 -95q0 -42 -20 -77.5t-55 -56t-77 -20.5q-56 0 -97.5 32t-54.5 87z" />
    <glyph glyph-name="acute" unicode="&#xb4;" horiz-adv-x="266" 
d="M122 736h94l-88 -181h-78z" />
    <glyph glyph-name="uni00B5" unicode="&#xb5;" horiz-adv-x="553" 
d="M67 490h80v-276q0 -148 111 -148q67 0 108 49.5t41 126.5v248h80v-490h-80v72q-21 -39 -63.5 -61.5t-90.5 -22.5q-63 0 -106 28v-216h-80v690z" />
    <glyph glyph-name="paragraph" unicode="&#xb6;" horiz-adv-x="476" 
d="M286 -100h-67v493h-9q-44 0 -80.5 19.5t-58 54.5t-21.5 79q0 45 21.5 80t58 54.5t81.5 19.5h75v-800zM402 700v-800h-67v800h67z" />
    <glyph glyph-name="periodcentered" unicode="&#xb7;" horiz-adv-x="204" 
d="M61 265.5q-17 17.5 -17 40.5q0 24 17 41t41 17q23 0 40.5 -17t17.5 -41q0 -23 -17.5 -40.5t-40.5 -17.5q-24 0 -41 17.5z" />
    <glyph glyph-name="cedilla" unicode="&#xb8;" horiz-adv-x="258" 
d="M189 -73q19 -22 19 -55q0 -36 -28 -60t-71 -24q-27 0 -46 8v50q18 -6 42 -6q18 0 31 9.5t13 25.5q0 13 -9.5 21.5t-22.5 8.5q-18 0 -32 -7l-35 35l51 67h75l-37 -48q31 -3 50 -25z" />
    <glyph glyph-name="uni00B9" unicode="&#xb9;" horiz-adv-x="268" 
d="M130 598l-64 -44l-38 55l129 91h41v-456h-68v354z" />
    <glyph glyph-name="ordmasculine" unicode="&#xba;" horiz-adv-x="576" 
d="M159.5 231.5q-57.5 33.5 -90 92.5t-32.5 131t32.5 131t90 92.5t128.5 33.5t128.5 -33.5t90 -92.5t32.5 -131t-32.5 -131t-90 -92.5t-128.5 -33.5t-128.5 33.5zM377.5 298.5q38.5 24.5 60 65.5t21.5 91t-21.5 91t-60 65.5t-89.5 24.5t-89.5 -24.5t-60 -65.5t-21.5 -91
t21.5 -91t60 -65.5t89.5 -24.5t89.5 24.5z" />
    <glyph glyph-name="guillemotright" unicode="&#xbb;" horiz-adv-x="549" 
d="M519 305l-229 237l-53 -53l183 -184l-183 -184l53 -53zM319 305l-229 237l-53 -53l183 -184l-183 -184l53 -53z" />
    <glyph glyph-name="onequarter" unicode="&#xbc;" horiz-adv-x="850" 
d="M159 41l453 670l59 -40l-453 -670zM130 598l-64 -44l-38 55l129 91h41v-456h-68v354zM669 90h-220v54l224 316h65v-308h80v-62h-80v-90h-69v90zM669 152v190l-136 -190h136z" />
    <glyph glyph-name="onehalf" unicode="&#xbd;" horiz-adv-x="912" 
d="M159 41l453 670l59 -40l-453 -670zM130 598l-64 -44l-38 55l129 91h41v-456h-68v354zM573 45q0 42 26.5 81t65.5 68l33 24q53 40 72 60t19 45q0 31 -21.5 51.5t-53.5 20.5q-31 0 -51.5 -18.5t-29.5 -55.5l-63 24q14 53 53.5 85.5t90.5 32.5q40 0 72.5 -18.5t51.5 -50.5
t19 -71q0 -34 -13.5 -59.5t-35.5 -44.5t-62 -47q-28 -20 -31 -22q-31 -23 -46.5 -42t-21.5 -45h217v-68h-291v50z" />
    <glyph glyph-name="threequarters" unicode="&#xbe;" horiz-adv-x="917" 
d="M241 41l453 670l59 -40l-453 -670zM94.5 264q-41.5 32 -54.5 87l62 23q6 -35 31 -56t59 -21q37 0 60.5 25t23.5 64q0 41 -27.5 65t-73.5 24h-34v37l93 123h-173v65h263v-45l-93 -126q54 -11 83.5 -48t29.5 -95q0 -42 -20 -77.5t-55 -56t-77 -20.5q-56 0 -97.5 32zM747 90
h-220v54l224 316h64v-308h80v-62h-80v-90h-68v90zM747 152v191l-137 -191h137z" />
    <glyph glyph-name="questiondown" unicode="&#xbf;" horiz-adv-x="451" 
d="M278 125q-73 -12 -116.5 -50.5t-43.5 -96.5q0 -51 30 -80.5t77 -29.5q40 0 68.5 20.5t43.5 59.5l76 -32q-24 -61 -74.5 -94.5t-113.5 -33.5q-53 0 -96 23.5t-68 66.5t-25 100q0 71 46 127.5t116 77.5v137h80v-195zM278 495q17 -17 17 -40t-17 -40t-40 -17t-40 17t-17 40
t17 40t40 17t40 -17z" />
    <glyph glyph-name="Agrave" unicode="&#xc0;" horiz-adv-x="706" 
d="M536 158h-366l-71 -158h-87l315 700h52l315 -700h-87zM503 232l-150 334l-150 -334h300zM225 946h94l72 -181h-78z" />
    <glyph glyph-name="Aacute" unicode="&#xc1;" horiz-adv-x="706" 
d="M536 158h-366l-71 -158h-87l315 700h52l315 -700h-87zM503 232l-150 334l-150 -334h300zM387 946h94l-88 -181h-78z" />
    <glyph glyph-name="Acircumflex" unicode="&#xc2;" horiz-adv-x="706" 
d="M536 158h-366l-71 -158h-87l315 700h52l315 -700h-87zM503 232l-150 334l-150 -334h300zM320 940h65l118 -175h-80l-70 104l-70 -104h-80z" />
    <glyph glyph-name="Atilde" unicode="&#xc3;" horiz-adv-x="706" 
d="M536 158h-366l-71 -158h-87l315 700h52l315 -700h-87zM503 232l-150 334l-150 -334h300zM372 775.5q-20 10.5 -41 27.5q-11 8 -20.5 14t-16.5 6q-17 0 -26.5 -13.5t-9.5 -36.5h-59q0 55 29 81.5t69 26.5q22 0 40.5 -9.5t40.5 -26.5q3 -2 11 -8t13.5 -8.5t10.5 -2.5
q35 0 35 47h59q0 -55 -27.5 -81.5t-63.5 -26.5q-24 0 -44 10.5z" />
    <glyph glyph-name="Adieresis" unicode="&#xc4;" horiz-adv-x="706" 
d="M536 158h-366l-71 -158h-87l315 700h52l315 -700h-87zM503 232l-150 334l-150 -334h300zM226 784.5q-15 15.5 -15 36.5t15 36t36 15t36 -15t15 -36t-15 -36.5t-36 -15.5t-36 15.5zM408 784.5q-15 15.5 -15 36.5t15 36t36 15t36 -15t15 -36t-15 -36.5t-36 -15.5t-36 15.5z
" />
    <glyph glyph-name="Aring" unicode="&#xc5;" horiz-adv-x="706" 
d="M536 158h-366l-71 -158h-87l292 648q-28 14 -44.5 40.5t-16.5 59.5q0 47 32 79t78 32t78 -32t32 -79q0 -33 -16.5 -59.5t-44.5 -40.5l292 -648h-87zM319 782.5q-13 -13.5 -13 -34.5t13 -34.5t34 -13.5t34 13.5t13 34.5t-13 34.5t-34 13.5t-34 -13.5zM503 232l-150 334
l-150 -334h300z" />
    <glyph glyph-name="AE" unicode="&#xc6;" horiz-adv-x="977" 
d="M575 620v-220h334v-80h-334v-240h353v-80h-435v158h-274l-105 -158h-102l475 700h441v-80h-353zM493 232v337l-225 -337h225z" />
    <glyph glyph-name="Ccedilla" unicode="&#xc7;" horiz-adv-x="693" 
d="M394 -12q-96 0 -178.5 47t-132 130t-49.5 185t49.5 185t132 130t178.5 47q162 0 265 -126l-58 -58q-41 50 -89.5 76.5t-117.5 26.5q-73 0 -136.5 -36t-101.5 -100.5t-38 -144.5t38 -144t101.5 -100.5t136.5 -36.5q69 0 117.5 26.5t89.5 76.5l58 -58q-103 -126 -265 -126z
M454 -73q19 -22 19 -55q0 -36 -28 -60t-71 -24q-27 0 -46 8v50q18 -6 42 -6q18 0 31 9.5t13 25.5q0 13 -9.5 21.5t-22.5 8.5q-18 0 -32 -7l-35 35l51 67h75l-37 -48q31 -3 50 -25z" />
    <glyph glyph-name="Egrave" unicode="&#xc8;" horiz-adv-x="558" 
d="M156 620v-220h334v-80h-334v-240h353v-80h-435v700h435v-80h-353zM160 946h94l72 -181h-78z" />
    <glyph glyph-name="Eacute" unicode="&#xc9;" horiz-adv-x="558" 
d="M156 620v-220h334v-80h-334v-240h353v-80h-435v700h435v-80h-353zM322 946h94l-88 -181h-78z" />
    <glyph glyph-name="Ecircumflex" unicode="&#xca;" horiz-adv-x="558" 
d="M156 620v-220h334v-80h-334v-240h353v-80h-435v700h435v-80h-353zM255 940h65l118 -175h-80l-70 104l-70 -104h-80z" />
    <glyph glyph-name="Edieresis" unicode="&#xcb;" horiz-adv-x="558" 
d="M156 620v-220h334v-80h-334v-240h353v-80h-435v700h435v-80h-353zM161 784.5q-15 15.5 -15 36.5t15 36t36 15t36 -15t15 -36t-15 -36.5t-36 -15.5t-36 15.5zM343 784.5q-15 15.5 -15 36.5t15 36t36 15t36 -15t15 -36t-15 -36.5t-36 -15.5t-36 15.5z" />
    <glyph glyph-name="Igrave" unicode="&#xcc;" horiz-adv-x="230" 
d="M74 700h82v-700h-82v700zM-13 946h94l72 -181h-78z" />
    <glyph glyph-name="Iacute" unicode="&#xcd;" horiz-adv-x="230" 
d="M74 700h82v-700h-82v700zM149 946h94l-88 -181h-78z" />
    <glyph glyph-name="Icircumflex" unicode="&#xce;" horiz-adv-x="230" 
d="M74 700h82v-700h-82v700zM82 940h65l118 -175h-80l-70 104l-70 -104h-80z" />
    <glyph glyph-name="Idieresis" unicode="&#xcf;" horiz-adv-x="230" 
d="M74 700h82v-700h-82v700zM-12 784.5q-15 15.5 -15 36.5t15 36t36 15t36 -15t15 -36t-15 -36.5t-36 -15.5t-36 15.5zM170 784.5q-15 15.5 -15 36.5t15 36t36 15t36 -15t15 -36t-15 -36.5t-36 -15.5t-36 15.5z" />
    <glyph glyph-name="Eth" unicode="&#xd0;" horiz-adv-x="666" 
d="M462.5 654.5q81.5 -45.5 125.5 -125t44 -179.5t-44 -179.5t-126 -125t-192 -45.5h-196v320h-63v80h63v300h198q109 0 190.5 -45.5zM418 115q63 35 96.5 96.5t33.5 138.5q0 78 -33.5 139t-96 96t-147.5 35h-115v-220h233v-80h-233v-240h114q85 0 148 35z" />
    <glyph glyph-name="Ntilde" unicode="&#xd1;" horiz-adv-x="714" 
d="M74 700h66l418 -544v544h82v-700h-66l-418 544v-544h-82v700zM376 775.5q-20 10.5 -41 27.5q-11 8 -20.5 14t-16.5 6q-17 0 -26.5 -13.5t-9.5 -36.5h-59q0 55 29 81.5t69 26.5q22 0 40.5 -9.5t40.5 -26.5q3 -2 11 -8t13.5 -8.5t10.5 -2.5q35 0 35 47h59
q0 -55 -27.5 -81.5t-63.5 -26.5q-24 0 -44 10.5z" />
    <glyph glyph-name="Ograve" unicode="&#xd2;" horiz-adv-x="788" 
d="M213 36.5q-83 48.5 -131 132t-48 181.5t48 181.5t131 132t181 48.5t181 -48.5t131 -132t48 -181.5t-48 -181.5t-131 -132t-181 -48.5t-181 48.5zM533.5 106q63.5 38 100 103t36.5 141t-36.5 141t-100 103t-139.5 38t-139.5 -38t-100 -103t-36.5 -141t36.5 -141t100 -103
t139.5 -38t139.5 38zM266 946h94l72 -181h-78z" />
    <glyph glyph-name="Oacute" unicode="&#xd3;" horiz-adv-x="788" 
d="M213 36.5q-83 48.5 -131 132t-48 181.5t48 181.5t131 132t181 48.5t181 -48.5t131 -132t48 -181.5t-48 -181.5t-131 -132t-181 -48.5t-181 48.5zM533.5 106q63.5 38 100 103t36.5 141t-36.5 141t-100 103t-139.5 38t-139.5 -38t-100 -103t-36.5 -141t36.5 -141t100 -103
t139.5 -38t139.5 38zM428 946h94l-88 -181h-78z" />
    <glyph glyph-name="Ocircumflex" unicode="&#xd4;" horiz-adv-x="788" 
d="M213 36.5q-83 48.5 -131 132t-48 181.5t48 181.5t131 132t181 48.5t181 -48.5t131 -132t48 -181.5t-48 -181.5t-131 -132t-181 -48.5t-181 48.5zM533.5 106q63.5 38 100 103t36.5 141t-36.5 141t-100 103t-139.5 38t-139.5 -38t-100 -103t-36.5 -141t36.5 -141t100 -103
t139.5 -38t139.5 38zM361 940h65l118 -175h-80l-70 104l-70 -104h-80z" />
    <glyph glyph-name="Otilde" unicode="&#xd5;" horiz-adv-x="788" 
d="M213 36.5q-83 48.5 -131 132t-48 181.5t48 181.5t131 132t181 48.5t181 -48.5t131 -132t48 -181.5t-48 -181.5t-131 -132t-181 -48.5t-181 48.5zM533.5 106q63.5 38 100 103t36.5 141t-36.5 141t-100 103t-139.5 38t-139.5 -38t-100 -103t-36.5 -141t36.5 -141t100 -103
t139.5 -38t139.5 38zM413 775.5q-20 10.5 -41 27.5q-11 8 -20.5 14t-16.5 6q-17 0 -26.5 -13.5t-9.5 -36.5h-59q0 55 29 81.5t69 26.5q22 0 40.5 -9.5t40.5 -26.5q3 -2 11 -8t13.5 -8.5t10.5 -2.5q35 0 35 47h59q0 -55 -27.5 -81.5t-63.5 -26.5q-24 0 -44 10.5z" />
    <glyph glyph-name="Odieresis" unicode="&#xd6;" horiz-adv-x="788" 
d="M213 36.5q-83 48.5 -131 132t-48 181.5t48 181.5t131 132t181 48.5t181 -48.5t131 -132t48 -181.5t-48 -181.5t-131 -132t-181 -48.5t-181 48.5zM533.5 106q63.5 38 100 103t36.5 141t-36.5 141t-100 103t-139.5 38t-139.5 -38t-100 -103t-36.5 -141t36.5 -141t100 -103
t139.5 -38t139.5 38zM267 784.5q-15 15.5 -15 36.5t15 36t36 15t36 -15t15 -36t-15 -36.5t-36 -15.5t-36 15.5zM449 784.5q-15 15.5 -15 36.5t15 36t36 15t36 -15t15 -36t-15 -36.5t-36 -15.5t-36 15.5z" />
    <glyph glyph-name="multiply" unicode="&#xd7;" horiz-adv-x="520" 
d="M313 295l162 -162l-53 -53l-162 162l-162 -162l-53 53l162 162l-162 162l53 53l162 -162l162 162l53 -53z" />
    <glyph glyph-name="Oslash" unicode="&#xd8;" horiz-adv-x="788" 
d="M683 566q34 -46 52.5 -101t18.5 -115q0 -98 -48 -181.5t-131 -132t-181 -48.5q-60 0 -115 19t-101 53l-55 -55l-56 57l53 53q-41 48 -63.5 108t-22.5 127q0 98 48 181.5t131 132t181 48.5q66 0 126.5 -23t108.5 -64l70 70l56 -57zM178 173l393 394q-36 31 -81.5 48
t-95.5 17q-76 0 -139.5 -38t-100 -103t-36.5 -141q0 -100 60 -177zM624 507l-388 -389q71 -50 158 -50q76 0 139.5 38t100 103t36.5 141q0 86 -46 157z" />
    <glyph glyph-name="Ugrave" unicode="&#xd9;" horiz-adv-x="672" 
d="M606 700v-422q0 -83 -31 -148.5t-92 -103.5t-147 -38t-147 38t-92 103.5t-31 148.5v422h82v-422q0 -93 51 -151.5t137 -58.5t137 58.5t51 151.5v422h82zM208 946h94l72 -181h-78z" />
    <glyph glyph-name="Uacute" unicode="&#xda;" horiz-adv-x="672" 
d="M606 700v-422q0 -83 -31 -148.5t-92 -103.5t-147 -38t-147 38t-92 103.5t-31 148.5v422h82v-422q0 -93 51 -151.5t137 -58.5t137 58.5t51 151.5v422h82zM370 946h94l-88 -181h-78z" />
    <glyph glyph-name="Ucircumflex" unicode="&#xdb;" horiz-adv-x="672" 
d="M606 700v-422q0 -83 -31 -148.5t-92 -103.5t-147 -38t-147 38t-92 103.5t-31 148.5v422h82v-422q0 -93 51 -151.5t137 -58.5t137 58.5t51 151.5v422h82zM303 940h65l118 -175h-80l-70 104l-70 -104h-80z" />
    <glyph glyph-name="Udieresis" unicode="&#xdc;" horiz-adv-x="672" 
d="M606 700v-422q0 -83 -31 -148.5t-92 -103.5t-147 -38t-147 38t-92 103.5t-31 148.5v422h82v-422q0 -93 51 -151.5t137 -58.5t137 58.5t51 151.5v422h82zM209 784.5q-15 15.5 -15 36.5t15 36t36 15t36 -15t15 -36t-15 -36.5t-36 -15.5t-36 15.5zM391 784.5
q-15 15.5 -15 36.5t15 36t36 15t36 -15t15 -36t-15 -36.5t-36 -15.5t-36 15.5z" />
    <glyph glyph-name="Yacute" unicode="&#xdd;" horiz-adv-x="618" 
d="M350 248v-248h-82v247l-256 453h94l203 -375l203 375h94zM343 946h94l-88 -181h-78z" />
    <glyph glyph-name="Thorn" unicode="&#xde;" horiz-adv-x="583" 
d="M435.5 533q50.5 -27 80 -74.5t29.5 -108.5q0 -60 -29.5 -108t-79.5 -75t-110 -27h-170v-140h-82v700h82v-140h168q61 0 111.5 -27zM418 255.5q41 35.5 41 94.5q0 54 -37.5 92t-100.5 38h-165v-260h140q81 0 122 35.5z" />
    <glyph glyph-name="germandbls" unicode="&#xdf;" horiz-adv-x="544" 
d="M465.5 316.5q33.5 -48.5 33.5 -112.5q0 -62 -29 -108.5t-80 -71t-115 -24.5h-50v80h31q80 0 119.5 32.5t39.5 91.5q0 54 -35 89.5t-96 35.5h-59v74h18q56 0 89.5 33t33.5 85q0 48 -28.5 79t-79.5 31q-50 0 -79.5 -34.5t-29.5 -97.5v-499h-82v510q0 57 24 102.5t67.5 72
t99.5 26.5q58 0 101.5 -24t67 -66t23.5 -94q0 -49 -19 -87t-57 -61q58 -14 91.5 -62.5z" />
    <glyph glyph-name="agrave" unicode="&#xe0;" horiz-adv-x="588" 
d="M158 19q-55 31 -87.5 89.5t-32.5 136.5t32.5 136.5t87.5 89.5t122 31q53 0 95.5 -21.5t66.5 -54.5v64h80v-491h-80v65q-24 -33 -66.5 -54.5t-95.5 -21.5q-67 0 -122 31zM402 115q46 51 46 130t-46 130t-121 51q-43 0 -80.5 -23t-60 -64t-22.5 -94t22.5 -94t60 -64
t80.5 -23q75 0 121 51zM167 736h94l72 -181h-78z" />
    <glyph glyph-name="aacute" unicode="&#xe1;" horiz-adv-x="588" 
d="M158 19q-55 31 -87.5 89.5t-32.5 136.5t32.5 136.5t87.5 89.5t122 31q53 0 95.5 -21.5t66.5 -54.5v64h80v-491h-80v65q-24 -33 -66.5 -54.5t-95.5 -21.5q-67 0 -122 31zM402 115q46 51 46 130t-46 130t-121 51q-43 0 -80.5 -23t-60 -64t-22.5 -94t22.5 -94t60 -64
t80.5 -23q75 0 121 51zM326 736h94l-88 -181h-78z" />
    <glyph glyph-name="acircumflex" unicode="&#xe2;" horiz-adv-x="588" 
d="M158 19q-55 31 -87.5 89.5t-32.5 136.5t32.5 136.5t87.5 89.5t122 31q53 0 95.5 -21.5t66.5 -54.5v64h80v-491h-80v65q-24 -33 -66.5 -54.5t-95.5 -21.5q-67 0 -122 31zM402 115q46 51 46 130t-46 130t-121 51q-43 0 -80.5 -23t-60 -64t-22.5 -94t22.5 -94t60 -64
t80.5 -23q75 0 121 51zM261 730h65l118 -175h-80l-70 104l-70 -104h-80z" />
    <glyph glyph-name="atilde" unicode="&#xe3;" horiz-adv-x="588" 
d="M158 19q-55 31 -87.5 89.5t-32.5 136.5t32.5 136.5t87.5 89.5t122 31q53 0 95.5 -21.5t66.5 -54.5v64h80v-491h-80v65q-24 -33 -66.5 -54.5t-95.5 -21.5q-67 0 -122 31zM402 115q46 51 46 130t-46 130t-121 51q-43 0 -80.5 -23t-60 -64t-22.5 -94t22.5 -94t60 -64
t80.5 -23q75 0 121 51zM313 565.5q-20 10.5 -41 27.5q-11 8 -20.5 14t-16.5 6q-17 0 -26.5 -13.5t-9.5 -36.5h-59q0 55 29 81.5t69 26.5q22 0 40.5 -9.5t40.5 -26.5q3 -2 11 -8t13.5 -8.5t10.5 -2.5q35 0 35 47h59q0 -55 -27.5 -81.5t-63.5 -26.5q-24 0 -44 10.5z" />
    <glyph glyph-name="adieresis" unicode="&#xe4;" horiz-adv-x="588" 
d="M158 19q-55 31 -87.5 89.5t-32.5 136.5t32.5 136.5t87.5 89.5t122 31q53 0 95.5 -21.5t66.5 -54.5v64h80v-491h-80v65q-24 -33 -66.5 -54.5t-95.5 -21.5q-67 0 -122 31zM402 115q46 51 46 130t-46 130t-121 51q-43 0 -80.5 -23t-60 -64t-22.5 -94t22.5 -94t60 -64
t80.5 -23q75 0 121 51zM167 594.5q-15 15.5 -15 36.5t15 36t36 15t36 -15t15 -36t-15 -36.5t-36 -15.5t-36 15.5zM349 594.5q-15 15.5 -15 36.5t15 36t36 15t36 -15t15 -36t-15 -36.5t-36 -15.5t-36 15.5z" />
    <glyph glyph-name="aring" unicode="&#xe5;" horiz-adv-x="588" 
d="M158 19q-55 31 -87.5 89.5t-32.5 136.5t32.5 136.5t87.5 89.5t122 31q53 0 95.5 -21.5t66.5 -54.5v64h80v-491h-80v65q-24 -33 -66.5 -54.5t-95.5 -21.5q-67 0 -122 31zM402 115q46 51 46 130t-46 130t-121 51q-43 0 -80.5 -23t-60 -64t-22.5 -94t22.5 -94t60 -64
t80.5 -23q75 0 121 51zM216 587q-32 32 -32 79t32 79t78 32t78 -32t32 -79t-32 -79t-78 -32t-78 32zM328 631.5q13 13.5 13 34.5t-13 34.5t-34 13.5t-34 -13.5t-13 -34.5t13 -34.5t34 -13.5t34 13.5z" />
    <glyph glyph-name="ae" unicode="&#xe6;" horiz-adv-x="859" 
d="M123 8q-40 20 -62.5 56t-22.5 81q0 69 48.5 108.5t134.5 39.5h127v21q0 52 -32.5 82t-82.5 30q-45 0 -74 -22.5t-39 -63.5l-78 20q9 37 35.5 69.5t66.5 52.5t89 20q58 0 102.5 -23.5t68.5 -68.5q35 44 84 68t104 24q65 0 116 -28.5t79.5 -79t28.5 -115.5q0 -35 -3 -53
h-385q5 -69 50 -115.5t114 -46.5q96 0 153 80l55 -57q-31 -42 -85 -70.5t-123 -28.5q-63 0 -114 26t-84 73q-26 -46 -78.5 -72.5t-101.5 -26.5q-51 0 -91 20zM735 303q-9 60 -45 91.5t-98 31.5q-56 0 -99 -33.5t-58 -89.5h300zM288 82q30 18 45 44.5t15 53.5v37h-142
q-41 0 -64.5 -19.5t-23.5 -52.5q0 -35 28 -58t68 -23q44 0 74 18z" />
    <glyph glyph-name="ccedilla" unicode="&#xe7;" horiz-adv-x="524" 
d="M71.5 378.5q34.5 58.5 92 91t123.5 32.5q67 0 118.5 -27t85.5 -74l-56 -56q-26 36 -63 58.5t-85 22.5q-44 0 -83 -22t-63 -63t-24 -96t24 -96t63 -63t83 -22q48 0 85 22.5t63 58.5l56 -56q-34 -47 -85.5 -74t-118.5 -27q-66 0 -123.5 32.5t-92 91t-34.5 133.5t34.5 133.5
zM347 -73q19 -22 19 -55q0 -36 -28 -60t-71 -24q-27 0 -46 8v50q18 -6 42 -6q18 0 31 9.5t13 25.5q0 13 -9.5 21.5t-22.5 8.5q-18 0 -32 -7l-35 35l51 67h75l-37 -48q31 -3 50 -25z" />
    <glyph glyph-name="egrave" unicode="&#xe8;" horiz-adv-x="548" 
d="M502 227h-385q5 -70 50 -116.5t114 -46.5q96 0 153 80l55 -57q-31 -42 -85 -70.5t-123 -28.5q-71 0 -126.5 33t-86.5 91.5t-31 132.5t34 133t90 91.5t120 32.5q65 0 116 -28.5t79.5 -79t28.5 -115.5q0 -34 -3 -52zM424 303q-9 60 -45 91.5t-98 31.5q-56 0 -99 -33.5
t-58 -89.5h300zM154 736h94l72 -181h-78z" />
    <glyph glyph-name="eacute" unicode="&#xe9;" horiz-adv-x="548" 
d="M502 227h-385q5 -70 50 -116.5t114 -46.5q96 0 153 80l55 -57q-31 -42 -85 -70.5t-123 -28.5q-71 0 -126.5 33t-86.5 91.5t-31 132.5t34 133t90 91.5t120 32.5q65 0 116 -28.5t79.5 -79t28.5 -115.5q0 -34 -3 -52zM424 303q-9 60 -45 91.5t-98 31.5q-56 0 -99 -33.5
t-58 -89.5h300zM313 736h94l-88 -181h-78z" />
    <glyph glyph-name="ecircumflex" unicode="&#xea;" horiz-adv-x="548" 
d="M502 227h-385q5 -70 50 -116.5t114 -46.5q96 0 153 80l55 -57q-31 -42 -85 -70.5t-123 -28.5q-71 0 -126.5 33t-86.5 91.5t-31 132.5t34 133t90 91.5t120 32.5q65 0 116 -28.5t79.5 -79t28.5 -115.5q0 -34 -3 -52zM424 303q-9 60 -45 91.5t-98 31.5q-56 0 -99 -33.5
t-58 -89.5h300zM248 730h65l118 -175h-80l-70 104l-70 -104h-80z" />
    <glyph glyph-name="edieresis" unicode="&#xeb;" horiz-adv-x="548" 
d="M502 227h-385q5 -70 50 -116.5t114 -46.5q96 0 153 80l55 -57q-31 -42 -85 -70.5t-123 -28.5q-71 0 -126.5 33t-86.5 91.5t-31 132.5t34 133t90 91.5t120 32.5q65 0 116 -28.5t79.5 -79t28.5 -115.5q0 -34 -3 -52zM424 303q-9 60 -45 91.5t-98 31.5q-56 0 -99 -33.5
t-58 -89.5h300zM154 594.5q-15 15.5 -15 36.5t15 36t36 15t36 -15t15 -36t-15 -36.5t-36 -15.5t-36 15.5zM336 594.5q-15 15.5 -15 36.5t15 36t36 15t36 -15t15 -36t-15 -36.5t-36 -15.5t-36 15.5z" />
    <glyph glyph-name="igrave" unicode="&#xec;" horiz-adv-x="215" 
d="M68 490h79v-490h-79v490zM-19 736h94l72 -181h-78z" />
    <glyph glyph-name="iacute" unicode="&#xed;" horiz-adv-x="215" 
d="M68 490h79v-490h-79v490zM140 736h94l-88 -181h-78z" />
    <glyph glyph-name="icircumflex" unicode="&#xee;" horiz-adv-x="215" 
d="M68 490h79v-490h-79v490zM75 730h65l118 -175h-80l-70 104l-70 -104h-80z" />
    <glyph glyph-name="idieresis" unicode="&#xef;" horiz-adv-x="215" 
d="M68 490h79v-490h-79v490zM-19 594.5q-15 15.5 -15 36.5t15 36t36 15t36 -15t15 -36t-15 -36.5t-36 -15.5t-36 15.5zM163 594.5q-15 15.5 -15 36.5t15 36t36 15t36 -15t15 -36t-15 -36.5t-36 -15.5t-36 15.5z" />
    <glyph glyph-name="eth" unicode="&#xf0;" horiz-adv-x="583" 
d="M500 497q46 -96 46 -214q0 -85 -32 -152t-90 -105t-135 -38q-65 0 -123 31.5t-93.5 90t-35.5 135.5q0 78 35 136.5t92.5 89.5t124.5 31q53 0 94.5 -21t68.5 -52q-20 52 -52.5 96t-84.5 84l-64 -64l-46 51l52 52q-26 16 -53 29l35 69q38 -18 74 -41l68 68l46 -51l-58 -58
q85 -71 131 -167zM411 115q46 51 46 130t-46 130t-121 51q-43 0 -83 -23t-65 -64.5t-25 -93.5q0 -53 25 -94.5t64.5 -64t83.5 -22.5q75 0 121 51z" />
    <glyph glyph-name="ntilde" unicode="&#xf1;" horiz-adv-x="548" 
d="M66 490h80v-82q23 42 62.5 68t91.5 26q87 0 136.5 -55t49.5 -166v-281h-80v276q0 148 -111 148q-40 0 -74.5 -23t-54.5 -63.5t-20 -89.5v-248h-80v490zM295 565.5q-20 10.5 -41 27.5q-11 8 -20.5 14t-16.5 6q-17 0 -26.5 -13.5t-9.5 -36.5h-59q0 55 29 81.5t69 26.5
q22 0 40.5 -9.5t40.5 -26.5q3 -2 11 -8t13.5 -8.5t10.5 -2.5q35 0 35 47h59q0 -55 -27.5 -81.5t-63.5 -26.5q-24 0 -44 10.5z" />
    <glyph glyph-name="ograve" unicode="&#xf2;" horiz-adv-x="576" 
d="M159.5 21.5q-57.5 33.5 -90 92.5t-32.5 131t32.5 131t90 92.5t128.5 33.5t128.5 -33.5t90 -92.5t32.5 -131t-32.5 -131t-90 -92.5t-128.5 -33.5t-128.5 33.5zM377.5 88.5q38.5 24.5 60 65.5t21.5 91t-21.5 91t-60 65.5t-89.5 24.5t-89.5 -24.5t-60 -65.5t-21.5 -91
t21.5 -91t60 -65.5t89.5 -24.5t89.5 24.5zM161 736h94l72 -181h-78z" />
    <glyph glyph-name="oacute" unicode="&#xf3;" horiz-adv-x="576" 
d="M159.5 21.5q-57.5 33.5 -90 92.5t-32.5 131t32.5 131t90 92.5t128.5 33.5t128.5 -33.5t90 -92.5t32.5 -131t-32.5 -131t-90 -92.5t-128.5 -33.5t-128.5 33.5zM377.5 88.5q38.5 24.5 60 65.5t21.5 91t-21.5 91t-60 65.5t-89.5 24.5t-89.5 -24.5t-60 -65.5t-21.5 -91
t21.5 -91t60 -65.5t89.5 -24.5t89.5 24.5zM320 736h94l-88 -181h-78z" />
    <glyph glyph-name="ocircumflex" unicode="&#xf4;" horiz-adv-x="576" 
d="M159.5 21.5q-57.5 33.5 -90 92.5t-32.5 131t32.5 131t90 92.5t128.5 33.5t128.5 -33.5t90 -92.5t32.5 -131t-32.5 -131t-90 -92.5t-128.5 -33.5t-128.5 33.5zM377.5 88.5q38.5 24.5 60 65.5t21.5 91t-21.5 91t-60 65.5t-89.5 24.5t-89.5 -24.5t-60 -65.5t-21.5 -91
t21.5 -91t60 -65.5t89.5 -24.5t89.5 24.5zM255 730h65l118 -175h-80l-70 104l-70 -104h-80z" />
    <glyph glyph-name="otilde" unicode="&#xf5;" horiz-adv-x="576" 
d="M159.5 21.5q-57.5 33.5 -90 92.5t-32.5 131t32.5 131t90 92.5t128.5 33.5t128.5 -33.5t90 -92.5t32.5 -131t-32.5 -131t-90 -92.5t-128.5 -33.5t-128.5 33.5zM377.5 88.5q38.5 24.5 60 65.5t21.5 91t-21.5 91t-60 65.5t-89.5 24.5t-89.5 -24.5t-60 -65.5t-21.5 -91
t21.5 -91t60 -65.5t89.5 -24.5t89.5 24.5zM307 565.5q-20 10.5 -41 27.5q-11 8 -20.5 14t-16.5 6q-17 0 -26.5 -13.5t-9.5 -36.5h-59q0 55 29 81.5t69 26.5q22 0 40.5 -9.5t40.5 -26.5q3 -2 11 -8t13.5 -8.5t10.5 -2.5q35 0 35 47h59q0 -55 -27.5 -81.5t-63.5 -26.5
q-24 0 -44 10.5z" />
    <glyph glyph-name="odieresis" unicode="&#xf6;" horiz-adv-x="576" 
d="M159.5 21.5q-57.5 33.5 -90 92.5t-32.5 131t32.5 131t90 92.5t128.5 33.5t128.5 -33.5t90 -92.5t32.5 -131t-32.5 -131t-90 -92.5t-128.5 -33.5t-128.5 33.5zM377.5 88.5q38.5 24.5 60 65.5t21.5 91t-21.5 91t-60 65.5t-89.5 24.5t-89.5 -24.5t-60 -65.5t-21.5 -91
t21.5 -91t60 -65.5t89.5 -24.5t89.5 24.5zM161 594.5q-15 15.5 -15 36.5t15 36t36 15t36 -15t15 -36t-15 -36.5t-36 -15.5t-36 15.5zM343 594.5q-15 15.5 -15 36.5t15 36t36 15t36 -15t15 -36t-15 -36.5t-36 -15.5t-36 15.5z" />
    <glyph glyph-name="divide" unicode="&#xf7;" horiz-adv-x="592" 
d="M256 465.5q-17 17.5 -17 40.5q0 24 17 41t41 17q23 0 40.5 -17t17.5 -41q0 -23 -17.5 -40.5t-40.5 -17.5q-24 0 -41 17.5zM542 335v-80h-492v80h492zM256 57.5q-17 17.5 -17 40.5q0 24 17 41t41 17q23 0 40.5 -17t17.5 -41q0 -23 -17.5 -40.5t-40.5 -17.5q-24 0 -41 17.5
z" />
    <glyph glyph-name="oslash" unicode="&#xf8;" horiz-adv-x="579" 
d="M496 393q43 -65 43 -148q0 -72 -32.5 -131t-90 -92.5t-128.5 -33.5q-86 0 -149 48l-36 -36l-50 51l35 35q-51 69 -51 159q0 72 32.5 131t90 92.5t128.5 33.5q91 0 160 -56l44 44l50 -51zM145 143l248 248q-45 35 -105 35q-51 0 -89.5 -24.5t-60 -65.5t-21.5 -91
q0 -57 28 -102zM438 335l-244 -244q41 -27 94 -27q51 0 89.5 24.5t60 65.5t21.5 91q0 51 -21 90z" />
    <glyph glyph-name="ugrave" unicode="&#xf9;" horiz-adv-x="548" 
d="M111.5 43q-49.5 55 -49.5 166v281h80v-276q0 -148 111 -148q67 0 108 49.5t41 126.5v248h80v-490h-80v72q-21 -39 -63.5 -61.5t-90.5 -22.5q-87 0 -136.5 55zM145 736h94l72 -181h-78z" />
    <glyph glyph-name="uacute" unicode="&#xfa;" horiz-adv-x="548" 
d="M111.5 43q-49.5 55 -49.5 166v281h80v-276q0 -148 111 -148q67 0 108 49.5t41 126.5v248h80v-490h-80v72q-21 -39 -63.5 -61.5t-90.5 -22.5q-87 0 -136.5 55zM304 736h94l-88 -181h-78z" />
    <glyph glyph-name="ucircumflex" unicode="&#xfb;" horiz-adv-x="548" 
d="M111.5 43q-49.5 55 -49.5 166v281h80v-276q0 -148 111 -148q67 0 108 49.5t41 126.5v248h80v-490h-80v72q-21 -39 -63.5 -61.5t-90.5 -22.5q-87 0 -136.5 55zM239 730h65l118 -175h-80l-70 104l-70 -104h-80z" />
    <glyph glyph-name="udieresis" unicode="&#xfc;" horiz-adv-x="548" 
d="M111.5 43q-49.5 55 -49.5 166v281h80v-276q0 -148 111 -148q67 0 108 49.5t41 126.5v248h80v-490h-80v72q-21 -39 -63.5 -61.5t-90.5 -22.5q-87 0 -136.5 55zM145 594.5q-15 15.5 -15 36.5t15 36t36 15t36 -15t15 -36t-15 -36.5t-36 -15.5t-36 15.5zM327 594.5
q-15 15.5 -15 36.5t15 36t36 15t36 -15t15 -36t-15 -36.5t-36 -15.5t-36 15.5z" />
    <glyph glyph-name="yacute" unicode="&#xfd;" horiz-adv-x="496" 
d="M488 490l-312 -690h-85l114 256l-197 434h84l157 -341l156 341h83zM280 736h94l-88 -181h-78z" />
    <glyph glyph-name="thorn" unicode="&#xfe;" horiz-adv-x="589" 
d="M431 471q55 -31 87.5 -89.5t32.5 -136.5t-32.5 -136.5t-87.5 -89.5t-122 -31q-52 0 -94 20.5t-68 51.5v-260h-80v936h80v-304q28 31 71 50.5t91 19.5q67 0 122 -31zM388.5 87q37.5 23 60 64t22.5 94t-22.5 94t-60 64t-80.5 23q-75 0 -121 -51t-46 -130t46 -130t121 -51
q43 0 80.5 23z" />
    <glyph glyph-name="ydieresis" unicode="&#xff;" horiz-adv-x="496" 
d="M488 490l-312 -690h-85l114 256l-197 434h84l157 -341l156 341h83zM121 594.5q-15 15.5 -15 36.5t15 36t36 15t36 -15t15 -36t-15 -36.5t-36 -15.5t-36 15.5zM303 594.5q-15 15.5 -15 36.5t15 36t36 15t36 -15t15 -36t-15 -36.5t-36 -15.5t-36 15.5z" />
    <glyph glyph-name="dotlessi" unicode="&#x131;" horiz-adv-x="215" 
d="M68 490h79v-490h-79v490z" />
    <glyph glyph-name="Lslash" unicode="&#x141;" horiz-adv-x="568" 
d="M523 80v-80h-449v224l-42 -28l-44 66l86 57v381h82v-326l160 107l44 -66l-204 -136v-199h367z" />
    <glyph glyph-name="lslash" unicode="&#x142;" horiz-adv-x="214" 
d="M232 381l-85 -35v-346h-80v313l-85 -35v78l85 35v345h80v-312l85 35v-78z" />
    <glyph glyph-name="OE" unicode="&#x152;" horiz-adv-x="1136" 
d="M734 620v-220h334v-80h-334v-240h353v-80h-435v97q-50 -51 -116.5 -80t-141.5 -29q-98 0 -181 48.5t-131 132t-48 181.5t48 181.5t131 132t181 48.5q75 0 141.5 -29t116.5 -80v97h435v-80h-353zM552 118q70 50 100 131v202q-30 81 -100 131t-158 50q-76 0 -139.5 -38
t-100 -103t-36.5 -141t36.5 -141t100 -103t139.5 -38q88 0 158 50z" />
    <glyph glyph-name="oe" unicode="&#x153;" horiz-adv-x="969" 
d="M923 227h-385q5 -70 50 -116.5t114 -46.5q96 0 153 80l55 -57q-31 -42 -85 -70.5t-123 -28.5q-67 0 -120.5 29.5t-85.5 81.5q-34 -52 -88.5 -81.5t-120.5 -29.5q-71 0 -128 33.5t-89.5 92.5t-32.5 131t32.5 131t89.5 92.5t128 33.5q67 0 122 -30.5t89 -83.5
q34 53 88 83.5t116 30.5q65 0 116 -28.5t79.5 -79t28.5 -115.5q0 -34 -3 -52zM376.5 88.5q38.5 24.5 60 66t21.5 90.5q0 50 -21.5 91t-60 65.5t-89.5 24.5t-89.5 -24.5t-59.5 -65.5t-21 -91q0 -49 21 -90.5t59.5 -66t89.5 -24.5t89.5 24.5zM845 303q-9 60 -45 91.5t-98 31.5
q-56 0 -99 -33.5t-58 -89.5h300z" />
    <glyph glyph-name="Scaron" unicode="&#x160;" horiz-adv-x="528" 
d="M160 13.5q-48 25.5 -79 68t-40 91.5l74 32q11 -59 51 -98t99 -39q62 0 101 36t39 92q0 53 -35 88.5t-100 49.5q-113 25 -164.5 71.5t-51.5 122.5q0 49 26.5 91.5t73.5 67.5t104 25q72 0 125 -37t76 -107l-76 -31q-13 42 -46 68.5t-79 26.5q-54 0 -88 -29t-34 -75
q0 -37 31 -65t91 -42q115 -27 172 -81.5t57 -143.5q0 -96 -61 -152t-161 -56q-57 0 -105 25.5zM113 940h80l70 -104l70 104h80l-118 -175h-65z" />
    <glyph glyph-name="scaron" unicode="&#x161;" horiz-adv-x="429" 
d="M133 9q-39 21 -63 53t-33 67l72 30q12 -44 41.5 -69.5t71.5 -25.5q40 0 64 19.5t24 50.5t-23.5 49.5t-87.5 32.5q-72 15 -110 52.5t-38 93.5q0 38 20 70t57 51t85 19q62 0 102 -28t59 -76l-76 -31q-8 27 -30.5 43t-54.5 16q-36 0 -59 -17t-23 -45q0 -26 24.5 -43
t79.5 -29q78 -17 116.5 -54.5t38.5 -103.5q0 -42 -22 -75t-60.5 -52t-85.5 -19q-50 0 -89 21zM63 730h80l70 -104l70 104h80l-118 -175h-65z" />
    <glyph glyph-name="Ydieresis" unicode="&#x178;" horiz-adv-x="618" 
d="M350 248v-248h-82v247l-256 453h94l203 -375l203 375h94zM182 784.5q-15 15.5 -15 36.5t15 36t36 15t36 -15t15 -36t-15 -36.5t-36 -15.5t-36 15.5zM364 784.5q-15 15.5 -15 36.5t15 36t36 15t36 -15t15 -36t-15 -36.5t-36 -15.5t-36 15.5z" />
    <glyph glyph-name="Zcaron" unicode="&#x17d;" horiz-adv-x="581" 
d="M536 80v-80h-491v42l355 578h-355v80h471v-42l-353 -578h373zM121 940h80l70 -104l70 104h80l-118 -175h-65z" />
    <glyph glyph-name="zcaron" unicode="&#x17e;" horiz-adv-x="451" 
d="M38 48l258 366h-250v76h364v-48l-259 -366h261v-76h-374v48zM76 730h80l70 -104l70 104h80l-118 -175h-65z" />
    <glyph glyph-name="florin" unicode="&#x192;" horiz-adv-x="400" 
d="M259.5 646.5q-17.5 -23.5 -17.5 -61.5v-95h132v-76h-132v-414q0 -163 -141 -163q-24 0 -40.5 3t-33.5 10v76q16 -6 30.5 -8.5t36.5 -2.5q33 0 50.5 23.5t17.5 61.5v414h-66v76h66v95q0 163 141 163q24 0 40.5 -3t33.5 -10v-76q-16 6 -30.5 8.5t-36.5 2.5
q-33 0 -50.5 -23.5z" />
    <glyph glyph-name="circumflex" unicode="&#x2c6;" horiz-adv-x="400" 
d="M167 730h65l118 -175h-80l-70 104l-70 -104h-80z" />
    <glyph glyph-name="caron" unicode="&#x2c7;" horiz-adv-x="400" 
d="M50 730h80l70 -104l70 104h80l-118 -175h-65z" />
    <glyph glyph-name="uni02C9" unicode="&#x2c9;" horiz-adv-x="447" 
d="M50 607v73h347v-73h-347z" />
    <glyph glyph-name="breve" unicode="&#x2d8;" horiz-adv-x="403" 
d="M113 736q0 -43 25 -69t63 -26q39 0 64 26t25 69h63q0 -71 -41 -113.5t-111 -42.5q-68 0 -109.5 44.5t-41.5 111.5h63z" />
    <glyph glyph-name="dotaccent" unicode="&#x2d9;" horiz-adv-x="221" 
d="M71 617q-16 16 -16 40q0 23 16 39t40 16q23 0 39 -16t16 -39q0 -24 -16 -40t-39 -16q-24 0 -40 16z" />
    <glyph glyph-name="ring" unicode="&#x2da;" horiz-adv-x="320" 
d="M82 587q-32 32 -32 79t32 79t78 32t78 -32t32 -79t-32 -79t-78 -32t-78 32zM194 631.5q13 13.5 13 34.5t-13 34.5t-34 13.5t-34 -13.5t-13 -34.5t13 -34.5t34 -13.5t34 13.5z" />
    <glyph glyph-name="ogonek" unicode="&#x2db;" horiz-adv-x="251" 
d="M72.5 -163.5q-22.5 23.5 -22.5 58.5q0 37 25.5 71.5t75.5 73.5l37 -37q-44 -37 -59 -56.5t-15 -40.5q0 -13 7.5 -21t21.5 -8q17 0 33 11l25 -54q-15 -12 -31.5 -16.5t-39.5 -4.5q-35 0 -57.5 23.5z" />
    <glyph glyph-name="tilde" unicode="&#x2dc;" horiz-adv-x="408" 
d="M223 565.5q-20 10.5 -41 27.5q-11 8 -20.5 14t-16.5 6q-17 0 -26.5 -13.5t-9.5 -36.5h-59q0 55 29 81.5t69 26.5q22 0 40.5 -9.5t40.5 -26.5q3 -2 11 -8t13.5 -8.5t10.5 -2.5q35 0 35 47h59q0 -55 -27.5 -81.5t-63.5 -26.5q-24 0 -44 10.5z" />
    <glyph glyph-name="hungarumlaut" unicode="&#x2dd;" horiz-adv-x="406" 
d="M122 736h94l-88 -181h-78zM262 736h94l-88 -181h-78z" />
    <glyph glyph-name="gravecomb" unicode="&#x300;" horiz-adv-x="0" 
d="M-216 736h94l72 -181h-78z" />
    <glyph glyph-name="acutecomb" unicode="&#x301;" horiz-adv-x="0" 
d="M-144 736h94l-88 -181h-78z" />
    <glyph glyph-name="uni0302" unicode="&#x302;" horiz-adv-x="0" 
d="M-233 730h65l118 -175h-80l-70 104l-70 -104h-80z" />
    <glyph glyph-name="tildecomb" unicode="&#x303;" horiz-adv-x="0" 
d="M-185 565.5q-20 10.5 -41 27.5q-11 8 -20.5 14t-16.5 6q-17 0 -26.5 -13.5t-9.5 -36.5h-59q0 55 29 81.5t69 26.5q22 0 40.5 -9.5t40.5 -26.5q3 -2 11 -8t13.5 -8.5t10.5 -2.5q35 0 35 47h59q0 -55 -27.5 -81.5t-63.5 -26.5q-24 0 -44 10.5z" />
    <glyph glyph-name="uni0307" unicode="&#x307;" horiz-adv-x="0" 
d="M-144 617q-16 16 -16 40q0 23 16 39t40 16q23 0 39 -16t16 -39q0 -24 -16 -40t-39 -16q-24 0 -40 16z" />
    <glyph glyph-name="uni0308" unicode="&#x308;" horiz-adv-x="0" 
d="M-319 594.5q-15 15.5 -15 36.5t15 36t36 15t36 -15t15 -36t-15 -36.5t-36 -15.5t-36 15.5zM-137 594.5q-15 15.5 -15 36.5t15 36t36 15t36 -15t15 -36t-15 -36.5t-36 -15.5t-36 15.5z" />
    <glyph glyph-name="uni030A" unicode="&#x30a;" horiz-adv-x="0" 
d="M-238 587q-32 32 -32 79t32 79t78 32t78 -32t32 -79t-32 -79t-78 -32t-78 32zM-126 631.5q13 13.5 13 34.5t-13 34.5t-34 13.5t-34 -13.5t-13 -34.5t13 -34.5t34 -13.5t34 13.5z" />
    <glyph glyph-name="uni030C" unicode="&#x30c;" horiz-adv-x="0" 
d="M-350 730h80l70 -104l70 104h80l-118 -175h-65z" />
    <glyph glyph-name="uni0327" unicode="&#x327;" horiz-adv-x="0" 
d="M-69 -73q19 -22 19 -55q0 -36 -28 -60t-71 -24q-27 0 -46 8v50q18 -6 42 -6q18 0 31 9.5t13 25.5q0 13 -9.5 21.5t-22.5 8.5q-18 0 -32 -7l-35 35l51 67h75l-37 -48q31 -3 50 -25z" />
    <glyph glyph-name="pi" unicode="&#x3c0;" horiz-adv-x="627" 
d="M474 414v-258q0 -41 15 -59.5t56 -18.5v-78h-9q-73 0 -107.5 37t-34.5 114v263h-163v-414h-80v414h-101v76h527v-76h-103z" />
    <glyph glyph-name="uni1E9E" unicode="&#x1e9e;" horiz-adv-x="571" 
d="M480 356.5q56 -51.5 56 -152.5q0 -60 -26 -106.5t-71.5 -72t-100.5 -25.5q-67 0 -116 17v80q36 -9 58.5 -13t52.5 -4q48 0 83.5 32.5t35.5 91.5q0 62 -41 98t-100 36h-69v73l151 209h-237v-620h-82v700h423v-74l-159 -213q86 -5 142 -56.5z" />
    <glyph glyph-name="endash" unicode="&#x2013;" horiz-adv-x="657" 
d="M607 344v-78h-557v78h557z" />
    <glyph glyph-name="emdash" unicode="&#x2014;" horiz-adv-x="935" 
d="M885 344v-78h-835v78h835z" />
    <glyph glyph-name="quoteleft" unicode="&#x2018;" horiz-adv-x="223" 
d="M128 555h-87l67 181h76z" />
    <glyph glyph-name="quoteright" unicode="&#x2019;" horiz-adv-x="223" 
d="M95 736h87l-67 -181h-76z" />
    <glyph glyph-name="quotesinglbase" unicode="&#x201a;" horiz-adv-x="223" 
d="M128 -78h-87l67 181h76z" />
    <glyph glyph-name="quotedblleft" unicode="&#x201c;" horiz-adv-x="373" 
d="M128 555h-87l67 181h76zM278 555h-87l67 181h76z" />
    <glyph glyph-name="quotedblright" unicode="&#x201d;" horiz-adv-x="373" 
d="M95 736h87l-67 -181h-76zM245 736h87l-67 -181h-76z" />
    <glyph glyph-name="quotedblbase" unicode="&#x201e;" horiz-adv-x="373" 
d="M95 103h87l-67 -181h-76zM245 103h87l-67 -181h-76z" />
    <glyph glyph-name="dagger" unicode="&#x2020;" horiz-adv-x="438" 
d="M388 507h-128v-364h-82v364h-128v78h128v151h82v-151h128v-78z" />
    <glyph glyph-name="daggerdbl" unicode="&#x2021;" horiz-adv-x="438" 
d="M260 507v-135h128v-78h-128v-151h-82v151h-128v78h128v135h-128v78h128v151h82v-151h128v-78h-128z" />
    <glyph glyph-name="bullet" unicode="&#x2022;" horiz-adv-x="244" 
d="M67.5 275.5q-22.5 22.5 -22.5 54.5t22.5 54.5t54.5 22.5t54.5 -22.5t22.5 -54.5t-22.5 -54.5t-54.5 -22.5t-54.5 22.5z" />
    <glyph glyph-name="ellipsis" unicode="&#x2026;" horiz-adv-x="546" 
d="M403 5.5q-17 17.5 -17 40.5q0 24 17 41t41 17q23 0 40.5 -17t17.5 -41q0 -23 -17.5 -40.5t-40.5 -17.5q-24 0 -41 17.5zM232 5.5q-17 17.5 -17 40.5q0 24 17 41t41 17q23 0 40.5 -17t17.5 -41q0 -23 -17.5 -40.5t-40.5 -17.5q-24 0 -41 17.5zM61 5.5q-17 17.5 -17 40.5
q0 24 17 41t41 17q23 0 40.5 -17t17.5 -41q0 -23 -17.5 -40.5t-40.5 -17.5q-24 0 -41 17.5z" />
    <glyph glyph-name="perthousand" unicode="&#x2030;" horiz-adv-x="1006" 
d="M113.5 442q-32.5 19 -51 52t-18.5 73q0 41 18.5 74t51 52t71.5 19q61 0 101.5 -41.5t40.5 -103.5t-40.5 -103t-101.5 -41q-39 0 -71.5 19zM239.5 511q21.5 23 21.5 56t-21.5 56t-54.5 23t-54 -22.5t-21 -56.5q0 -33 21 -56t54 -23t54.5 23zM63 131l492 492l54 -54
l-492 -492zM414.5 7q-32.5 19 -51 52t-18.5 73q0 41 18.5 74t51 52t71.5 19q61 0 101.5 -41.5t40.5 -103.5t-40.5 -103t-101.5 -41q-39 0 -71.5 19zM748.5 7q-32.5 19 -51 52t-18.5 73q0 41 18.5 74t51 52t71.5 19q61 0 101.5 -41.5t40.5 -103.5t-40.5 -103t-101.5 -41
q-39 0 -71.5 19zM540.5 76q21.5 23 21.5 56t-21.5 56t-54.5 23t-54 -22.5t-21 -56.5q0 -33 21 -56t54 -23t54.5 23zM874.5 76q21.5 23 21.5 56t-21.5 56t-54.5 23t-54 -22.5t-21 -56.5q0 -33 21 -56t54 -23t54.5 23z" />
    <glyph glyph-name="guilsinglleft" unicode="&#x2039;" horiz-adv-x="349" 
d="M30 305l229 237l53 -53l-183 -184l183 -184l-53 -53z" />
    <glyph glyph-name="guilsinglright" unicode="&#x203a;" horiz-adv-x="349" 
d="M37 121l183 184l-183 184l53 53l229 -237l-229 -237z" />
    <glyph glyph-name="fraction" unicode="&#x2044;" horiz-adv-x="612" 
d="M50 41l453 670l59 -40l-453 -670z" />
    <glyph glyph-name="Euro" unicode="&#x20ac;" horiz-adv-x="641" 
d="M603 113v-94q-67 -31 -148 -31q-78 0 -148.5 32t-121.5 89.5t-74 133.5h-78l32 78h32q-1 10 -1 29t1 28h-64l32 78h46q22 75 73.5 133.5t122 90.5t148.5 32q81 0 147 -32l-31 -73q-51 24 -115 24q-84 0 -154.5 -48t-101.5 -127h307l-33 -78h-293q-1 -9 -1 -28
q0 -20 1 -29h269l-33 -78h-217q31 -79 101.5 -126.5t154.5 -47.5t147 44z" />
    <glyph glyph-name="uni2113" unicode="&#x2113;" horiz-adv-x="479" 
d="M424 90q-30 -41 -79 -71.5t-101 -30.5q-91 0 -145 75.5t-54 237.5q0 129 24.5 230.5t71.5 159t113 57.5q65 0 102.5 -49t37.5 -128q0 -263 -258 -390q26 -117 108 -117q35 0 69 22.5t59 57.5zM188 623.5q-29 -48.5 -46 -133.5t-17 -189q0 -27 1 -40q79 46 133.5 126
t54.5 184q0 44 -16 72.5t-47 28.5q-34 0 -63 -48.5z" />
    <glyph glyph-name="trademark" unicode="&#x2122;" horiz-adv-x="726" 
d="M138 642h-108v58h275v-58h-108v-285h-59v285zM355 700h48l123 -185l122 185h48v-343h-59v227l-88 -137h-43l-92 139v-229h-59v343z" />
    <glyph glyph-name="uni2126" unicode="&#x2126;" horiz-adv-x="768" 
d="M683 189.5q-51 -72.5 -130 -114.5h147v-75h-264v96q89 33 151.5 103.5t62.5 166.5q0 77 -36 138t-97 94.5t-133 33.5t-133 -33.5t-97 -94.5t-36 -138q0 -96 62.5 -166.5t151.5 -103.5v-96h-264v75h142q-77 42 -126.5 115t-49.5 176q0 99 47.5 178t127.5 123.5t175 44.5
t175 -44.5t127.5 -123.5t47.5 -178q0 -104 -51 -176.5z" />
    <glyph glyph-name="estimated" unicode="&#x212e;" horiz-adv-x="822" 
d="M591.5 663.5q82.5 -48.5 131.5 -132t49 -181.5v-10h-615v-205q46 -57 112 -89t142 -32q68 0 129 26.5t107 74.5l19 -20q-49 -51 -115 -79t-140 -28q-98 0 -181 48.5t-131.5 132t-48.5 181.5t48.5 181.5t131.5 132t181 48.5t180.5 -48.5zM157 375h508v190q-46 57 -112 89
t-142 32t-142 -32t-112 -89v-190z" />
    <glyph glyph-name="arrowleft" unicode="&#x2190;" horiz-adv-x="792" 
d="M40 350l336 341l54 -54l-243 -245h555v-84h-555l243 -245l-54 -54z" />
    <glyph glyph-name="arrowup" unicode="&#x2191;" horiz-adv-x="772" 
d="M344 553l-245 -243l-54 54l341 336l341 -336l-54 -54l-245 243v-553h-84v553z" />
    <glyph glyph-name="arrowright" unicode="&#x2192;" horiz-adv-x="792" 
d="M362 63l243 245h-555v84h555l-243 245l54 54l336 -341l-336 -341z" />
    <glyph glyph-name="arrowdown" unicode="&#x2193;" horiz-adv-x="772" 
d="M45 336l54 54l245 -243v553h84v-553l245 243l54 -54l-341 -336z" />
    <glyph glyph-name="uni2196" unicode="&#x2196;" horiz-adv-x="628" 
d="M131 478v-346h-76v482h482v-76h-345l391 -392l-58 -60z" />
    <glyph glyph-name="uni2197" unicode="&#x2197;" horiz-adv-x="628" 
d="M45 145l391 394h-345v76h482v-482h-76v346l-394 -394z" />
    <glyph glyph-name="uni2198" unicode="&#x2198;" horiz-adv-x="628" 
d="M91 161h345l-391 394l58 60l394 -394v346h76v-482h-482v76z" />
    <glyph glyph-name="uni2199" unicode="&#x2199;" horiz-adv-x="628" 
d="M55 568h76v-346l394 392l58 -60l-391 -392h345v-76h-482v482z" />
    <glyph glyph-name="partialdiff" unicode="&#x2202;" horiz-adv-x="573" 
d="M452.5 558.5q83.5 -116.5 83.5 -265.5q0 -111 -42.5 -179.5t-101.5 -97t-113 -28.5q-67 0 -122 31t-87.5 89.5t-32.5 136.5t32.5 136.5t87.5 89.5t122 31q46 0 84 -16.5t66 -42.5q-31 70 -87 129t-148 105l35 69q140 -71 223.5 -187.5zM367 89.5q38 25.5 59 69.5t21 96
q0 78 -45.5 124.5t-121.5 46.5q-43 0 -80.5 -23t-60 -64t-22.5 -94t22.5 -94t60 -64t80.5 -23q49 0 87 25.5z" />
    <glyph glyph-name="uni2206" unicode="&#x2206;" horiz-adv-x="698" 
d="M28 44l295 656h52l295 -656v-44h-642v44zM567 80l-218 486l-218 -486h436z" />
    <glyph glyph-name="product" unicode="&#x220f;" horiz-adv-x="757" 
d="M719 620h-122v-620h-82v620h-273v-620h-82v620h-122v80h681v-80z" />
    <glyph glyph-name="summation" unicode="&#x2211;" horiz-adv-x="572" 
d="M38 44l293 316l-293 296v44h496v-80h-359l240 -233v-48l-241 -259h360v-80h-496v44z" />
    <glyph glyph-name="minus" unicode="&#x2212;" horiz-adv-x="570" 
d="M510 335v-80h-450v80h450z" />
    <glyph glyph-name="uni2215" unicode="&#x2215;" horiz-adv-x="471" 
d="M317 700h88l-311 -700h-88z" />
    <glyph glyph-name="uni2219" unicode="&#x2219;" horiz-adv-x="340" 
d="M80.5 265.5q-36.5 36.5 -36.5 89.5q0 52 36.5 89t89.5 37q34 0 63 -17t46 -46t17 -63q0 -53 -37 -89.5t-89 -36.5q-53 0 -89.5 36.5z" />
    <glyph glyph-name="radical" unicode="&#x221a;" horiz-adv-x="642" 
d="M8 304h84l81 -181l256 577h185v-76h-131l-283 -624h-54z" />
    <glyph glyph-name="infinity" unicode="&#x221e;" horiz-adv-x="658" 
d="M577.5 434.5q40.5 -47.5 40.5 -119.5t-40.5 -119.5t-107.5 -47.5q-50 0 -82.5 24.5t-58.5 67.5q-25 -43 -57.5 -67.5t-82.5 -24.5q-39 0 -73.5 22t-55 60.5t-20.5 84.5t20.5 84.5t55 60.5t73.5 22q50 0 82.5 -24.5t57.5 -67.5q26 43 58.5 67.5t82.5 24.5
q67 0 107.5 -47.5zM246 249q23 23 45 66q-22 43 -45 66t-57 23q-32 0 -54 -25t-22 -64t22 -64t54 -25q34 0 57 23zM523.5 250.5q21.5 24.5 21.5 64.5t-21.5 64.5t-53.5 24.5q-34 0 -57 -23t-45 -66q22 -43 45 -66t57 -23q32 0 53.5 24.5z" />
    <glyph glyph-name="integral" unicode="&#x222b;" horiz-adv-x="380" 
d="M198 -124.5q-34 -38.5 -97 -38.5q-24 0 -40.5 3t-33.5 10v76q16 -6 30.5 -8.5t36.5 -2.5q26 0 42 21.5t16 56.5v599q0 79 34 117.5t97 38.5q24 0 40.5 -3t33.5 -10v-76q-16 6 -30.5 8.5t-36.5 2.5q-26 0 -42 -21.5t-16 -56.5v-599q0 -79 -34 -117.5z" />
    <glyph glyph-name="approxequal" unicode="&#x2248;" horiz-adv-x="604" 
d="M338 346.5q-32 17.5 -63 54.5q-28 33 -42 45t-37 12q-68 0 -68 -101h-76q0 62 20.5 104t53 61.5t70.5 19.5q37 0 69.5 -17.5t63.5 -54.5q28 -33 42 -45t37 -12q68 0 68 101h76q0 -62 -20.5 -104t-53 -61.5t-70.5 -19.5t-70 17.5zM338 136.5q-32 17.5 -63 54.5
q-28 33 -42 45t-37 12q-68 0 -68 -101h-76q0 62 20.5 104t53 61.5t70.5 19.5q37 0 69.5 -17.5t63.5 -54.5q28 -33 42 -45t37 -12q68 0 68 101h76q0 -62 -20.5 -104t-53 -61.5t-70.5 -19.5t-70 17.5z" />
    <glyph glyph-name="notequal" unicode="&#x2260;" horiz-adv-x="590" 
d="M372 357l-65 -125h233v-79h-275l-65 -125h-89l65 125h-126v79h168l65 125h-233v79h275l65 125h89l-65 -125h126v-79h-168z" />
    <glyph glyph-name="lessequal" unicode="&#x2264;" horiz-adv-x="544" 
d="M416 198l-182 182l182 183l-53 53l-236 -236l232 -239zM489 80h-434v-80h434v80z" />
    <glyph glyph-name="greaterequal" unicode="&#x2265;" horiz-adv-x="544" 
d="M128 198l182 182l-182 183l53 53l236 -236l-232 -239zM55 80h434v-80h-434v80z" />
    <glyph glyph-name="lozenge" unicode="&#x25ca;" horiz-adv-x="559" 
d="M519 350l-217 -350h-45l-217 350l217 350h45zM130 350l150 -243l149 243l-149 243z" />
    <glyph glyph-name="W.ss02" horiz-adv-x="1004" 
d="M994 700l-294 -700h-51l-147 352l-148 -352h-50l-294 700h86l234 -565l129 303l-109 262h87l66 -164l64 164h85l-105 -251l128 -311l232 562h87z" />
    <glyph glyph-name="M.ss03" horiz-adv-x="830" 
d="M74 700h76l265 -398l266 398h75v-700h-82v547l-231 -346h-56l-231 348v-549h-82v700z" />
    <glyph glyph-name="B_A_T_H.icon" horiz-adv-x="888" 
d="M797.5 738q40.5 -53 40.5 -154v-282q0 -82 -30.5 -140.5t-88.5 -89.5v-72h-61v50q-40 -8 -81 -8h-275q-16 0 -44 2l-44 -44h-77l64 65q-34 15 -65.5 59.5t-81.5 161.5q-4 12 -4 21q0 16 13 30t32 14h683v233q0 77 -24 111.5t-76 34.5q-35 0 -66 -24t-62 -76l71 -33
l-26 -54l-191 87l24 54l66 -29q41 69 86 102.5t98 33.5q79 0 119.5 -53zM724.5 149.5q50.5 47.5 53.5 141.5h-659q42 -90 67 -128t49 -49.5t67 -11.5h275q97 0 147.5 47.5z" />
    <glyph glyph-name="B_E_D.icon" horiz-adv-x="963" 
d="M889 634v-204h-60v145h-695v-145h-60v204h815zM877 326q12 -12 12 -29v-297h-60v279h-695v-279h-60v297q0 17 12 29q13 13 29 13h48v151q0 14 13 29q11 12 29 12h216q9 0 15.5 -3t13.5 -9q13 -12 13 -29v-151h37v151q0 14 13 29q11 12 29 12h216q16 0 29 -12t13 -29v-151
h48q16 0 29 -13zM223 339h180v133h-180v-133zM560 339h180v133h-180v-133z" />
    <glyph glyph-name="B_A_T_H.mid" horiz-adv-x="1296" 
d="M74 512h106q41 0 69.5 -24t28.5 -61q0 -24 -10.5 -43t-31.5 -29q25 -9 38 -28.5t13 -46.5q0 -40 -28.5 -66t-68.5 -26h-116v324zM472 512h30l147 -324h-52l-31 70h-158l-31 -70h-53zM731 464h-105v48h257v-48h-104v-276h-48v276zM943 512h48v-134h182v134h49v-324h-49
v142h-182v-142h-48v324zM165 374q31 0 47 14t16 36q0 19 -14.5 32.5t-38.5 13.5h-53v-96h43zM545 302l-59 133l-59 -133h118zM168 231q64 0 64 49q0 21 -14.5 35t-39.5 14h-56v-98h46z" />
    <glyph glyph-name="B_A_T_H_S.mid" horiz-adv-x="1564" 
d="M1347 206.5q-31 24.5 -37 62.5l44 15q4 -21 21 -37t41 -16q27 0 42 12.5t15 33.5q0 41 -70 58q-42 10 -65.5 33.5t-23.5 60.5q0 41 30 65.5t68 24.5q35 0 61 -16.5t38 -49.5l-43 -19q-6 17 -22 26.5t-34 9.5q-21 0 -35 -11t-14 -29q0 -16 15 -28t51 -22q48 -14 71 -40
t23 -61q0 -46 -30 -71.5t-76 -25.5q-39 0 -70 24.5zM74 512h106q41 0 69.5 -24t28.5 -61q0 -24 -10.5 -43t-31.5 -29q25 -9 38 -28.5t13 -46.5q0 -40 -28.5 -66t-68.5 -26h-116v324zM472 512h30l147 -324h-52l-31 70h-158l-31 -70h-53zM731 464h-105v48h257v-48h-104v-276
h-48v276zM943 512h48v-134h182v134h49v-324h-49v142h-182v-142h-48v324zM165 374q31 0 47 14t16 36q0 19 -14.5 32.5t-38.5 13.5h-53v-96h43zM545 302l-59 133l-59 -133h118zM168 231q64 0 64 49q0 21 -14.5 35t-39.5 14h-56v-98h46z" />
    <glyph glyph-name="B_E_D.mid" horiz-adv-x="926" 
d="M74 511h106q41 0 69.5 -24t28.5 -61q0 -24 -10.5 -43t-31.5 -29q25 -9 38 -28.5t13 -46.5q0 -40 -28.5 -66t-68.5 -26h-116v324zM359 511h200v-48h-152v-86h132v-48h-132v-94h152v-48h-200v324zM629 511h95q46 0 84.5 -21t61 -58t22.5 -81q0 -45 -22.5 -82.5t-61 -59.5
t-84.5 -22h-95v324zM165 373q31 0 47 14t16 36q0 19 -14.5 32.5t-38.5 13.5h-53v-96h43zM724 231q50 0 84.5 35t34.5 85q0 47 -35 80.5t-84 33.5h-47v-234h47zM168 230q64 0 64 49q0 21 -14.5 35t-39.5 14h-56v-98h46z" />
    <glyph glyph-name="B_E_D_S.mid" horiz-adv-x="1213" 
d="M996 206.5q-31 24.5 -37 62.5l44 15q4 -21 21 -37t41 -16q27 0 42 12.5t15 33.5q0 41 -70 58q-42 10 -65.5 33.5t-23.5 60.5q0 41 30 65.5t68 24.5q35 0 61 -16.5t38 -49.5l-43 -19q-6 17 -22 26.5t-34 9.5q-21 0 -35 -11t-14 -29q0 -16 15 -28t51 -22q48 -14 71 -40
t23 -61q0 -46 -30 -71.5t-76 -25.5q-39 0 -70 24.5zM74 511h106q41 0 69.5 -24t28.5 -61q0 -24 -10.5 -43t-31.5 -29q25 -9 38 -28.5t13 -46.5q0 -40 -28.5 -66t-68.5 -26h-116v324zM359 511h200v-48h-152v-86h132v-48h-132v-94h152v-48h-200v324zM629 511h95q46 0 84.5 -21
t61 -58t22.5 -81q0 -45 -22.5 -82.5t-61 -59.5t-84.5 -22h-95v324zM165 373q31 0 47 14t16 36q0 19 -14.5 32.5t-38.5 13.5h-53v-96h43zM724 231q50 0 84.5 35t34.5 85q0 47 -35 80.5t-84 33.5h-47v-234h47zM168 230q64 0 64 49q0 21 -14.5 35t-39.5 14h-56v-98h46z" />
    <glyph glyph-name="M_I_N.sub" horiz-adv-x="931" 
d="M74 324h44l115 -173l116 173h44v-324h-50v233l-94 -141h-32l-94 141v-233h-49v324zM467 324h49v-324h-49v324zM591 324h38l179 -226v226h49v-324h-36l-182 230v-230h-48v324z" />
    <glyph glyph-name="A_C_R_E_S.sup" horiz-adv-x="718" 
d="M468 395q-38 22 -59.5 60t-21.5 83t21.5 83t59.5 60t84 22q37 0 69 -16t56 -45l-36 -34q-37 49 -89 49q-49 0 -82 -34.5t-33 -84.5t33 -84t82 -34q53 0 90 48l36 -34q-24 -29 -56.5 -45t-69.5 -16q-46 0 -84 22zM188 700h30l147 -324h-52l-31 70h-158l-31 -70h-53z
M262 490l-59 133l-59 -133h118z" />
    <glyph glyph-name="F_E_E_T.sup" horiz-adv-x="1226" 
d="M74 700h225v-49h-176v-85h168v-48h-168v-141h-49v323zM357 700h225v-49h-176v-85h168v-48h-168v-92h176v-49h-225v323zM641 700h225v-49h-176v-85h168v-48h-168v-92h176v-49h-225v323zM1029 652h-115v48h278v-48h-115v-275h-48v275z" />
    <glyph glyph-name="M_A_X.sup" horiz-adv-x="1162" 
d="M349 700h44v-324h-50v232l-94 -140h-32l-94 141v-233h-49v324h44l115 -173zM608 700l147 -324h-52l-31 70h-158l-31 -70h-53l148 324h30zM951 538l119 -162h-55l-92 125l-92 -125h-55l120 162l-120 162h55l92 -125l92 125h55zM652 490l-59 133l-59 -133h118z" />
    <glyph glyph-name="P_E_R_M_O_N_T_H.sup" horiz-adv-x="1028" 
d="M731 393.5q-38 22.5 -60 61t-22 84.5t22 84t60 60.5t84 22.5t84.5 -22.5t61 -60.5t22.5 -84t-22.5 -84.5t-61 -61t-84.5 -22.5t-84 22.5zM119 700h54l-84 -324h-54zM263 700h44l115 -173l117 173h43v-324h-49v232l-95 -141h-33l-94 144v-235h-48v324zM899 452
q35 36 35 87q0 49 -35 84.5t-84 35.5q-48 0 -82 -35t-34 -85q0 -51 34 -87t82 -36q49 0 84 36z" />
    <glyph glyph-name="P_E_R_S_Q_F_T.sup" horiz-adv-x="1483" 
d="M763 686q39 -23 61.5 -62t22.5 -85q0 -66 -46 -115l30 -29l-30 -30l-33 32q-42 -26 -89 -26q-46 0 -84.5 23t-61.5 61.5t-23 83.5q0 46 23 85t61.5 62t84.5 23q45 0 84 -23zM429 529.5q23 -26.5 23 -61.5q0 -46 -30 -71.5t-76 -25.5q-39 0 -70 24.5t-37 62.5l44 15
q4 -21 21 -37t41 -16q27 0 42 12.5t15 33.5q0 19 -16 33t-54 25q-89 25 -89 94q0 41 30 65.5t68 24.5q35 0 61 -16.5t38 -49.5l-43 -19q-6 17 -22 26.5t-34 9.5q-21 0 -35 -11t-14 -29q0 -17 15 -29t51 -21q48 -13 71 -39.5zM119 700h54l-84 -324h-54zM919 700h225v-49h-176
v-85h168v-48h-168v-141h-49v323zM1475 700v-48h-115v-275h-48v275h-115v48h278zM733 432l-30 30l29 31l34 -34q14 16 22.5 37t8.5 43q0 50 -34.5 85.5t-83.5 35.5t-83.5 -35.5t-34.5 -85.5q0 -49 34.5 -84.5t83.5 -35.5q28 0 54 13z" />
    <glyph glyph-name="S_Q_F_T.sup" horiz-adv-x="1316" 
d="M569 686q39 -23 61.5 -62t22.5 -85q0 -66 -46 -115l30 -29l-30 -30l-33 32q-42 -26 -89 -26q-46 0 -84.5 23t-61.5 61.5t-23 83.5q0 46 23 85t61.5 62t84.5 23q45 0 84 -23zM235 529.5q23 -26.5 23 -61.5q0 -46 -30 -71.5t-76 -25.5q-39 0 -70 24.5t-37 62.5l44 15
q4 -21 21 -37t41 -16q27 0 42 12.5t15 33.5q0 19 -16 33t-54 25q-89 25 -89 94q0 41 30 65.5t68 24.5q35 0 61 -16.5t38 -49.5l-43 -19q-6 17 -22 26.5t-34 9.5q-21 0 -35 -11t-14 -29q0 -17 15 -29t51 -21q48 -13 71 -39.5zM725 700h225v-49h-176v-85h168v-48h-168v-141
h-49v323zM1281 700v-48h-115v-275h-48v275h-115v48h278zM539 432l-30 30l29 31l34 -34q14 16 22.5 37t8.5 43q0 50 -34.5 85.5t-83.5 35.5t-83.5 -35.5t-34.5 -85.5q0 -49 34.5 -84.5t83.5 -35.5q28 0 54 13z" />
    <glyph glyph-name="zero.osf" horiz-adv-x="539" 
d="M159.5 16.5q-47.5 28.5 -73.5 77.5t-26 110v222q0 61 26 110t73.5 77.5t109.5 28.5q96 0 153 -59t57 -157v-222q0 -98 -57 -157t-153 -59q-62 0 -109.5 28.5zM361 104q36 38 36 100v222q0 62 -36 100t-92 38q-55 0 -91 -38t-36 -100v-222q0 -62 36 -100t91 -38
q56 0 92 38z" />
    <glyph glyph-name="one.osf" horiz-adv-x="344" 
d="M264 630v-630h-81v509l-95 -67l-46 67l174 121h48z" />
    <glyph glyph-name="two.osf" horiz-adv-x="509" 
d="M463 80v-80h-414v63q0 61 43.5 118t129.5 108q78 47 113.5 82.5t35.5 80.5q0 50 -32.5 80t-89.5 30q-100 0 -130 -105l-73 30q20 72 75.5 113.5t127.5 41.5q60 0 106.5 -25t72 -68.5t25.5 -96.5t-22.5 -91t-58 -65t-96.5 -63q-68 -40 -100 -74.5t-39 -78.5h326z" />
    <glyph glyph-name="three.osf" horiz-adv-x="542" 
d="M441 298q53 -57 53 -154q0 -67 -32.5 -118t-86 -79t-114.5 -28q-75 0 -137 39.5t-87 114.5l71 29q19 -53 58 -79t95 -26q40 0 75 18.5t55.5 52t20.5 76.5q0 71 -45.5 112.5t-132.5 41.5h-41v42l160 210h-292v80h400v-53l-158 -211q85 -11 138 -68z" />
    <glyph glyph-name="four.osf" horiz-adv-x="586" 
d="M556 79h-134v-149h-82v149h-313v65l324 486h71v-471h134v-80zM340 159v310l-213 -310h213z" />
    <glyph glyph-name="five.osf" horiz-adv-x="516" 
d="M373 345.5q50 -26.5 79.5 -77t29.5 -118.5q0 -70 -30 -122.5t-82.5 -81t-116.5 -28.5q-69 0 -128 40t-91 119l76 31q14 -51 54.5 -81.5t88.5 -30.5q69 0 109 44t40 110q0 61 -41.5 101.5t-108.5 40.5q-37 0 -71.5 -15t-60.5 -38l-49 33l62 358h314v-78h-249l-37 -203
q43 23 103 23q59 0 109 -26.5z" />
    <glyph glyph-name="six.osf" horiz-adv-x="575" 
d="M416.5 438q54.5 -31 84.5 -85.5t30 -123.5q0 -66 -31.5 -121t-87.5 -87.5t-125 -32.5q-68 0 -124 34t-87.5 89.5t-31.5 117.5q0 43 16 89.5t56 113.5l161 268h92l-147 -245q33 14 70 14q70 0 124.5 -31zM370 87q37 23 57.5 61t20.5 81q0 46 -20.5 83.5t-57 59t-83.5 21.5
q-74 0 -117 -46.5t-43 -117.5q0 -43 20.5 -81t57 -61t82.5 -23t83 23z" />
    <glyph glyph-name="seven.osf" horiz-adv-x="461" 
d="M439 630v-64q-99 -125 -143 -253.5t-44 -266.5v-116h-88v116q0 133 41 264.5t118 238.5h-296v81h412z" />
    <glyph glyph-name="eight.osf" horiz-adv-x="532" 
d="M457 294q29 -45 29 -101q0 -59 -29 -105.5t-79 -73t-112 -26.5t-112 26.5t-79 73t-29 105.5q0 56 28.5 101t75.5 73q-39 24 -60.5 63t-21.5 89q0 51 25.5 95.5t71 71t101.5 26.5t101 -26.5t70.5 -71t25.5 -95.5q0 -50 -21.5 -89t-60.5 -63q47 -28 76 -73zM184.5 600
q-30.5 -34 -30.5 -81t32 -80t80 -33q47 0 79 33.5t32 79.5q0 47 -30.5 81t-80.5 34q-51 0 -81.5 -34zM336.5 84q31.5 18 49 47.5t17.5 63.5q0 41 -20 71.5t-51.5 47t-65.5 16.5t-65.5 -16.5t-51.5 -47t-20 -71.5q0 -34 17.5 -63.5t49 -47.5t70.5 -18t70.5 18z" />
    <glyph glyph-name="nine.osf" horiz-adv-x="575" 
d="M412 608q56 -34 87.5 -89.5t31.5 -117.5q0 -43 -16 -89.5t-56 -113.5l-161 -268h-92l147 245q-33 -14 -70 -14q-70 0 -124.5 31t-84.5 85.5t-30 123.5q0 66 31.5 121t87.5 87.5t125 32.5q68 0 124 -34zM405 283.5q43 46.5 43 117.5q0 43 -20.5 81t-57 61t-82.5 23
t-83 -23t-57.5 -61t-20.5 -81q0 -46 20.5 -83.5t57 -59t83.5 -21.5q74 0 117 46.5z" />
    <glyph glyph-name="zero.ss01" horiz-adv-x="559" 
d="M169.5 16.5q-47.5 28.5 -73.5 77.5t-26 110v222q0 61 26 110t73.5 77.5t109.5 28.5q96 0 153 -59t57 -157v-222q0 -98 -57 -157t-153 -59q-62 0 -109.5 28.5zM371 104q36 38 36 100v222q0 62 -36 100t-92 38q-55 0 -91 -38t-36 -100v-222q0 -62 36 -100t91 -38
q56 0 92 38z" />
    <glyph glyph-name="one.ss01" horiz-adv-x="320" 
d="M250 630v-630h-81v509l-95 -67l-46 67l174 121h48z" />
    <glyph glyph-name="two.ss01" horiz-adv-x="513" 
d="M465 81v-81h-414v64q0 60 44 117t129 108q78 47 113.5 82.5t35.5 80.5q0 46 -33.5 77.5t-88.5 31.5q-102 0 -130 -104l-73 30q20 72 75.5 113.5t127.5 41.5q59 0 105.5 -25t72.5 -68.5t26 -96.5t-22.5 -91t-58 -65t-96.5 -63q-69 -41 -100.5 -74t-38.5 -78h326z" />
    <glyph glyph-name="three.ss01" horiz-adv-x="506" 
d="M415.5 329.5q44.5 -50.5 44.5 -132.5q0 -58 -28 -106t-75.5 -75.5t-102.5 -27.5q-71 0 -127.5 42.5t-76.5 111.5l73 30q11 -47 47.5 -77t83.5 -30q52 0 88 36.5t36 95.5q0 55 -38 93t-110 38h-41v43l136 181h-260v78h366v-52l-137 -185q77 -13 121.5 -63.5z" />
    <glyph glyph-name="four.ss01" horiz-adv-x="549" 
d="M519 133h-125v-133h-81v133h-280v66l279 431h82v-417h125v-80zM135 213h178v276z" />
    <glyph glyph-name="five.ss01" horiz-adv-x="481" 
d="M344 382q46 -25 74.5 -72.5t28.5 -112.5q0 -62 -27.5 -109.5t-75 -73.5t-107.5 -26q-72 0 -125.5 40.5t-77.5 108.5l74 30q16 -48 52 -74.5t77 -26.5q57 0 93.5 37.5t36.5 93.5q0 55 -37 92.5t-99 37.5q-30 0 -64 -16t-61 -40l-48 32l61 327h274v-78h-210l-35 -170
q44 25 99 25q51 0 97 -25z" />
    <glyph glyph-name="six.ss01" horiz-adv-x="527" 
d="M380 397.5q48 -28.5 75.5 -78.5t27.5 -112q0 -61 -29 -111t-79 -79t-112 -29q-60 0 -110.5 30.5t-79.5 81t-29 107.5q0 39 13.5 81t50.5 103l144 239h90l-130 -215q30 11 60 11q60 0 108 -28.5zM335.5 83.5q31.5 19.5 48.5 52t17 71.5q0 61 -38 102t-100 41t-99.5 -41
t-37.5 -102q0 -39 17.5 -71.5t48.5 -52t71 -19.5q41 0 72.5 19.5z" />
    <glyph glyph-name="seven.ss01" horiz-adv-x="441" 
d="M419 630v-63q-76 -88 -119 -169.5t-60.5 -165.5t-17.5 -186v-46h-88v46q0 151 41.5 274t125.5 229h-274v81h392z" />
    <glyph glyph-name="eight.ss01" horiz-adv-x="490" 
d="M421.5 270q22.5 -40 22.5 -92q0 -56 -25.5 -99t-71 -67t-102.5 -24t-102.5 24t-71 67t-25.5 99q0 49 23 89t62 66q-31 23 -48 57.5t-17 76.5q0 46 22 86t63 64.5t94 24.5q50 0 91 -23.5t64.5 -63.5t23.5 -88q0 -41 -16.5 -75t-46.5 -58q38 -24 60.5 -64zM172 535.5
q-25 -28.5 -25 -68.5q0 -39 28 -67.5t70 -28.5t70 28.5t28 67.5q0 38 -28 67.5t-70 29.5q-48 0 -73 -28.5zM330.5 97q32.5 31 32.5 81q0 32 -16.5 58.5t-43.5 41.5t-58 15q-30 0 -57.5 -15t-44 -41.5t-16.5 -58.5q0 -50 32.5 -81t85.5 -31t85.5 31z" />
    <glyph glyph-name="nine.ss01" horiz-adv-x="527" 
d="M147 232.5q-48 28.5 -75.5 78.5t-27.5 112q0 61 29 111t79 79t112 29q60 0 110.5 -30.5t79.5 -81t29 -107.5q0 -39 -13.5 -81t-50.5 -103l-144 -239h-90l130 215q-30 -11 -60 -11q-60 0 -108 28.5zM191.5 546.5q-31.5 -19.5 -48.5 -52t-17 -71.5q0 -61 38 -102t100 -41
t99.5 41t37.5 102q0 39 -17.5 71.5t-48.5 52t-71 19.5q-41 0 -72.5 -19.5z" />
    <glyph glyph-name="zero.tf" 
d="M185 16.5q-50 28.5 -77.5 78.5t-27.5 112v286q0 62 27.5 112t77.5 78.5t115 28.5t115 -28.5t77.5 -78.5t27.5 -112v-286q0 -62 -27.5 -112t-77.5 -78.5t-115 -28.5t-115 28.5zM399.5 104.5q38.5 40.5 38.5 102.5v286q0 62 -38.5 102.5t-99.5 40.5t-99.5 -40.5
t-38.5 -102.5v-286q0 -62 38.5 -102.5t99.5 -40.5t99.5 40.5z" />
    <glyph glyph-name="one.tf" 
d="M512 81v-81h-410v81h164v508l-134 -94l-45 67l197 138h63v-619h165z" />
    <glyph glyph-name="two.tf" 
d="M92 64q0 161 180 276q57 37 86.5 59.5t47.5 50t18 62.5q0 52 -36 86t-95 34q-54 0 -89 -31.5t-48 -85.5l-73 30q15 74 71.5 120.5t138.5 46.5q63 0 111.5 -26.5t75 -72.5t26.5 -101q0 -50 -19.5 -86.5t-50.5 -63t-89 -67.5q-14 -9 -42 -29q-66 -48 -93 -89t-33 -97h337
v-80h-424v64z" />
    <glyph glyph-name="three.tf" 
d="M475 368q53 -57 53 -154q0 -67 -32.5 -118.5t-86 -79.5t-114.5 -28q-75 0 -137 40t-87 115l71 29q19 -53 58.5 -79.5t94.5 -26.5q40 0 74.5 18.5t55.5 52.5t21 77q0 71 -45.5 112.5t-132.5 41.5h-41v42l160 210h-292v80h400v-53l-158 -211q85 -11 138 -68z" />
    <glyph glyph-name="four.tf" 
d="M554 149h-109v-149h-82v149h-318v64l329 487h71v-471h109v-80zM363 229v311l-218 -311h218z" />
    <glyph glyph-name="five.tf" 
d="M415 415.5q50 -26.5 79.5 -77t29.5 -118.5q0 -70 -30 -122.5t-82.5 -81t-116.5 -28.5q-69 0 -128 40t-91 119l76 31q14 -51 54.5 -81.5t88.5 -30.5q69 0 109 44t40 110q0 61 -41.5 101.5t-108.5 40.5q-37 0 -71.5 -15t-60.5 -38l-49 33l62 358h314v-78h-249l-37 -203
q43 23 103 23q59 0 109 -26.5z" />
    <glyph glyph-name="six.tf" 
d="M434.5 438q54.5 -31 84.5 -85.5t30 -123.5q0 -66 -31.5 -121t-87.5 -87.5t-125 -32.5q-68 0 -124 34t-87.5 89.5t-31.5 117.5q0 43 16 89.5t56 113.5l161 268h93l-146 -243q36 12 68 12q70 0 124.5 -31zM388 87q37 23 57.5 61t20.5 81q0 46 -20.5 83.5t-57 59t-83.5 21.5
q-74 0 -117 -46.5t-43 -117.5q0 -43 20.5 -81t57 -61t82.5 -23t83 23z" />
    <glyph glyph-name="seven.tf" 
d="M521 700v-64q-121 -147 -169 -278t-48 -272v-86h-88v86q0 147 46.5 276.5t148.5 256.5h-332v81h442z" />
    <glyph glyph-name="eight.tf" 
d="M491 294q29 -45 29 -101q0 -59 -29 -105.5t-79 -73t-112 -26.5t-112 26.5t-79 73t-29 105.5q0 56 28.5 101t75.5 73q-39 24 -60.5 63t-21.5 89q0 51 25.5 95.5t71 71t101.5 26.5t101 -26.5t70.5 -71t25.5 -95.5q0 -50 -21.5 -89t-60.5 -63q47 -28 76 -73zM218.5 600
q-30.5 -34 -30.5 -81t32 -80t80 -33q47 0 79 33.5t32 79.5q0 47 -30.5 81t-80.5 34q-51 0 -81.5 -34zM370.5 84q31.5 18 49 47.5t17.5 63.5q0 41 -20 71.5t-51.5 47t-65.5 16.5t-65.5 -16.5t-51.5 -47t-20 -71.5q0 -34 17.5 -63.5t49 -47.5t70.5 -18t70.5 18z" />
    <glyph glyph-name="nine.tf" 
d="M171.5 262q-54.5 31 -84.5 85.5t-30 123.5q0 66 31.5 121t87.5 87.5t125 32.5q68 0 124 -34t87.5 -89.5t31.5 -117.5q0 -43 -16 -89.5t-56 -113.5l-161 -268h-93l146 243q-36 -12 -68 -12q-70 0 -124.5 31zM218 613q-37 -23 -57.5 -61t-20.5 -81q0 -46 20.5 -83.5t57 -59
t83.5 -21.5q74 0 117 46.5t43 117.5q0 43 -20.5 81t-57 61t-82.5 23t-83 -23z" />
    <glyph glyph-name="zero.tf.ss01" 
d="M189.5 16.5q-47.5 28.5 -73.5 77.5t-26 110v222q0 61 26 110t73.5 77.5t109.5 28.5q96 0 153 -59t57 -157v-222q0 -98 -57 -157t-153 -59q-62 0 -109.5 28.5zM391 104q36 38 36 100v222q0 62 -36 100t-92 38q-55 0 -91 -38t-36 -100v-222q0 -62 36 -100t91 -38
q56 0 92 38z" />
    <glyph glyph-name="one.tf.ss01" 
d="M500 81v-81h-366v81h140v438l-130 -91l-45 67l193 135h63v-549h145z" />
    <glyph glyph-name="two.tf.ss01" 
d="M508 81v-81h-414v64q0 60 44 117t129 108q78 47 113.5 82.5t35.5 80.5q0 46 -33.5 77.5t-88.5 31.5q-102 0 -130 -104l-73 30q20 72 75.5 113.5t127.5 41.5q59 0 105.5 -25t72.5 -68.5t26 -96.5t-22.5 -91t-58 -65t-96.5 -63q-69 -41 -100.5 -74t-38.5 -78h326z" />
    <glyph glyph-name="three.tf.ss01" 
d="M460.5 329.5q44.5 -50.5 44.5 -132.5q0 -58 -28 -106t-75.5 -75.5t-102.5 -27.5q-71 0 -127.5 42.5t-76.5 111.5l73 30q11 -47 47.5 -77t83.5 -30q52 0 88 36.5t36 95.5q0 55 -38 93t-110 38h-41v43l136 181h-260v78h366v-52l-137 -185q77 -13 121.5 -63.5z" />
    <glyph glyph-name="four.tf.ss01" 
d="M543 133h-125v-133h-81v133h-280v66l279 431h82v-417h125v-80zM159 213h178v276z" />
    <glyph glyph-name="five.tf.ss01" 
d="M403 382q46 -25 74.5 -72.5t28.5 -112.5q0 -62 -27.5 -109.5t-75 -73.5t-107.5 -26q-72 0 -125.5 40.5t-77.5 108.5l74 30q16 -48 52 -74.5t77 -26.5q57 0 93.5 37.5t36.5 93.5q0 55 -37 92.5t-99 37.5q-30 0 -64 -16t-61 -40l-48 32l61 327h274v-78h-210l-35 -170
q44 25 99 25q51 0 97 -25z" />
    <glyph glyph-name="six.tf.ss01" 
d="M416 397.5q48 -28.5 75.5 -78.5t27.5 -112q0 -61 -29 -111t-79 -79t-112 -29q-60 0 -110.5 30.5t-79.5 81t-29 107.5q0 39 13.5 81t50.5 103l144 239h90l-130 -215q30 11 60 11q60 0 108 -28.5zM371.5 83.5q31.5 19.5 48.5 52t17 71.5q0 61 -38 102t-100 41t-99.5 -41
t-37.5 -102q0 -39 17.5 -71.5t48.5 -52t71 -19.5q41 0 72.5 19.5z" />
    <glyph glyph-name="seven.tf.ss01" 
d="M496 630v-63q-76 -88 -119 -169.5t-60.5 -165.5t-17.5 -186v-46h-88v46q0 151 41.5 274t125.5 229h-274v81h392z" />
    <glyph glyph-name="eight.tf.ss01" 
d="M476.5 270q22.5 -40 22.5 -92q0 -56 -25.5 -99t-71 -67t-102.5 -24t-102.5 24t-71 67t-25.5 99q0 49 23 89t62 66q-31 23 -48 57.5t-17 76.5q0 46 22 86t63 64.5t94 24.5q50 0 91 -23.5t64.5 -63.5t23.5 -88q0 -41 -16.5 -75t-46.5 -58q38 -24 60.5 -64zM227 535.5
q-25 -28.5 -25 -68.5q0 -39 28 -67.5t70 -28.5t70 28.5t28 67.5q0 38 -28 67.5t-70 29.5q-48 0 -73 -28.5zM385.5 97q32.5 31 32.5 81q0 32 -16.5 58.5t-43.5 41.5t-58 15q-30 0 -57.5 -15t-44 -41.5t-16.5 -58.5q0 -50 32.5 -81t85.5 -31t85.5 31z" />
    <glyph glyph-name="nine.tf.ss01" 
d="M184 232.5q-48 28.5 -75.5 78.5t-27.5 112q0 61 29 111t79 79t112 29q60 0 110.5 -30.5t79.5 -81t29 -107.5q0 -39 -13.5 -81t-50.5 -103l-144 -239h-90l130 215q-30 -11 -60 -11q-60 0 -108 28.5zM228.5 546.5q-31.5 -19.5 -48.5 -52t-17 -71.5q0 -61 38 -102t100 -41
t99.5 41t37.5 102q0 39 -17.5 71.5t-48.5 52t-71 19.5q-41 0 -72.5 -19.5z" />
    <glyph glyph-name="zero.tosf" 
d="M189.5 16.5q-47.5 28.5 -73.5 77.5t-26 110v222q0 61 26 110t73.5 77.5t109.5 28.5q96 0 153 -59t57 -157v-222q0 -98 -57 -157t-153 -59q-62 0 -109.5 28.5zM391 104q36 38 36 100v222q0 62 -36 100t-92 38q-55 0 -91 -38t-36 -100v-222q0 -62 36 -100t91 -38
q56 0 92 38z" />
    <glyph glyph-name="one.tosf" 
d="M500 81v-81h-366v81h140v438l-130 -91l-45 67l193 135h63v-549h145z" />
    <glyph glyph-name="two.tosf" 
d="M508 80v-80h-414v63q0 61 43.5 118t129.5 108q78 47 113.5 82.5t35.5 80.5q0 50 -32.5 80t-89.5 30q-100 0 -130 -105l-73 30q20 72 75.5 113.5t127.5 41.5q60 0 106.5 -25t72 -68.5t25.5 -96.5t-22.5 -91t-58 -65t-96.5 -63q-68 -40 -100 -74.5t-39 -78.5h326z" />
    <glyph glyph-name="three.tosf" 
d="M475 298q53 -57 53 -154q0 -67 -32.5 -118t-86 -79t-114.5 -28q-75 0 -137 39.5t-87 114.5l71 29q19 -53 58 -79t95 -26q40 0 75 18.5t55.5 52t20.5 76.5q0 71 -45.5 112.5t-132.5 41.5h-41v42l160 210h-292v80h400v-53l-158 -211q85 -11 138 -68z" />
    <glyph glyph-name="four.tosf" 
d="M348 79h-313v65l324 486h71v-471h134v-80h-134v-149h-82v149zM348 159v310l-213 -310h213z" />
    <glyph glyph-name="five.tosf" 
d="M415 345.5q50 -26.5 79.5 -77t29.5 -118.5q0 -70 -30 -122.5t-82.5 -81t-116.5 -28.5q-69 0 -128 40t-91 119l76 31q14 -51 54.5 -81.5t88.5 -30.5q69 0 109 44t40 110q0 61 -41.5 101.5t-108.5 40.5q-37 0 -71.5 -15t-60.5 -38l-49 33l62 358h314v-78h-249l-37 -203
q43 23 103 23q59 0 109 -26.5z" />
    <glyph glyph-name="six.tosf" 
d="M434.5 438q54.5 -31 84.5 -85.5t30 -123.5q0 -66 -31.5 -121t-87.5 -87.5t-125 -32.5q-68 0 -124 34t-87.5 89.5t-31.5 117.5q0 43 16 89.5t56 113.5l161 268h93l-146 -243q36 12 68 12q70 0 124.5 -31zM388 87q37 23 57.5 61t20.5 81q0 46 -20.5 83.5t-57 59t-83.5 21.5
q-74 0 -117 -46.5t-43 -117.5q0 -43 20.5 -81t57 -61t82.5 -23t83 23z" />
    <glyph glyph-name="seven.tosf" 
d="M506 630v-64q-99 -125 -143 -253.5t-44 -266.5v-116h-88v116q0 133 41 264.5t118 238.5h-296v81h412z" />
    <glyph glyph-name="eight.tosf" 
d="M491 294q29 -45 29 -101q0 -59 -29 -105.5t-79 -73t-112 -26.5t-112 26.5t-79 73t-29 105.5q0 56 28.5 101t75.5 73q-39 24 -60.5 63t-21.5 89q0 51 25.5 95.5t71 71t101.5 26.5t101 -26.5t70.5 -71t25.5 -95.5q0 -50 -21.5 -89t-60.5 -63q47 -28 76 -73zM218.5 600
q-30.5 -34 -30.5 -81t32 -80t80 -33q47 0 79 33.5t32 79.5q0 47 -30.5 81t-80.5 34q-51 0 -81.5 -34zM370.5 84q31.5 18 49 47.5t17.5 63.5q0 41 -20 71.5t-51.5 47t-65.5 16.5t-65.5 -16.5t-51.5 -47t-20 -71.5q0 -34 17.5 -63.5t49 -47.5t70.5 -18t70.5 18z" />
    <glyph glyph-name="nine.tosf" 
d="M425 608q56 -34 87.5 -89.5t31.5 -117.5q0 -43 -16 -89.5t-56 -113.5l-161 -268h-92l147 245q-33 -14 -70 -14q-70 0 -124.5 31t-84.5 85.5t-30 123.5q0 66 31.5 121t87.5 87.5t125 32.5q68 0 124 -34zM418 283.5q43 46.5 43 117.5q0 43 -20.5 81t-57 61t-82.5 23
t-83 -23t-57.5 -61t-20.5 -81q0 -46 20.5 -83.5t57 -59t83.5 -21.5q74 0 117 46.5z" />
    <glyph glyph-name="comma.tf" 
d="M250 103h87l-67 -181h-76z" />
    <glyph glyph-name="period.tf" 
d="M260 5.5q-17 17.5 -17 40.5q0 24 17 41t41 17q23 0 40.5 -17t17.5 -41q0 -23 -17.5 -40.5t-40.5 -17.5q-24 0 -41 17.5z" />
    <glyph glyph-name="braceleft.case" horiz-adv-x="271" 
d="M167 392.5q-13 -25.5 -48 -42.5q35 -18 48 -44t13 -76v-180q0 -24 11 -34t46 -10h4v-78h-30q-64 0 -87.5 30.5t-23.5 98.5v173q0 77 -70 90v59q70 13 70 90v174q0 68 23.5 98.5t87.5 30.5h30v-78h-4q-35 0 -46 -10t-11 -34v-181q0 -51 -13 -76.5z" />
    <glyph glyph-name="braceright.case" horiz-adv-x="271" 
d="M241 379v-59q-70 -13 -70 -90v-173q0 -68 -23.5 -98.5t-87.5 -30.5h-30v78h4q35 0 46 10t11 34v180q0 50 13 76t48 44q-35 17 -48 42.5t-13 76.5v181q0 24 -11 34t-46 10h-4v78h30q64 0 87.5 -30.5t23.5 -98.5v-174q0 -77 70 -90z" />
    <glyph glyph-name="bracketleft.case" horiz-adv-x="310" 
d="M154 702v-704h131v-78h-211v860h211v-78h-131z" />
    <glyph glyph-name="bracketright.case" horiz-adv-x="310" 
d="M236 -80h-211v78h131v704h-131v78h211v-860z" />
    <glyph glyph-name="parenleft.case" horiz-adv-x="315" 
d="M138 26q-48 66 -75.5 150t-27.5 174t27.5 174t75.5 150t108 106l53 -48q-95 -81 -139.5 -171t-44.5 -211t44.5 -211t139.5 -171l-53 -48q-60 40 -108 106z" />
    <glyph glyph-name="parenright.case" horiz-adv-x="315" 
d="M16 -32q95 81 139.5 171t44.5 211t-44.5 211t-139.5 171l53 48q60 -40 108 -106t75.5 -150t27.5 -174t-27.5 -174t-75.5 -150t-108 -106z" />
    <glyph glyph-name="emdash.case" horiz-adv-x="935" 
d="M885 389v-78h-835v78h835z" />
    <glyph glyph-name="endash.case" horiz-adv-x="657" 
d="M607 389v-78h-557v78h557z" />
    <glyph glyph-name="hyphen.case" horiz-adv-x="389" 
d="M339 389v-78h-289v78h289z" />
    <glyph glyph-name="uni00AD.case" horiz-adv-x="389" 
d="M339 389v-78h-289v78h289z" />
    <glyph glyph-name="guillemotleft.case" horiz-adv-x="549" 
d="M30 350l229 237l53 -53l-183 -184l183 -184l-53 -53zM230 350l229 237l53 -53l-183 -184l183 -184l-53 -53z" />
    <glyph glyph-name="guillemotright.case" horiz-adv-x="549" 
d="M519 350l-229 237l-53 -53l183 -184l-183 -184l53 -53zM319 350l-229 237l-53 -53l183 -184l-183 -184l53 -53z" />
    <glyph glyph-name="guilsinglleft.case" horiz-adv-x="349" 
d="M30 350l229 237l53 -53l-183 -184l183 -184l-53 -53z" />
    <glyph glyph-name="guilsinglright.case" horiz-adv-x="349" 
d="M37 166l183 184l-183 184l53 53l229 -237l-229 -237z" />
    <glyph glyph-name="parenleft_A_plus_parenright" horiz-adv-x="1022" 
d="M279.5 -49q-105.5 62 -167.5 168t-62 231q0 126 62 231.5t167.5 167.5t231.5 62t231.5 -62t167.5 -167.5t62 -231.5q0 -125 -62 -231t-167.5 -168t-231.5 -62t-231.5 62zM260 142l41 93h212l41 -93h55l-185 416h-34l-185 -416h55zM407 480l87 -201h-174zM742 222v105h104
v46h-104v105h-46v-105h-106v-46h106v-105h46z" />
    <glyph glyph-name="parenleft_A_minus_parenright" horiz-adv-x="1022" 
d="M279.5 -49q-105.5 62 -167.5 168t-62 231q0 126 62 231.5t167.5 167.5t231.5 62t231.5 -62t167.5 -167.5t62 -231.5q0 -125 -62 -231t-167.5 -168t-231.5 -62t-231.5 62zM260 142l41 93h212l41 -93h55l-185 416h-34l-185 -416h55zM407 480l87 -201h-174zM836 327v46h-236
v-46h236z" />
    <glyph glyph-name="parenleft_A_parenright" horiz-adv-x="1018" 
d="M279.5 -49q-105.5 62 -167.5 168t-62 231q0 126 62 231.5t167.5 167.5t231.5 62t231.5 -62t167.5 -167.5t62 -231.5q0 -125 -62 -231t-167.5 -168t-231.5 -62t-231.5 62zM364 142l41 93h212l41 -93h55l-185 416h-34l-185 -416h55zM511 480l87 -201h-174z" />
    <glyph glyph-name="parenleft_B_plus_parenright" horiz-adv-x="1022" 
d="M279.5 -49q-105.5 62 -167.5 168t-62 231q0 126 62 231.5t167.5 167.5t231.5 62t231.5 -62t167.5 -167.5t62 -231.5q0 -125 -62 -231t-167.5 -168t-231.5 -62t-231.5 62zM429 142q51 0 87.5 33.5t36.5 84.5q0 35 -17 60.5t-48 36.5q53 29 53 92q0 47 -36.5 78t-89.5 31
h-135v-416h149zM330 510h84q36 0 57 -18t21 -46q0 -30 -23.5 -50t-67.5 -20h-71v134zM740 222v105h104v46h-104v105h-46v-105h-106v-46h106v-105h46zM330 332h95q36 0 57 -21t21 -51q0 -33 -23 -51.5t-68 -18.5h-82v142z" />
    <glyph glyph-name="parenleft_B_minus_parenright" horiz-adv-x="1022" 
d="M279.5 -49q-105.5 62 -167.5 168t-62 231q0 126 62 231.5t167.5 167.5t231.5 62t231.5 -62t167.5 -167.5t62 -231.5q0 -125 -62 -231t-167.5 -168t-231.5 -62t-231.5 62zM429 142q51 0 87.5 33.5t36.5 84.5q0 35 -17 60.5t-48 36.5q53 29 53 92q0 47 -36.5 78t-89.5 31
h-135v-416h149zM330 510h84q36 0 57 -18t21 -46q0 -30 -23.5 -50t-67.5 -20h-71v134zM834 327v46h-236v-46h236zM330 332h95q36 0 57 -21t21 -51q0 -33 -23 -51.5t-68 -18.5h-82v142z" />
    <glyph glyph-name="parenleft_B_parenright" horiz-adv-x="1022" 
d="M279.5 -49q-105.5 62 -167.5 168t-62 231q0 126 62 231.5t167.5 167.5t231.5 62t231.5 -62t167.5 -167.5t62 -231.5q0 -125 -62 -231t-167.5 -168t-231.5 -62t-231.5 62zM544 142q51 0 87.5 33.5t36.5 84.5q0 35 -17 60.5t-48 36.5q53 29 53 92q0 47 -36.5 78t-89.5 31
h-135v-416h149zM445 510h84q36 0 57 -18t21 -46q0 -30 -23.5 -50t-67.5 -20h-71v134zM445 332h95q36 0 57 -21t21 -51q0 -33 -23 -51.5t-68 -18.5h-82v142z" />
    <glyph glyph-name="parenleft_C_plus_parenright" horiz-adv-x="1022" 
d="M279.5 -49q-105.5 62 -167.5 168t-62 231q0 126 62 231.5t167.5 167.5t231.5 62t231.5 -62t167.5 -167.5t62 -231.5q0 -125 -62 -231t-167.5 -168t-231.5 -62t-231.5 62zM587 209l-38 36q-48 -60 -121 -60q-43 0 -80 21t-59.5 59t-22.5 85t22.5 85t59.5 59t80 21
q73 0 121 -60l38 36q-61 76 -159 76q-57 0 -107 -28t-79.5 -78t-29.5 -111t29.5 -111t79.5 -78t107 -28q96 0 159 76zM751 222v105h104v46h-104v105h-46v-105h-106v-46h106v-105h46z" />
    <glyph glyph-name="parenleft_C_minus_parenright" horiz-adv-x="1018" 
d="M279.5 -49q-105.5 62 -167.5 168t-62 231q0 126 62 231.5t167.5 167.5t231.5 62t231.5 -62t167.5 -167.5t62 -231.5q0 -125 -62 -231t-167.5 -168t-231.5 -62t-231.5 62zM587 209l-38 36q-48 -60 -121 -60q-43 0 -80 21t-59.5 59t-22.5 85t22.5 85t59.5 59t80 21
q73 0 121 -60l38 36q-61 76 -159 76q-57 0 -107 -28t-79.5 -78t-29.5 -111t29.5 -111t79.5 -78t107 -28q96 0 159 76zM845 327v46h-236v-46h236z" />
    <glyph glyph-name="parenleft_C_parenright" horiz-adv-x="1018" 
d="M279.5 -49q-105.5 62 -167.5 168t-62 231q0 126 62 231.5t167.5 167.5t231.5 62t231.5 -62t167.5 -167.5t62 -231.5q0 -125 -62 -231t-167.5 -168t-231.5 -62t-231.5 62zM679 209l-38 36q-48 -60 -121 -60q-43 0 -80 21t-59.5 59t-22.5 85t22.5 85t59.5 59t80 21
q73 0 121 -60l38 36q-61 76 -159 76q-57 0 -107 -28t-79.5 -78t-29.5 -111t29.5 -111t79.5 -78t107 -28q96 0 159 76z" />
    <glyph glyph-name="parenleft_D_plus_parenright" horiz-adv-x="1022" 
d="M279.5 -49q-105.5 62 -167.5 168t-62 231q0 126 62 231.5t167.5 167.5t231.5 62t231.5 -62t167.5 -167.5t62 -231.5q0 -125 -62 -231t-167.5 -168t-231.5 -62t-231.5 62zM342 142q66 0 114 27t74 74t26 107t-26 107t-74 74t-114 27h-118v-416h118zM274 510h67
q76 0 119.5 -44.5t43.5 -115.5q0 -70 -43.5 -115t-119.5 -45h-67v320zM760 222v105h104v46h-104v105h-46v-105h-106v-46h106v-105h46z" />
    <glyph glyph-name="parenleft_D_minus_parenright" horiz-adv-x="1022" 
d="M279.5 -49q-105.5 62 -167.5 168t-62 231q0 126 62 231.5t167.5 167.5t231.5 62t231.5 -62t167.5 -167.5t62 -231.5q0 -125 -62 -231t-167.5 -168t-231.5 -62t-231.5 62zM342 142q66 0 114 27t74 74t26 107t-26 107t-74 74t-114 27h-118v-416h118zM274 510h67
q76 0 119.5 -44.5t43.5 -115.5q0 -70 -43.5 -115t-119.5 -45h-67v320zM854 327v46h-236v-46h236z" />
    <glyph glyph-name="parenleft_D_parenright" horiz-adv-x="1022" 
d="M279.5 -49q-105.5 62 -167.5 168t-62 231q0 126 62 231.5t167.5 167.5t231.5 62t231.5 -62t167.5 -167.5t62 -231.5q0 -125 -62 -231t-167.5 -168t-231.5 -62t-231.5 62zM499 142q66 0 114 27t74 74t26 107t-26 107t-74 74t-114 27h-118v-416h118zM431 510h67
q76 0 119.5 -44.5t43.5 -115.5q0 -70 -43.5 -115t-119.5 -45h-67v320z" />
    <glyph glyph-name="parenleft_N_G_parenright" horiz-adv-x="1022" 
d="M279.5 -49q-105.5 62 -167.5 168t-62 231q0 126 62 231.5t167.5 167.5t231.5 62t231.5 -62t167.5 -167.5t62 -231.5q0 -125 -62 -231t-167.5 -168t-231.5 -62t-231.5 62zM770.5 192q31.5 14 55.5 38v130h-121v-38h83v-75q-16 -14 -38 -22.5t-45 -8.5q-54 0 -90.5 39
t-36.5 95q0 36 17 67t46 49t64 18q63 0 98 -50l27 27q-46 61 -125 61q-47 0 -85.5 -23t-61 -62.5t-22.5 -86.5q0 -46 22.5 -85.5t61 -63t85.5 -23.5q34 0 65.5 14zM228 180v264l203 -264h32v340h-40v-264l-203 264h-32v-340h40z" />
    <glyph glyph-name="space.tf" 
d="M0 0z" />
    <glyph glyph-name="dollar.ss01" horiz-adv-x="506" 
d="M419 50q-46 -50 -123 -60v-77h-76v78q-70 11 -118 57t-61 116l73 32q6 -48 33.5 -82.5t72.5 -45.5v230q-83 23 -122.5 66.5t-39.5 110.5q0 62 45 108.5t117 56.5v78h76v-78q55 -8 93.5 -41t58.5 -87l-72 -31q-11 31 -31.5 52t-48.5 29v-203q169 -51 169 -185
q0 -74 -46 -124zM220 379v184q-40 -7 -62 -31t-22 -57q0 -69 84 -96zM363 104q24 28 24 70q0 75 -91 106v-212q43 8 67 36z" />
    <glyph glyph-name="Euro.ss01" horiz-adv-x="590" 
d="M289.5 106q59.5 -38 129.5 -38q78 0 135 42v-94q-61 -28 -134 -28q-69 0 -131.5 27.5t-108.5 77.5t-68 115h-84l31 78h37q-1 10 -1 29q0 18 1 27h-68l31 78h52q22 66 68 116t109 78t132 28q76 0 138 -30l-32 -74q-48 24 -107 24q-70 0 -130 -38.5t-90 -103.5h283l-33 -78
h-271q-1 -9 -1 -27q0 -11 2 -29h246l-33 -78h-192q30 -64 89.5 -102z" />
    <glyph glyph-name="sterling.ss01" horiz-adv-x="488" 
d="M208.5 152.5q-11.5 -28.5 -24 -47.5t-16.5 -24h276v-81h-394v50l15 18q35 41 53.5 73t18.5 71q0 7 -2 19h-89v78h54q-27 42 -40.5 72.5t-13.5 73.5q0 50 27 93t74.5 68.5t106.5 25.5q72 0 127.5 -41.5t75.5 -113.5l-73 -30q-28 104 -130 104q-55 0 -88 -31t-33 -78
q0 -24 10 -45.5t30 -53.5q18 -28 26 -44h156v-78h-135v-5q0 -45 -11.5 -73.5z" />
    <glyph glyph-name="dollar.tf.ss01" 
d="M463 50q-46 -50 -123 -60v-77h-76v78q-70 11 -118 57t-61 116l73 32q6 -48 33.5 -82.5t72.5 -45.5v230q-83 23 -122.5 66.5t-39.5 110.5q0 62 45 108.5t117 56.5v78h76v-78q55 -8 93.5 -41t58.5 -87l-72 -31q-11 31 -31.5 52t-48.5 29v-203q169 -51 169 -185
q0 -74 -46 -124zM264 379v184q-40 -7 -62 -31t-22 -57q0 -69 84 -96zM407 104q24 28 24 70q0 75 -91 106v-212q43 8 67 36z" />
    <glyph glyph-name="Euro.tf.ss01" 
d="M283.5 106q59.5 -38 129.5 -38q78 0 135 42v-94q-61 -28 -134 -28q-69 0 -131.5 27.5t-108.5 77.5t-68 115h-84l31 78h37q-1 10 -1 29q0 18 1 27h-68l31 78h52q22 66 68 116t109 78t132 28q76 0 138 -30l-32 -74q-48 24 -107 24q-70 0 -130 -38.5t-90 -103.5h283l-33 -78
h-271q-1 -9 -1 -27q0 -11 2 -29h246l-33 -78h-192q30 -64 89.5 -102z" />
    <glyph glyph-name="sterling.tf.ss01" 
d="M253.5 152.5q-11.5 -28.5 -24 -47.5t-16.5 -24h276v-81h-394v50l15 18q35 41 53.5 73t18.5 71q0 7 -2 19h-89v78h54q-27 42 -40.5 72.5t-13.5 73.5q0 50 27 93t74.5 68.5t106.5 25.5q72 0 127.5 -41.5t75.5 -113.5l-73 -30q-28 104 -130 104q-55 0 -88 -31t-33 -78
q0 -24 10 -45.5t30 -53.5q18 -28 26 -44h156v-78h-135v-5q0 -45 -11.5 -73.5z" />
    <glyph glyph-name="yen.tf.ss01" 
d="M384 324h88v-78h-131v-57h131v-78h-131v-111h-82v111h-131v78h131v57h-131v78h88l-173 306h92l165 -305l165 305h92z" />
    <glyph glyph-name="yen.ss01" horiz-adv-x="538" 
d="M353 324h88v-78h-131v-57h131v-78h-131v-111h-82v111h-131v78h131v57h-131v78h88l-173 306h92l165 -305l165 305h92z" />
    <glyph glyph-name="dollar.tf" 
d="M463.5 56.5q-48.5 -54.5 -130.5 -65.5v-68h-76v67q-74 11 -126.5 63t-64.5 120l74 32q9 -50 40 -86.5t77 -46.5v271q-92 26 -135 70.5t-43 114.5q0 46 23 85.5t63.5 65.5t91.5 32v66h76v-70q54 -11 93.5 -46.5t57.5 -92.5l-76 -31q-9 29 -28.5 51.5t-46.5 33.5v-215
q90 -29 134.5 -80.5t44.5 -130.5q0 -85 -48.5 -139.5zM185.5 469.5q24.5 -25.5 71.5 -41.5v202q-44 -7 -70 -34.5t-26 -67.5q0 -33 24.5 -58.5zM404 117q26 33 26 79q0 89 -97 127v-250q45 11 71 44z" />
    <glyph glyph-name="Euro.tf" 
d="M582 113v-94q-67 -31 -148 -31q-78 0 -148.5 32t-121.5 89.5t-74 133.5h-78l32 78h32q-1 10 -1 29t1 28h-64l32 78h46q22 75 73.5 133.5t122 90.5t148.5 32q81 0 147 -32l-31 -73q-51 24 -115 24q-84 0 -154.5 -48t-101.5 -127h307l-33 -78h-293q-1 -9 -1 -28
q0 -20 1 -29h269l-33 -78h-217q31 -79 101.5 -126.5t154.5 -47.5t147 44z" />
    <glyph glyph-name="sterling.tf" 
d="M532 81v-81h-444v50l15 19q46 55 65.5 90t19.5 83q0 13 -1 19h-99v78h67q-4 6 -24.5 38.5t-31.5 69t-11 75.5q0 52 28.5 96t77.5 69t107 25q77 0 134.5 -43.5t75.5 -111.5l-73 -30q-12 45 -49 74.5t-88 29.5q-61 0 -96 -33t-35 -86q0 -29 12 -54.5t36 -62.5
q21 -29 34 -56h185v-78h-161q2 -18 2 -29q0 -42 -14.5 -76.5t-46.5 -74.5h315z" />
    <glyph glyph-name="yen.tf" 
d="M387 364h97v-78h-143v-57h143v-78h-143v-151h-82v151h-143v78h143v55l-1 2h-142v78h96l-199 336h94l192 -336h1l193 336h94z" />
    <glyph glyph-name="uni0308.case" horiz-adv-x="0" 
d="M-319 784.5q-15 15.5 -15 36.5t15 36t36 15t36 -15t15 -36t-15 -36.5t-36 -15.5t-36 15.5zM-137 784.5q-15 15.5 -15 36.5t15 36t36 15t36 -15t15 -36t-15 -36.5t-36 -15.5t-36 15.5z" />
    <glyph glyph-name="gravecomb.case" horiz-adv-x="0" 
d="M-216 946h94l72 -181h-78z" />
    <glyph glyph-name="acutecomb.case" horiz-adv-x="0" 
d="M-144 946h94l-88 -181h-78z" />
    <glyph glyph-name="uni0302.case" horiz-adv-x="0" 
d="M-233 940h65l118 -175h-80l-70 104l-70 -104h-80z" />
    <glyph glyph-name="uni030C.case" horiz-adv-x="0" 
d="M-350 940h80l70 -104l70 104h80l-118 -175h-65z" />
    <glyph glyph-name="uni030A.case" horiz-adv-x="0" 
d="M-238 669q-32 32 -32 79t32 79t78 32t78 -32t32 -79t-32 -79t-78 -32t-78 32zM-126 713.5q13 13.5 13 34.5t-13 34.5t-34 13.5t-34 -13.5t-13 -34.5t13 -34.5t34 -13.5t34 13.5z" />
    <glyph glyph-name="tildecomb.case" horiz-adv-x="0" 
d="M-185 775.5q-20 10.5 -41 27.5q-11 8 -20.5 14t-16.5 6q-17 0 -26.5 -13.5t-9.5 -36.5h-59q0 55 29 81.5t69 26.5q22 0 40.5 -9.5t40.5 -26.5q3 -2 11 -8t13.5 -8.5t10.5 -2.5q35 0 35 47h59q0 -55 -27.5 -81.5t-63.5 -26.5q-24 0 -44 10.5z" />
    <glyph glyph-name="uni0327.case" horiz-adv-x="0" 
d="M-69 -73q19 -22 19 -55q0 -36 -28 -60t-71 -24q-27 0 -46 8v50q18 -6 42 -6q18 0 31 9.5t13 25.5q0 13 -9.5 21.5t-22.5 8.5q-18 0 -32 -7l-35 35l51 67h75l-37 -48q31 -3 50 -25z" />
    </font>
</defs>
</svg>
